<svg xmlns="http://www.w3.org/2000/svg" width="632" height="523.18" viewBox="0 0 632 523.18">
    <defs>
        <clipPath id="clip-path">
            <path id="Rectangle_288" fill="none" d="M0 0H632V523.18H0z"/>
        </clipPath>
        <style>
            .cls-3{fill:#ff3912}.cls-4{fill:#f99b1d}.cls-5{fill:#a55353}.cls-6{fill:#14b0bf}.cls-8{fill:#3a7f91}
        </style>
    </defs>
    <g id="Group_362">
        <g id="Group_361" clip-path="url(#clip-path)">
            <path id="Path_258" d="M19.627 159.828a10.783 10.783 0 1 1 0-21.566 97.191 97.191 0 0 0 97.079-97.072 10.783 10.783 0 1 1 21.566 0A118.769 118.769 0 0 1 19.627 159.828" class="cls-3" transform="translate(54.057 186.016)"/>
            <path id="Path_259" d="M36.643 197.571a10.783 10.783 0 1 1 0-21.566C51.922 176 79.8 81.461 79.8 41.184a10.783 10.783 0 1 1 21.566 0c0 18.875-19.893 156.387-64.719 156.387" class="cls-3" transform="translate(158.192 186.022)"/>
            <path id="Path_260" d="M53.661 235.327a10.787 10.787 0 0 1-10.794-10.794V41.184a10.79 10.79 0 0 1 21.58 0v183.35a10.785 10.785 0 0 1-10.787 10.794" class="cls-3" transform="translate(262.339 186.022)"/>
            <path id="Path_261" d="M180.4 159.828A118.769 118.769 0 0 1 61.752 41.19a10.783 10.783 0 1 1 21.566 0 97.191 97.191 0 0 0 97.082 97.072 10.783 10.783 0 1 1 0 21.566" class="cls-3" transform="translate(377.913 186.016)"/>
            <path id="Path_262" d="M117.028 197.571c-44.827 0-64.719-137.513-64.719-156.387a10.787 10.787 0 1 1 21.573 0C73.882 81.461 101.749 176 117.028 176a10.783 10.783 0 1 1 0 21.566" class="cls-3" transform="translate(320.123 186.022)"/>
            <path id="Path_263" d="M53.661 235.327a10.787 10.787 0 0 1-10.794-10.794V41.184a10.79 10.79 0 0 1 21.58 0v183.35a10.785 10.785 0 0 1-10.787 10.794" class="cls-3" transform="translate(262.339 186.022)"/>
            <path id="Path_264" d="M81.167 66.639a8.648 8.648 0 0 0-6.322-3.3H56.781a8.636 8.636 0 0 0-6.322 3.3l-3.069 4.336h-5.511A4.017 4.017 0 0 0 37.871 75v56.51a4.022 4.022 0 0 0 4.008 4.03h84.691a4.029 4.029 0 0 0 4.023-4.03V75a4.025 4.025 0 0 0-4.023-4.03H84.235z" class="cls-4" transform="translate(231.765 387.64)"/>
            <path id="Path_265" d="M100.667 60.831a8.665 8.665 0 0 0-6.322-3.311H76.267a8.612 8.612 0 0 0-6.315 3.311l-3.069 4.343h-5.51a4.022 4.022 0 0 0-4.016 4.026v56.51a4.037 4.037 0 0 0 4.016 4.03h84.683a4.02 4.02 0 0 0 4.023-4.03V69.2a4 4 0 0 0-4.023-4.023h-42.335z" class="cls-4" transform="translate(351.016 352.011)"/>
            <path id="Path_266" d="M61.673 60.831a8.6 8.6 0 0 0-6.323-3.311H37.3a8.656 8.656 0 0 0-6.337 3.311l-3.053 4.343h-5.532a4 4 0 0 0-3.994 4.026v56.51a4.019 4.019 0 0 0 3.994 4.03h84.712a4.037 4.037 0 0 0 4.016-4.03V69.2a4.022 4.022 0 0 0-4.016-4.023H64.748z" class="cls-4" transform="translate(112.507 352.011)"/>
            <path id="Path_267" d="M119.031 54.991a8.641 8.641 0 0 0-6.322-3.289H94.652a8.628 8.628 0 0 0-6.322 3.289l-3.076 4.343h-5.511a4.011 4.011 0 0 0-4 4.03v56.5a4.016 4.016 0 0 0 4 4.03h84.7a4.029 4.029 0 0 0 4.023-4.03v-56.5a4.025 4.025 0 0 0-4.023-4.03h-42.337z" class="cls-4" transform="translate(463.529 316.405)"/>
            <path id="Path_268" d="M43.3 54.991a8.641 8.641 0 0 0-6.327-3.291H18.917a8.63 8.63 0 0 0-6.33 3.289l-3.068 4.345H4.008A4.017 4.017 0 0 0 0 63.364v56.5a4.022 4.022 0 0 0 4.008 4.03H88.7a4.019 4.019 0 0 0 4.016-4.03v-56.5a4.014 4.014 0 0 0-4.016-4.03H46.364z" class="cls-4" transform="translate(0 316.405)"/>
            <path id="Path_269" d="M121.365 31.4a3.672 3.672 0 0 0-3.665 3.67A104.306 104.306 0 0 1 13.507 139.255a3.667 3.667 0 1 0 0 7.333A111.656 111.656 0 0 0 125.032 35.07a3.672 3.672 0 0 0-3.667-3.674" class="cls-5" transform="translate(60.176 192.136)"/>
            <path id="Path_270" d="M84.456 31.4a3.672 3.672 0 0 0-3.667 3.674C80.789 65.942 55.841 177 30.523 177a3.663 3.663 0 1 0 0 7.326c36.119 0 57.6-126.7 57.6-149.26a3.672 3.672 0 0 0-3.667-3.666" class="cls-6" transform="translate(164.312 192.136)"/>
            <path id="Path_271" d="M66.419 31.4a3.672 3.672 0 0 0-3.667 3.674 111.656 111.656 0 0 0 111.525 111.514 3.667 3.667 0 1 0 0-7.333A104.306 104.306 0 0 1 70.085 35.07a3.672 3.672 0 0 0-3.666-3.67" class="cls-4" transform="translate(384.032 192.136)"/>
            <path id="Path_272" fill="#d1edfb" d="M56.976 31.4a3.672 3.672 0 0 0-3.667 3.674c0 22.563 21.481 149.26 57.6 149.26a3.663 3.663 0 1 0 0-7.326C85.6 177 60.65 65.942 60.65 35.07a3.678 3.678 0 0 0-3.674-3.67" transform="translate(326.243 192.136)"/>
            <path id="Path_273" d="M47.541 31.4a3.678 3.678 0 0 0-3.674 3.674V218.42a3.67 3.67 0 0 0 7.341 0V35.07a3.672 3.672 0 0 0-3.667-3.67" class="cls-8" transform="translate(268.459 192.136)"/>
            <path id="Path_274" fill="#a3b5c6" d="M392.343 94.167A103.951 103.951 0 0 0 211.5 34.51 92.918 92.918 0 0 0 87.45 92.971a77.766 77.766 0 0 0 3.667 155.448h286.837a77.8 77.8 0 0 0 14.389-154.252" transform="translate(81.461 -.003)"/>
            <path id="Path_275" d="M108.725 65.921l-68.443 46.72h68.443z" class="cls-8" transform="translate(246.516 403.423)"/>
            <path id="Path_276" d="M128.2 60.1l-68.431 46.716H128.2z" class="cls-3" transform="translate(365.776 367.815)"/>
            <path id="Path_277" d="M89.231 60.1L20.8 106.81h68.431z" class="cls-6" transform="translate(127.263 367.821)"/>
            <path id="Path_278" fill="#fff" d="M146.59 54.281l-68.436 46.714h68.436z" transform="translate(478.288 332.19)"/>
            <path id="Path_279" d="M70.84 54.282L2.411 100.988H70.84z" class="cls-5" transform="translate(14.758 332.196)"/>
            <path id="Path_280" fill="#b8c7d8" d="M160.9 29.36a74.724 74.724 0 0 0-71.74 52.893l-3.7 11.926-12.481.591a59.964 59.964 0 0 0 2.841 119.863h186.137a173.218 173.218 0 0 0 .619-212.022 85.441 85.441 0 0 0-53.163 27.839l-8.387 9.306-11.591-4.763A74.7 74.7 0 0 0 160.9 29.36" transform="translate(96.755 15.976)"/>
            <path id="Path_281" fill="#d3dce5" d="M99.733 10.809A74.565 74.565 0 0 0 89.16 32.076l-3.7 11.94-12.477.584a59.966 59.966 0 0 0 .4 119.82 173.875 173.875 0 0 0 33.861-102.932 172.544 172.544 0 0 0-7.511-50.679" transform="translate(96.761 66.146)"/>
        </g>
    </g>
</svg>
