<svg xmlns="http://www.w3.org/2000/svg" width="674" height="502.211" viewBox="0 0 674 502.211"><defs><style>.a{fill:#ebebeb;}.b,.h{fill:#e0e0e0;}.c{fill:#f5f5f5;}.d,.m{fill:#fff;}.e{fill:#e6e6e6;}.f{fill:#f0f0f0;}.g{fill:#fafafa;}.h,.l{opacity:0.5;}.i{fill:#263238;}.j{fill:#f6861f;}.k{fill:#3685c3;}.m{opacity:0.8;}.n{opacity:0.2;}.o{fill:#ebf6ff;}.p{fill:#fbd6a0;}.q{fill:#ffb573;}.r{fill:#407bff;}.s{fill:#464545;}.t{fill:#202020;}.u{fill:#fc9763;}.v{opacity:0.3;}</style></defs><g transform="translate(0 -55)"><g transform="translate(0 55)"><rect class="a" width="674" height="0.337" transform="translate(0 441.335)"/><rect class="a" width="44.646" height="0.337" transform="translate(561.819 463.025)"/><rect class="a" width="52.869" height="0.337" transform="translate(393.616 466.691)"/><rect class="a" width="76.863" height="0.337" transform="translate(483.608 450.515)"/><rect class="a" width="92.513" height="0.337" transform="translate(235.199 452.78)"/><rect class="a" width="8.533" height="0.337" transform="translate(339.709 452.78)"/><rect class="a" width="170.94" height="0.337" transform="translate(132.549 458.468)"/><path class="a" d="M306.179,436.214H45.894a7.7,7.7,0,0,1-7.684-7.7V62.63A7.7,7.7,0,0,1,45.894,55H306.179a7.7,7.7,0,0,1,7.7,7.7v365.82A7.7,7.7,0,0,1,306.179,436.214ZM45.894,55.27a7.36,7.36,0,0,0-7.347,7.36V428.517a7.36,7.36,0,0,0,7.347,7.36H306.179a7.374,7.374,0,0,0,7.36-7.36V62.63a7.374,7.374,0,0,0-7.36-7.36Z" transform="translate(13.297 -55)"/><path class="a" d="M522.5,436.214H262.2a7.711,7.711,0,0,1-7.7-7.7V62.63A7.711,7.711,0,0,1,262.2,55H522.5a7.7,7.7,0,0,1,7.67,7.63V428.517A7.7,7.7,0,0,1,522.5,436.214ZM262.2,55.27a7.374,7.374,0,0,0-7.36,7.36V428.517a7.374,7.374,0,0,0,7.36,7.36H522.5a7.374,7.374,0,0,0,7.36-7.36V62.63a7.374,7.374,0,0,0-7.36-7.36Z" transform="translate(88.566 -55)"/><rect class="b" width="82.026" height="119.082" transform="translate(91.138 81.851)"/><rect class="c" width="83.643" height="119.082" transform="translate(94.387 81.851)"/><rect class="d" width="100.318" height="69.638" transform="translate(101.397 191.551) rotate(-90)"/><path class="c" d="M111.873,160.343h10.258A23.253,23.253,0,0,0,98.878,137.09H88.62a23.253,23.253,0,0,0,23.253,23.253Z" transform="translate(30.84 -26.433)"/><path class="c" d="M111.873,188.693h10.258A23.253,23.253,0,0,0,98.878,165.44H88.62a23.266,23.266,0,0,0,23.253,23.253Z" transform="translate(30.84 -16.567)"/><rect class="b" width="82.026" height="119.082" transform="translate(200.65 57.101)"/><rect class="c" width="83.643" height="119.082" transform="translate(203.898 57.101)"/><rect class="d" width="100.318" height="69.624" transform="translate(210.908 166.802) rotate(-90)"/><rect class="c" width="54.392" height="37.757" rx="8.97" transform="translate(251.606 149.223) rotate(-135)"/><rect class="e" width="209.776" height="230.643" transform="translate(369.581 33.403)"/><rect class="f" width="213.429" height="230.643" transform="translate(372.789 33.403)"/><rect class="e" width="209.776" height="6.363" transform="translate(369.581 264.033)"/><rect class="f" width="213.429" height="6.363" transform="translate(384.193 264.033)"/><rect class="g" width="211.474" height="194.26" transform="translate(576.634 42.974) rotate(90)"/><path class="d" d="M375.4,298.351,390.754,86.89h26.556L401.956,298.351Z" transform="translate(130.639 -43.902)"/><path class="f" d="M287.188,190.833a.741.741,0,0,1-.728-.741v-98.4a.728.728,0,0,1,1.456,0v98.4a.741.741,0,0,1-.728.741Z" transform="translate(99.688 -42.486)"/><path class="d" d="M399.33,298.351,414.684,86.89h10.353L409.683,298.351Z" transform="translate(138.967 -43.902)"/><rect class="e" width="211.474" height="1.213" transform="translate(576.634 42.988) rotate(90)"/><path class="h" d="M490.945,111.38H281.156l-.876-21.73H490.056Z" transform="translate(97.537 -42.942)"/><path class="h" d="M490.945,137.88H281.156l-.876-21.73H490.056Z" transform="translate(97.537 -33.72)"/><path class="h" d="M490.945,164.38H281.156l-.876-21.73H490.056Z" transform="translate(97.537 -24.498)"/><path class="h" d="M490.945,190.866H281.156l-.876-21.716H490.056Z" transform="translate(97.537 -15.276)"/><path class="h" d="M490.945,217.37H281.156l-.876-21.73H490.056Z" transform="translate(97.537 -6.057)"/><path class="h" d="M490.945,243.87H281.156l-.876-21.73H490.056Z" transform="translate(97.537 3.165)"/><rect class="f" width="23.361" height="180.672" transform="translate(98.97 254.368)"/><rect class="e" width="181.495" height="6.282" transform="translate(102.205 435.053)"/><rect class="g" width="164.604" height="180.672" transform="translate(286.935 435.053) rotate(180)"/><path class="f" d="M221.644,338.344h-106.6A10.784,10.784,0,0,1,104.26,327.56V304.374a10.784,10.784,0,0,1,10.784-10.784h106.6a10.784,10.784,0,0,1,10.784,10.784V327.56A10.784,10.784,0,0,1,221.644,338.344Zm-106.6-43.419a9.436,9.436,0,0,0-9.436,9.436v23.186a9.436,9.436,0,0,0,9.436,9.436h106.6a9.436,9.436,0,0,0,9.436-9.436V304.361a9.436,9.436,0,0,0-9.436-9.436Z" transform="translate(36.282 28.029)"/><path class="f" d="M221.644,379.807h-106.6a10.784,10.784,0,0,1-10.784-10.784v-23.24A10.784,10.784,0,0,1,115.044,335h106.6a10.784,10.784,0,0,1,10.784,10.784V368.97a10.784,10.784,0,0,1-10.784,10.838Zm-106.6-43.459a9.436,9.436,0,0,0-9.436,9.436V368.97a9.436,9.436,0,0,0,9.436,9.436h106.6a9.436,9.436,0,0,0,9.436-9.436V345.784a9.436,9.436,0,0,0-9.436-9.436Z" transform="translate(36.282 42.44)"/><rect class="f" width="10.231" height="9.369" rx="1.61" transform="translate(199.517 329.775)"/><path class="f" d="M221.644,296.884h-106.6A10.784,10.784,0,0,1,104.26,286.1V262.914a10.784,10.784,0,0,1,10.784-10.784h106.6a10.784,10.784,0,0,1,10.784,10.784V286.1A10.784,10.784,0,0,1,221.644,296.884Zm-106.6-43.419a9.436,9.436,0,0,0-9.436,9.436v23.186a9.436,9.436,0,0,0,9.436,9.436h106.6a9.436,9.436,0,0,0,9.436-9.436V262.9a9.436,9.436,0,0,0-9.436-9.436Z" transform="translate(36.282 13.601)"/><rect class="f" width="10.231" height="9.369" rx="1.61" transform="translate(199.517 273.887)"/><rect class="f" width="10.231" height="9.369" rx="1.61" transform="translate(199.517 385.649)"/><rect class="f" width="168.877" height="5.85" transform="translate(122.331 248.517)"/><rect class="e" width="27.931" height="5.85" transform="translate(122.331 254.368) rotate(180)"/><rect class="a" width="170.414" height="25.814" transform="translate(564.704 337.027) rotate(180)"/><rect class="b" width="74.1" height="25.814" transform="translate(468.39 337.027) rotate(180)"/><rect class="a" width="25.181" height="104.308" transform="translate(564.704 441.335) rotate(180)"/><path class="b" d="M400.24,312.245l25.181-3.613V305.02H400.24Z" transform="translate(139.284 32.007)"/><rect class="b" width="25.181" height="104.308" transform="translate(419.471 441.335) rotate(180)"/><rect class="a" width="25.181" height="104.308" transform="translate(468.403 441.335) rotate(180)"/><path class="b" d="M328.79,312.245l25.181-3.613V305.02H328.79Z" transform="translate(114.419 32.007)"/><rect class="b" width="25.181" height="104.308" transform="translate(515.785 441.335) rotate(180)"/></g><g transform="translate(75.636 526.692)"><ellipse class="c" cx="261.364" cy="15.259" rx="261.364" ry="15.259"/></g><g transform="translate(150.192 134.788)"><path class="i" d="M290.5,290.338,265.753,213.8a10.272,10.272,0,0,0-6.133-6.12,6.43,6.43,0,0,0,3.761-6l-1.806-77.348a6.807,6.807,0,0,0-6.74-6.592H117.864a6.43,6.43,0,0,0-6.443,6.578l1.793,77.348a6.74,6.74,0,0,0,2.359,4.934,2,2,0,0,1,.391,2.615,5.392,5.392,0,0,0-.377,4.57l24.749,76.607A9.962,9.962,0,0,0,149.07,297H286.094C289.667,296.943,291.675,293.964,290.5,290.338Z" transform="translate(-111.419 -112.955)"/><rect class="j" width="6.969" height="1.348" transform="translate(116.038)"/><rect class="j" width="24.264" height="1.348" transform="translate(83.241)"/><path class="k" d="M291.779,290.338,267.03,213.8a10.2,10.2,0,0,0-6.133-6.12,6.417,6.417,0,0,0,3.761-6l-1.793-77.362a6.74,6.74,0,0,0-6.74-6.578H119.154a6.416,6.416,0,0,0-6.443,6.578l1.739,77.348a6.74,6.74,0,0,0,2.346,4.934,2,2,0,0,1,.4,2.615,5.392,5.392,0,0,0-.377,4.57l24.749,76.607A9.962,9.962,0,0,0,150.306,297H287.263C290.943,296.943,292.952,293.964,291.779,290.338Z" transform="translate(-110.97 -112.955)"/><g class="l" transform="translate(24.63 10.218)"><path class="d" d="M169.335,121.77H148.279L129.69,201.3h21.056Z" transform="translate(-129.69 -121.77)"/><path class="d" d="M177.6,121.77h-9.423L149.59,201.3h9.423Z" transform="translate(-122.765 -121.77)"/><path class="d" d="M216.315,121.77h-9.436L188.29,201.3h9.423Z" transform="translate(-109.297 -121.77)"/></g><path class="m" d="M121.215,201.3a2.7,2.7,0,0,1-2.7-2.6l-1.739-74.329a2.548,2.548,0,0,1,2.548-2.6H253.279a2.7,2.7,0,0,1,2.7,2.6l1.739,74.329a2.548,2.548,0,0,1-2.548,2.6Z" transform="translate(-109.553 -111.552)"/><path class="n" d="M136.932,234.2a3.909,3.909,0,0,1-3.437-2.6l-13.21-40.858a1.833,1.833,0,0,1,1.766-2.6H256a3.909,3.909,0,0,1,3.437,2.6l13.21,40.858a1.833,1.833,0,0,1-1.766,2.6Z" transform="translate(-108.393 -88.456)"/><path class="n" d="M178.311,253.083a2.278,2.278,0,0,1-2.009-1.51l-7.7-23.819a1.078,1.078,0,0,1,1.038-1.523h38.27a2.292,2.292,0,0,1,2.009,1.523l7.7,23.779a1.065,1.065,0,0,1-1.024,1.51Z" transform="translate(-91.552 -75.2)"/><path class="i" d="M229.437,173.69H147.37c-3.559,0-6.511,3.046-6.079,9.544h82.08C222.926,176.8,225.837,173.663,229.437,173.69Z" transform="translate(-101.038 -93.484)"/><path class="o" d="M145.79,173.69c3.545,0,6.336,3.168,6.74,9.665,1.348,19.357,1.86,65.472,10.474,102.138,1.281,6.322,5.015,10.191,8.358,8.654h82.066c-3.33,1.537-7.077-2.332-8.358-8.654-8.614-36.666-9.153-82.781-10.474-102.138-.445-6.5-3.235-9.625-6.74-9.665Z" transform="translate(-99.458 -93.484)"/><path class="i" d="M173.04,240.62a3.626,3.626,0,0,0-1.928.768c-3.141,2.359-4.3,9.18-2.588,15.246,1.267,6.322-.391,12.685-3.734,14.221h82.066c3.343-1.537,5.015-7.9,3.734-14.221-1.712-6.066-.553-12.887,2.588-15.246a3.721,3.721,0,0,1,1.928-.768Z" transform="translate(-92.846 -70.192)"/><path class="o" d="M282.039,460.573s-2.035-25.464-3.559-61.7c-2.939-69.624-13.022-132.1-19.182-150.774-1.442-4.394-3.882-7.293-6.336-7.481H170.91a4.206,4.206,0,0,1,1.941.728,12.833,12.833,0,0,1,4.381,6.74c6.16,18.643,16.176,81.15,19.169,150.774,1.537,36.234,3.572,61.7,3.572,61.7.472,6.511,3.72,11.741,7.266,11.7h82.08C285.773,472.314,282.524,467.084,282.039,460.573Z" transform="translate(-90.716 -70.192)"/><path class="i" d="M285.554,403.69h-82.12c.472,6.5-2.009,11.809-5.554,11.835H280C283.545,415.5,286.039,410.187,285.554,403.69Z" transform="translate(-81.33 -13.444)"/></g><g transform="translate(334.304 136.797)"><path class="p" d="M353.2,163.24c4.219,6.026,8.088,12.051,11.7,18.373a135.765,135.765,0,0,1,9.786,20.22,44.387,44.387,0,0,1,1.752,6.133c.108.593.2,1.227.283,1.833a20.945,20.945,0,0,1,.135,2.116,16.176,16.176,0,0,1-.7,4.5,23.213,23.213,0,0,1-3.249,6.416,36.838,36.838,0,0,1-3.923,4.772A77.428,77.428,0,0,1,350.923,241.1l-4.367-6.026a130.255,130.255,0,0,0,13.224-15.138,38.767,38.767,0,0,0,2.332-3.815,10.649,10.649,0,0,0,1.159-3.208,1.631,1.631,0,0,0,0-.755c0-.121-.067-.337-.094-.526l-.189-.782a31.69,31.69,0,0,0-1.469-4.044,92.111,92.111,0,0,0-4.408-8.775c-1.631-2.966-3.37-5.918-5.163-8.856-3.586-5.864-7.387-11.782-11.148-17.524Z" transform="translate(-215.706 -99.129)"/><path class="p" d="M347.87,216l-6.74,2.858,6.659,9.3s4.893-2.7,5.513-7.481Z" transform="translate(-215.591 -80.769)"/><path class="q" d="M336.65,221.858l4.3,7.791,8.4-2.278-6.659-9.3Z" transform="translate(-217.15 -80.048)"/><path class="r" d="M315.6,327.7l-1.146.458L306.8,331.3,248,187.509l8.789-3.6Z" transform="translate(-248 -91.936)"/><path class="s" d="M315.6,327.7l-1.146.458L306.8,331.3,248,187.509l8.789-3.6Z" transform="translate(-248 -91.936)"/><path class="r" d="M328.639,322.385l-5.621,2.292-3.168,1.294-58.8-143.791,8.789-3.6Z" transform="translate(-243.459 -93.791)"/><path class="s" d="M328.639,322.385l-5.621,2.292-3.168,1.294-58.8-143.791,8.789-3.6Z" transform="translate(-243.459 -93.791)"/><rect class="j" width="9.49" height="155.357" transform="matrix(0.926, -0.378, 0.378, 0.926, 8.829, 91.965)"/><path class="r" d="M258.905,170.06l-7.913,3.235L248,192.329l26.367-10.784Z" transform="translate(-248 -96.756)"/><path class="p" d="M258.905,170.06l-7.913,3.235L248,192.329l26.367-10.784Z" transform="translate(-248 -96.756)"/><path class="t" d="M251.5,166.41l-1.281,8.155,7.913-3.235Z" transform="translate(-247.227 -98.026)"/><path class="i" d="M314.067,133.519c.094.8-.256,1.483-.782,1.537s-1.011-.539-1.092-1.348.256-1.483.782-1.537S313.986,132.724,314.067,133.519Z" transform="translate(-225.665 -109.942)"/><path class="u" d="M314.227,134.26a28.306,28.306,0,0,1-3.047,7.212,4.624,4.624,0,0,0,3.882.3Z" transform="translate(-226.013 -109.214)"/><path class="i" d="M316.527,130.051a.526.526,0,0,0,.27-.216.485.485,0,0,0-.189-.647,4.691,4.691,0,0,0-4.273-.256.485.485,0,0,0-.2.634.472.472,0,0,0,.634.2h0a3.72,3.72,0,0,1,3.384.243.472.472,0,0,0,.377.04Z" transform="translate(-225.699 -111.206)"/><path class="p" d="M338.23,137.52c-1.415,7.252-2.831,20.53,2.238,25.356,0,0-1.982,7.347-15.448,7.347-14.828,0-7.077-7.347-7.077-7.347,8.088-1.928,7.872-7.913,6.47-13.547Z" transform="translate(-224.365 -108.08)"/><path class="s" d="M343.471,160.3c1.348-1,.688-4.92-1.186-6.336-3.168-2.4-18.171-3.4-24.709,1.213a8.331,8.331,0,0,0-1.591,5.958Z" transform="translate(-224.361 -103.062)"/><path class="r" d="M365.624,408.723a3.141,3.141,0,0,1-2.453-.256.957.957,0,0,1-.175-1.092,1.092,1.092,0,0,1,.634-.66c1.348-.566,4.381.836,4.5.89a.2.2,0,0,1,.135.216.243.243,0,0,1-.135.216A12.429,12.429,0,0,1,365.624,408.723Zm-1.523-1.658a1.416,1.416,0,0,0-.283.081.647.647,0,0,0-.377.377.689.689,0,0,0,0,.607c.512.485,2.507.162,3.923-.323a7.725,7.725,0,0,0-3.262-.741Z" transform="translate(-208.016 -14.447)"/><path class="r" d="M367.645,408.729h-.121c-1.092-.377-3.41-2.2-3.383-3.316a.782.782,0,0,1,.647-.728,1.213,1.213,0,0,1,1.025.135c1.348.741,1.995,3.518,2.022,3.64a.3.3,0,0,1-.067.229Zm-2.629-3.64h-.108c-.283.094-.3.229-.3.3,0,.66,1.5,2.076,2.629,2.7a5.594,5.594,0,0,0-1.658-2.871.876.876,0,0,0-.566-.081Z" transform="translate(-207.583 -15.126)"/><path class="r" d="M315.384,409.725c-1.281,0-2.507-.175-2.912-.741a.89.89,0,0,1,0-1.024,1.2,1.2,0,0,1,.755-.553c1.645-.445,5.109,1.523,5.244,1.618a.216.216,0,0,1,.121.243.243.243,0,0,1-.189.189,17.918,17.918,0,0,1-3.02.27Zm-1.577-1.914a1.55,1.55,0,0,0-.445,0,.66.66,0,0,0-.458.323c-.175.3-.108.445,0,.526.458.634,2.966.647,4.812.391a10.609,10.609,0,0,0-3.909-1.24Z" transform="translate(-225.62 -14.182)"/><path class="r" d="M317.711,410.065h-.094c-1.2-.539-3.572-2.7-3.383-3.8,0-.27.229-.593.876-.661a1.779,1.779,0,0,1,1.348.4c1.254,1.038,1.523,3.707,1.537,3.815a.229.229,0,0,1-.094.216A.256.256,0,0,1,317.711,410.065Zm-2.426-4.044h-.135c-.418,0-.445.2-.458.256-.108.674,1.5,2.359,2.7,3.087a5.594,5.594,0,0,0-1.348-3.047,1.348,1.348,0,0,0-.768-.27Z" transform="translate(-224.955 -14.791)"/><path class="p" d="M327.688,414.659h-9.894l-.984-22.929H326.7Z" transform="translate(-224.054 -19.615)"/><path class="p" d="M379.764,411.764l-9.76,1.6-8.654-21.811,9.773-1.618Z" transform="translate(-208.554 -20.238)"/><path class="i" d="M370.877,407.039l10.986-1.806a.849.849,0,0,1,.93.526l3.37,8.358a1.456,1.456,0,0,1-1.146,1.982c-3.842.566-5.743.647-10.568,1.442-2.966.5-9.679,1.779-13.777,2.453s-5.311-3.289-3.694-3.936c7.252-2.885,10.366-5.594,12.415-8.155A2.4,2.4,0,0,1,370.877,407.039Z" transform="translate(-210.316 -14.92)"/><path class="i" d="M323.772,407.89h10.784a.863.863,0,0,1,.849.674l1.955,8.8a1.442,1.442,0,0,1-1.429,1.752c-3.9,0-9.544-.283-14.437-.283-5.742,0-10.69.31-17.416.31-4.044,0-5.19-4.111-3.491-4.489,7.751-1.685,14.073-1.874,20.773-6a4.6,4.6,0,0,1,2.413-.768Z" transform="translate(-229.964 -13.991)"/><path class="r" d="M350.152,158.022c9.436,1.186,19.438,23.994,19.438,23.994L352.47,198A40.67,40.67,0,0,1,340.8,180.79C336.389,168.806,340.486,156.8,350.152,158.022Z" transform="translate(-216.322 -100.975)"/><g transform="translate(122.706 56.961)"><path class="j" d="M350.152,158.022c9.436,1.186,19.438,23.994,19.438,23.994L352.47,198A40.67,40.67,0,0,1,340.8,180.79C336.389,168.806,340.486,156.8,350.152,158.022Z" transform="translate(-339.028 -157.936)"/></g><path class="n" d="M343.716,171.45c5.513,4.448,8.088,13.332,9.247,21.15l-.755.714a40.723,40.723,0,0,1-11.687-17.227c-.256-.714-.5-1.442-.7-2.143Z" transform="translate(-216.047 -96.272)"/><path class="r" d="M307.374,159.164s-10.528,11.9-.58,85.6h52.99c.364-8.088-4.745-47.8,3.1-86.11a138.253,138.253,0,0,0-17.726-2.238,196.048,196.048,0,0,0-22.525,0,99.485,99.485,0,0,0-15.259,2.75Z" transform="translate(-229.028 -101.617)"/><g transform="translate(73.49 54.472)"><path class="j" d="M307.374,159.164s-10.528,11.9-.58,85.6h52.99c.364-8.088-4.745-47.8,3.1-86.11a138.253,138.253,0,0,0-17.726-2.238,196.048,196.048,0,0,0-22.525,0,99.485,99.485,0,0,0-15.259,2.75Z" transform="translate(-302.518 -156.09)"/></g><path class="n" d="M302.749,175.125l.2-.175,12.038,2.885c.688,8.088-7.684,17.874-12,22.323a231.112,231.112,0,0,1-.243-25.032Z" transform="translate(-229.027 -95.054)"/><path class="n" d="M316.81,391.73l.512,11.822h9.894l-.5-11.822Z" transform="translate(-224.054 -19.615)"/><path class="n" d="M371.123,389.95l-9.773,1.6,4.462,11.256,9.773-1.618Z" transform="translate(-208.554 -20.234)"/><path class="p" d="M340.2,133.071c.472,9.813,1.254,15.542-3.114,21.083-6.578,8.344-19.115,5.217-22.512-4.26-3.06-8.533-3.33-23.159,5.8-28.092A13.48,13.48,0,0,1,340.2,133.071Z" transform="translate(-225.499 -114.105)"/><path class="i" d="M320.979,142.4c-4.408.229-4.26-1.267-4.26-1.267s1.645-4.637,1.415-6.578c-1.577-.674-3.006-5.392-2.8-6.74-2.062.364-10.15-5.621.337-12.132,2.925,2.251,7.387,2.049,11.31,1.051,7.94-2.022,20.463.324,17.821,6.3,4.718,0,6.929,11.66,1.874,18.05-5.311,6.74-4.044,14.6-9.436,15.354s-9.288-3.451-9.288-3.451S325.468,140,320.979,142.4Z" transform="translate(-226.282 -115.68)"/><path class="i" d="M335.45,122.749s3.37-.971.944-5.689C339.912,117.842,341.745,123.382,335.45,122.749Z" transform="translate(-217.567 -115.2)"/><path class="p" d="M323.937,133.851a11.013,11.013,0,0,1-2.009,6.848c-1.86,2.615-4.273,1.348-4.988-1.429-.647-2.548-.445-6.983,2.022-8.587S323.762,130.913,323.937,133.851Z" transform="translate(-224.118 -110.666)"/><path class="s" d="M319.63,221.884s11.283,75.663,17.4,103.971c6.74,31,38.054,133.776,38.054,133.776l17.726-3.842s-20.4-83.711-26.07-127.116C362.389,295.336,353.8,221.83,353.8,221.83Z" transform="translate(-223.073 -78.74)"/><path class="j" d="M357.62,394.9c-.067,0,3.3,6.417,3.3,6.417l19.95-4.327L379.188,391Z" transform="translate(-209.852 -19.869)"/><path class="v" d="M325.655,241.9c12.995,2.548,11.62,51.008,10.056,75.933-3.747-17.618-9.234-51.521-12.981-75.582A4.435,4.435,0,0,1,325.655,241.9Z" transform="translate(-221.994 -71.793)"/><path class="s" d="M306.52,221.87s-4.111,74.046-3.033,104.241c1.119,31.408,14.828,134.261,14.828,134.261h16.769s-2.13-101.019-1.348-131.861c.822-33.7,10.892-106.64,10.892-106.64Z" transform="translate(-228.753 -78.726)"/><path class="j" d="M312.051,393.84c-.081,0,.944,6.969.944,6.969H333.4l.553-6.214Z" transform="translate(-225.712 -18.88)"/><path class="p" d="M330.091,170.821c-1.213,3.882-2.561,7.374-4.044,10.986s-3.033,7.1-4.745,10.6a96.436,96.436,0,0,1-12.927,20.22,47.547,47.547,0,0,1-4.678,4.637,29.735,29.735,0,0,1-5.864,3.936,55.5,55.5,0,0,1-5.716,2.413c-1.847.688-3.68,1.348-5.527,1.874a164.7,164.7,0,0,1-22.134,5.163l-2.157-7.1,19.977-9.261a101.1,101.1,0,0,0,9.1-4.785,21.408,21.408,0,0,0,3.168-2.534,38.052,38.052,0,0,0,3.033-3.41,67.769,67.769,0,0,0,5.473-8.358c1.7-2.993,3.289-6.12,4.772-9.328s2.885-6.484,4.246-9.773,2.615-6.74,3.734-9.921Z" transform="translate(-243.024 -98.109)"/><path class="r" d="M324.649,168.256C332.306,179.566,314.4,200.2,314.4,200.2l-20-13.925a83.578,83.578,0,0,1,6.74-20.328C307.718,152.31,318.839,159.656,324.649,168.256Z" transform="translate(-231.853 -100.816)"/><g transform="translate(62.547 57.577)"><path class="j" d="M324.649,168.256C332.306,179.566,314.4,200.2,314.4,200.2l-20-13.925a83.578,83.578,0,0,1,6.74-20.328C307.718,152.31,318.839,159.656,324.649,168.256Z" transform="translate(-294.4 -158.393)"/></g><path class="p" d="M269.591,208.07l-12.321,1.348,2.858,10.447s8.735.283,11.579-6.349Z" transform="translate(-244.774 -83.528)"/><path class="p" d="M254.33,212.231l2.372,8.546,4.448-1.281-2.858-10.447Z" transform="translate(-245.797 -83.187)"/></g></g></svg>