<svg xmlns="http://www.w3.org/2000/svg" width="409" height="409" viewBox="0 0 409 409">
    <path fill="#9255e3" d="M492.43 390.311v32.225a5.991 5.991 0 0 1-5.991 5.991h-17.974L444.5 365.1z" transform="translate(-89.421 -73.448)"/>
    <path fill="#ae7df0" d="M392.623 250.73v154.789H73.491a5.991 5.991 0 0 1-5.991-5.991V367.3l152.3-116.57z" transform="translate(-13.579 -50.44)"/>
    <path fill="#94e368" d="M219.8 233.135c-37.329 62.812-79.723 116.573-152.3 116.573v-180.45a6 6 0 0 1 6.18-5.99c68.833 1.779 109.875 33.261 146.12 69.867z" transform="translate(-13.579 -32.845)"/>
    <path fill="#28abfa" d="M480.359 13.659V318.4a224.826 224.826 0 0 1-23.965-1.246L384.5 163.384 456.395 9.61a133.762 133.762 0 0 1 17.682-1.94 6.006 6.006 0 0 1 6.283 5.99z" transform="translate(-77.351 -1.542)"/>
    <path fill="#14cfff" d="M430.979 10.1v307.549c-85.035-9.139-124.705-66.742-172.819-115.327C306.273 121.345 345.943 25.326 430.979 10.1z" transform="translate(-51.935 -2.032)"/>
    <path fill="#acd5df" d="M403.009 373.053H35.947V5.991A5.991 5.991 0 0 0 29.956 0H5.991a5.991 5.991 0 0 0 0 11.982h17.974v19.1h-5.991a5.991 5.991 0 1 0 0 11.982h5.991v19.111H5.991a5.991 5.991 0 0 0 0 11.982h17.974v19.106h-5.991a5.991 5.991 0 0 0 0 11.982h5.991v19.1H5.991a5.991 5.991 0 0 0 0 11.982h17.974v19.106h-5.991a5.991 5.991 0 1 0 0 11.982h5.991v19.106H5.991a5.991 5.991 0 0 0 0 11.982h17.974v19.1h-5.991a5.991 5.991 0 1 0 0 11.982h5.991V248.7H5.991a5.991 5.991 0 1 0 0 11.982h17.974v19.108h-5.991a5.991 5.991 0 0 0 0 11.982h5.991v19.1H5.991a5.991 5.991 0 0 0 0 11.982h17.974v19.105h-5.991a5.991 5.991 0 0 0 0 11.982h5.991v19.106H5.991a5.991 5.991 0 1 0 0 11.982h17.974v17.974a5.991 5.991 0 0 0 11.982 0v-17.968h19.106v5.991a5.991 5.991 0 0 0 11.982 0v-5.991h19.106v17.974a5.991 5.991 0 0 0 11.982 0v-17.974h19.106v5.991a5.991 5.991 0 0 0 11.982 0v-5.991h19.106v17.974a5.991 5.991 0 1 0 11.982 0v-17.974H179.4v5.991a5.991 5.991 0 1 0 11.982 0v-5.991h19.1v17.974a5.991 5.991 0 1 0 11.982 0v-17.974h19.106v5.991a5.991 5.991 0 0 0 11.982 0v-5.991h19.106v17.974a5.991 5.991 0 0 0 11.982 0v-17.974h19.106v5.991a5.991 5.991 0 0 0 11.982 0v-5.991h19.106v17.974a5.991 5.991 0 1 0 11.982 0v-17.974h19.106v5.991a5.991 5.991 0 1 0 11.982 0v-5.991h19.1v17.974a5.991 5.991 0 1 0 11.982 0v-23.965a5.991 5.991 0 0 0-5.991-5.991z"/>
</svg>
