<svg xmlns="http://www.w3.org/2000/svg" xmlns:xlink="http://www.w3.org/1999/xlink" width="884" height="644.01" viewBox="0 0 884 644.01">
    <defs>
        <linearGradient id="linear-gradient" x1=".5" x2=".5" y1="1" gradientUnits="objectBoundingBox">
            <stop offset=".005" stop-color="#fcf5f1"/>
            <stop offset=".477" stop-color="#fceeec"/>
            <stop offset="1" stop-color="#fce1e3"/>
        </linearGradient>
        <linearGradient id="linear-gradient-2" x1=".5" x2=".5" y1="1" gradientUnits="objectBoundingBox">
            <stop offset="0" stop-color="#466de5"/>
            <stop offset="1" stop-color="#78bfff"/>
        </linearGradient>
        <linearGradient id="linear-gradient-4" x1="1.294" x2="-.165" y1=".807" y2=".279" xlink:href="#linear-gradient-2"/>
        <linearGradient id="linear-gradient-6" x1=".497" x2=".497" y1=".987" y2=".033" xlink:href="#linear-gradient-2"/>
        <linearGradient id="linear-gradient-7" x1=".29" x2=".781" y1="1.082" y2=".221" xlink:href="#linear-gradient-2"/>
        <linearGradient id="linear-gradient-8" x1="2.079" x2="2.079" y1="1.011" y2=".007" gradientUnits="objectBoundingBox">
            <stop offset="0" stop-color="#29225e"/>
            <stop offset="1" stop-color="#3f368c"/>
        </linearGradient>
        <linearGradient id="linear-gradient-9" x1="3.277" x2="3.277" y1="1.006" y2=".005" xlink:href="#linear-gradient-8"/>
        <linearGradient id="linear-gradient-10" x1=".459" x2="1.246" y1=".6" y2=".278" gradientUnits="objectBoundingBox">
            <stop offset="0" stop-color="#fcc73c"/>
            <stop offset="1" stop-color="#fc7a3c"/>
        </linearGradient>
        <linearGradient id="linear-gradient-11" x1=".755" x2=".18" y1="1.136" y2=".178" gradientUnits="objectBoundingBox">
            <stop offset="0" stop-color="#b3d3f4"/>
            <stop offset="1" stop-color="#d3dced"/>
        </linearGradient>
        <linearGradient id="linear-gradient-12" x1=".5" x2=".5" y1="1" gradientUnits="objectBoundingBox">
            <stop offset="0" stop-color="#ffd5a7"/>
            <stop offset=".372" stop-color="#ffd7aa"/>
            <stop offset=".654" stop-color="#ffddb3"/>
            <stop offset=".907" stop-color="#ffe8c3"/>
            <stop offset="1" stop-color="#fec"/>
        </linearGradient>
        <linearGradient id="linear-gradient-13" x1=".755" x2=".245" y1="1.235" y2="-.235" gradientUnits="objectBoundingBox">
            <stop offset="0" stop-color="#cde8ff"/>
            <stop offset="1" stop-color="#eee7e9"/>
        </linearGradient>
        <linearGradient id="linear-gradient-14" x1=".75" x2=".25" y1="1.588" y2=".412" xlink:href="#linear-gradient-13"/>
        <linearGradient id="linear-gradient-15" x1="-11.573" x2="-11.037" y1="1.069" y2=".223" xlink:href="#linear-gradient-2"/>
        <linearGradient id="linear-gradient-16" x1=".92" x2="-.115" y1=".308" y2="1.072" xlink:href="#linear-gradient-10"/>
        <linearGradient id="linear-gradient-17" x1=".5" x2=".5" y1="1" y2="0" xlink:href="#linear-gradient-8"/>
        <linearGradient id="linear-gradient-19" x1=".5" x2=".5" y1=".433" y2=".97" xlink:href="#linear-gradient-10"/>
        <linearGradient id="linear-gradient-20" x1=".89" x2=".104" y1="1.185" y2="-.137" gradientUnits="objectBoundingBox">
            <stop offset="0" stop-color="#5789ee"/>
            <stop offset="1" stop-color="#78bfff"/>
        </linearGradient>
        <linearGradient id="linear-gradient-21" x1="0" x2="1" y1=".5" y2=".5" xlink:href="#linear-gradient-10"/>
        <linearGradient id="linear-gradient-22" x1=".5" x2=".5" y1=".344" y2="1.054" xlink:href="#linear-gradient-10"/>
        <linearGradient id="linear-gradient-23" x1=".5" x2=".5" y1="1" gradientUnits="objectBoundingBox">
            <stop offset="0" stop-color="#fcae3c"/>
            <stop offset="1" stop-color="#fc7a3c"/>
        </linearGradient>
        <linearGradient id="linear-gradient-24" x1=".5" x2=".5" y1="1" y2="0" xlink:href="#linear-gradient-23"/>
        <linearGradient id="linear-gradient-29" x1=".5" x2=".5" y1=".317" y2="1.015" xlink:href="#linear-gradient-10"/>
        <linearGradient id="linear-gradient-31" x1="0" x2="1" y1=".5" y2=".5" xlink:href="#linear-gradient-10"/>
        <style>
            .cls-2{fill:url(#linear-gradient-2)}.cls-15,.cls-20,.cls-3,.cls-51{fill:none;stroke-miterlimit:10}.cls-3{stroke:#92d0ff}.cls-8{fill:#f3faff}.cls-10{fill:#cfe0f5}.cls-11{fill:#fff4e1}.cls-12,.cls-13{fill:#e6f1fc}.cls-13,.cls-46{mix-blend-mode:multiply;isolation:isolate}.cls-14{fill:#fc8975}.cls-15{stroke:#cc6658}.cls-15,.cls-20{stroke-width:.5px}.cls-16{fill:#352e72}.cls-18{fill:#75a1e9}.cls-20{stroke:#4a578e}.cls-21{fill:#081466}.cls-23{fill:#2d4cba}.cls-26{fill:#fff}.cls-27{fill:#eac38f;font-family:SegoeUI,Segoe UI;font-size:10px;letter-spacing:.1em}.cls-46{opacity:.35}.cls-35,.cls-46{fill:url(#linear-gradient-17)}.cls-38{fill:#a2c0ed}.cls-45{fill:#352e73}.cls-50{fill:#f42a73}.cls-51{stroke:#cfe0f5}
        </style>
    </defs>
    <g id="Group_682" transform="translate(-266.468 -117.122)">
        <path id="Path_646" fill="url(#linear-gradient)" d="M307.389 386.444h823.09c26.818 0-21.181 11.224-36.906 23.833s-14.808 17.85-53.94 27.391c-84.156 20.518-120.163-19.644-253.774-3.835-56.927 6.735-129.528 19.6-186.784 12.765-48.228-5.761-59.936-32.129-96.384-34.264-55.951-3.279-83.865-.057-134.914-2.057-43.737-1.714-130.348-23.833-60.388-23.833z" transform="translate(12 312.589)"/>
        <g id="Group_633" transform="translate(266.468 470.718)">
            <g id="Group_630" transform="translate(721.383)">
                <path id="Path_647" d="M569 489.561c-2.11-72.633 14.31-160.786 71.528-210.821 9.184-8.029 20.412-18.377 33.445-17.434 6.064.439 9.071 7.377 9.983 12.523 1.627 9.187.044 18.638-2.2 27.7-12.386 50.014-53.233 137.571-63.681 188.032" class="cls-2" transform="translate(-568.823 -261.246)"/>
                <path id="Path_648" d="M651.491 272.011c-56.877 74.337-67.108 167.223-65.313 207.432" class="cls-3" transform="translate(-554.684 -252.38)"/>
                <g id="Group_629" transform="translate(49.252 69.072)">
                    <path id="Path_649" d="M595.831 458.365c7.661-47.006 15.705-85.4 42.644-124.671 11.084-16.157 32.433-36.126 49.418-34.476 18.225 1.773 5.292 29.311-5.52 49.864-14.423 27.422-24.934 57.253-29.906 87.833 1.5-9.213 7.9-35.446 26.785-47.1 5.547-3.425 19.19-5.423 19.19 5.93 0 19.949-19.391 43.906-24.241 62.622" class="cls-2" transform="translate(-595.831 -299.122)"/>
                    <path id="Path_650" d="M668.814 307.129c-17.472 22.179-52.309 98.925-56.584 143.248" class="cls-3" transform="translate(-582.324 -292.528)"/>
                    <path id="Path_651" d="M658.2 353.017c-13.426 13.426-21.661 38.035-26.322 60.958" class="cls-3" transform="translate(-566.14 -254.733)"/>
                </g>
            </g>
            <g id="Group_631" transform="translate(0 30.077)">
                <path id="Path_652" fill="url(#linear-gradient-4)" d="M361.974 475.977c-11.079-91.641-3.029-131.577 7.4-156.96 4.862-11.83 11.848-23.545 21.736-31.892 39.567-33.391 38.366 31.529 36.507 51.208-4.234 44.832-15.472 92.75-16.489 137.644" transform="translate(-192.193 -277.739)"/>
                <path id="Path_653" d="M383.419 475.117c-1.256-28.83-14.124-56.956-30.513-80.221-16.484-23.4-39.155-42.064-54-66.641-7.951-13.168-20.532-33.872-1.928-44.67 20.629-11.972 50.932.58 67.524 14.268 18.043 14.886 29.9 35.975 39.8 56.8 17.483 36.786 20.992 79.733 21.265 120.462" class="cls-2" transform="translate(-249.297 -276.88)"/>
                <path id="Path_654" fill="url(#linear-gradient-6)" d="M404.522 441.37c.082-29.344-14.868-60.322-38.479-83.243-15.424-14.976-33.878-29.01-54.92-35.187-10.924-3.208-41.457-8.288-44.518 9.869-1.16 6.879 5.048 19.808 19.921 31.587 20.678 16.373 77.8 41.832 84.693 76.974" transform="translate(-266.468 -243.132)"/>
                <path id="Path_655" d="M274.265 327.392C313.84 338.153 369 374.274 379.49 434.373" class="cls-3" transform="translate(-260.047 -236.844)"/>
                <path id="Path_656" d="M298.109 287.675c39.66 20.915 88.03 86.232 93.441 179.411" class="cls-3" transform="translate(-240.408 -269.556)"/>
                <path id="Path_657" d="M395.179 282.592C372.887 336.732 369 412.735 370.3 471.272" class="cls-3" transform="translate(-181.133 -273.742)"/>
            </g>
            <g id="Group_632" transform="translate(42.226 161.196)">
                <path id="Path_658" fill="url(#linear-gradient-7)" d="M357.48 416.758c-3.542-15.829-6.653-32.327-16.088-45.965-6.171-8.919-18.754-21.347-29.955-21.152-8.327.144-10.22 8.153-9.251 15.364 2.54 18.9 13.021 24.668 17.089 45.1-2.03-7.741-14.521-34.547-25.489-24.3-12.063 11.272 5.925 30.947 5.925 30.947" transform="translate(-289.623 -349.639)"/>
                <path id="Path_659" d="M294.487 372.21c5.737 6.571 13.1 15.944 16.07 25.958" class="cls-3" transform="translate(-285.617 -331.048)"/>
                <path id="Path_660" d="M303.994 356c15.193 15.195 25.8 47.256 28.553 55.517" class="cls-3" transform="translate(-277.786 -344.399)"/>
            </g>
        </g>
        <g id="Group_639" transform="translate(564.017 117.122)">
            <path id="Path_661" fill="none" stroke="#b3d3f4" stroke-dasharray="4" stroke-miterlimit="10" d="M622.7 422.315h206.2a57.744 57.744 0 0 0 57.745-57.745 57.745 57.745 0 0 0-57.745-57.744H388.676a30.63 30.63 0 0 1-30.63-30.63 30.629 30.629 0 0 1 30.63-30.63H758.57a27.123 27.123 0 0 0 27.123-27.123 27.122 27.122 0 0 0-27.123-27.121H420.082a14.923 14.923 0 0 1-14.921-14.922 14.922 14.922 0 0 1 14.921-14.921H518.5" transform="translate(-318.591 -80.587)"/>
            <g id="Group_634" transform="translate(186.551 32.222)">
                <path id="Path_662" d="M475.356 135.234a31.407 31.407 0 0 0-27.168 53.449l-4.242 8.613 9.519-4.448a31.418 31.418 0 1 0 21.891-57.614z" class="cls-8" transform="translate(-438.707 -134.791)"/>
                <path id="Path_663" fill="#b3d3f4" d="M450.1 174.041l-3.246-3.892a3.535 3.535 0 0 1 .449-4.98l3.738-3.118a3.536 3.536 0 0 1 4.98.449s1.727 2.6 3.753 2.134c2.305-.527 7.318-4.185 10.015-7.021 1.9-2-1.295-5.518-1.295-5.518a3.539 3.539 0 0 1 .45-4.982l3.738-3.118a3.535 3.535 0 0 1 4.98.45l3.246 3.89c7.318 8.765-24.435 33.347-30.808 25.706z" transform="translate(-432.675 -127.889)"/>
            </g>
            <path id="Path_664" d="M541.7 180.214c4.656-4.466 6.583-9.058 13-10.493a12.08 12.08 0 0 0 3.83-1.163c3.122-1.94 2.484-6.364 3.186-9.868 1.381-6.9 10.4-11.266 17.007-8.23 2.768 1.271 5.278 3.616 8.339 3.408 6.12-.418 5.387-7.967 9.57-12.273 3.95-4.067 12-4.6 17.135-2.021a26.313 26.313 0 0 1 9.016 7.324c2.489 3.226 2.378 8.208 4.214 11.762 1.751 3.436 5.943 4.929 7.772 8.308a10.292 10.292 0 0 1 .781 9.145c-2.613 6.273-10.283 10.8-17.237 10.8h-93.945s12.142-1.725 17.332-6.699z" class="cls-8" transform="translate(-181.603 -99.926)"/>
            <path id="Path_665" d="M446.6 152.8c-3.935-3.775-5.564-7.656-10.984-8.868a10.214 10.214 0 0 1-3.237-.983c-2.639-1.639-2.1-5.38-2.692-8.341-1.167-5.834-8.788-9.521-14.374-6.955-2.34 1.076-4.461 3.058-7.048 2.881-5.174-.352-4.554-6.733-8.09-10.373-3.339-3.438-10.141-3.886-14.481-1.707a22.206 22.206 0 0 0-7.621 6.189c-2.1 2.724-2.01 6.937-3.562 9.941-1.479 2.9-5.022 4.165-6.569 7.023a8.7 8.7 0 0 0-.66 7.729c2.208 5.3 8.691 9.129 14.569 9.129h79.393S450.983 157 446.6 152.8z" class="cls-8" transform="translate(-311.498 -117.122)"/>
            <g id="Group_636" transform="translate(438.065 38.537)">
                <g id="Group_635">
                    <path id="Path_666" d="M636.235 216.519l-55.179-29.527 14.53-43.132 67.16 34.771z" class="cls-10" transform="translate(-572.979 -133.637)"/>
                    <path id="Path_667" d="M656.183 183.248l-67.16-34.771 47.877-10.223z" class="cls-10" transform="translate(-566.417 -138.254)"/>
                    <path id="Rectangle_354" d="M0 0H60.542V51.14H0z" class="cls-11" transform="rotate(27.373 -5.514 68.5)"/>
                    <path id="Path_668" d="M599.234 143.86l-22.607 43.664 44.085-2.9z" class="cls-12" transform="translate(-576.627 -133.637)"/>
                    <path id="Path_669" d="M646.483 162.927l-22.607 43.663-23.076-37.675z" class="cls-12" transform="translate(-556.716 -117.933)"/>
                    <path id="Path_670" d="M643.787 209.882l-67.16-34.771 51.073-16.18z" class="cls-13" transform="translate(-576.627 -121.224)"/>
                    <path id="Path_671" d="M643.787 207.191l-67.16-34.771L624.5 162.2z" class="cls-12" transform="translate(-576.627 -118.534)"/>
                </g>
            </g>
            <g id="Group_638" transform="translate(0 90.616)">
                <g id="Group_637">
                    <path id="Path_672" d="M394.863 209.06L349.9 220.317l-13.49-30.891 54.144-14.342z" class="cls-10" transform="translate(-336.411 -159.998)"/>
                    <path id="Path_673" d="M390.554 181.9l-54.143 14.34 21.176-29.428z" class="cls-10" transform="translate(-336.411 -166.812)"/>
                    <path id="Rectangle_355" d="M0 0H44.838V37.875H0z" class="cls-11" transform="rotate(-14.83 99.458 -4.75)"/>
                    <path id="Path_674" d="M336.411 182.949l9.324 35.2 22.739-23.528z" class="cls-12" transform="translate(-336.411 -153.521)"/>
                    <path id="Path_675" d="M376.073 175.085l9.324 35.2-31.4-9.187z" class="cls-12" transform="translate(-321.93 -159.998)"/>
                    <path id="Path_676" d="M395.667 203.4l-54.144 14.342 19.967-34.292z" class="cls-13" transform="translate(-332.199 -153.108)"/>
                    <path id="Path_677" d="M395.667 201.2l-54.144 14.342 21.177-29.427z" class="cls-12" transform="translate(-332.199 -150.914)"/>
                </g>
            </g>
        </g>
        <g id="Group_648" transform="translate(594.122 181.429)">
            <g id="Group_640" transform="translate(107.773)">
                <path id="Path_678" d="M465.491 166.27l1.669-2.6a18.6 18.6 0 0 1-.476-4.205c0-1.047.345-3.813.762-4.043s.609 2.338.788 2.239 1.519-5.139 2.272-5.07c.381.036-.928 4.922-.928 4.922s1.291-5.3 1.888-5.119-.824 5.243-.824 5.243 1.245-4.807 1.749-4.65-.8 4.84-.8 4.84 1.236-4.167 1.51-3.932c.419.359-.053 3.231-1.251 7.285-.206.7-1.218 3.024-1.273 3.211s-1.194 4.386-1.194 4.386" class="cls-14" transform="translate(-465.491 -152.385)"/>
                <path id="Path_679" d="M467.1 155.555a6.543 6.543 0 0 1 1.353 3.261 5.075 5.075 0 0 1-.472 2.081" class="cls-15" transform="translate(-464.167 -149.775)"/>
            </g>
            <g id="Group_641" transform="translate(20.87 133.883)">
                <path id="Path_680" d="M436.575 332.221s9.751 3.562 9.818 6.445c.038 1.652-14.146 1.607-15.029.512-1.413-1.753 1.041-6.594 1.041-6.594z" class="cls-16" transform="translate(-407.057 -138.15)"/>
                <path id="Path_681" d="M435.887 328.695l.219 8.3a2.1 2.1 0 0 1-1.745 1.541c-1.439.188-2.431-1.426-2.431-1.426l-.425-10.382" class="cls-14" transform="translate(-406.58 -142.675)"/>
                <path id="Path_682" fill="url(#linear-gradient-8)" d="M453.811 227.081s5.309 32.22 2.641 94.039c-1.822 42.222-7.524 93.26-9.614 93.317a27.038 27.038 0 0 1-3.959-.2s-13.3-61.179-14.2-95.637c-1.393-53.057-15.386-65.226-9.321-92.8" transform="translate(-417.837 -225.801)"/>
                <path id="Path_683" d="M437.424 327.4l-.391 3.656-5.826.16-.275-3.638z" class="cls-18" transform="translate(-407.053 -142.125)"/>
            </g>
            <g id="Group_642" transform="translate(2.45 134.355)">
                <path id="Path_684" d="M420.083 332.674s9.751 3.562 9.818 6.445c.038 1.652-14.146 1.607-15.029.512-1.415-1.753 1.041-6.594 1.041-6.594z" class="cls-16" transform="translate(-402.221 -138.25)"/>
                <path id="Path_685" d="M419.394 329.148l.219 8.3a2.1 2.1 0 0 1-1.745 1.541c-1.439.188-2.431-1.426-2.431-1.426l-.425-10.382" class="cls-14" transform="translate(-401.744 -142.775)"/>
                <path id="Path_686" fill="url(#linear-gradient-9)" d="M444.932 227.34s-2.5 40.981-5.648 88.282c-1.244 18.687-11.979 96.824-13.493 99.41l-5.307.146s-8.073-67.618-8.978-102.078c-1.393-53.055-7.1-59.467-1.032-87.04" transform="translate(-407.736 -226.06)"/>
                <path id="Path_687" d="M421.007 327.846l-.391 3.656-5.826.16-.275-3.638z" class="cls-18" transform="translate(-402.154 -142.226)"/>
                <path id="Path_688" d="M430.088 238.131s-2.068 52.362-5.892 83.03" class="cls-20" transform="translate(-394.18 -216.118)"/>
            </g>
            <path id="Path_689" d="M451.606 168.906c-3.326-5.867-12.348-4.978-17.505-2.292-7.315 3.811-9.054 14.671-15.891 19.318-3.025 2.055-6.678 3.264-9.1 6.029-2.827 3.221-3.379 8.128-1.964 12.207a18.785 18.785 0 0 0 8.2 9.576 39.833 39.833 0 0 0 11.888 4.406c6.591 1.519 13.61 2.332 20.005.108s11.945-8.188 11.923-15.1c-.02-5.847-3.857-11.312-3.186-17.118" class="cls-21" transform="translate(-406.393 -142.382)"/>
            <path id="Path_690" fill="url(#linear-gradient-10)" d="M513.249 158.912s-17.461 25.053-21.457 30.755c-6.213 8.868-31.74 10.584-45.392 18.667l-9.463 1.029c-4.5.914-20.007 11.954-21.457 16.4-3.31 10.15-6.649 20.448-7.242 31.131-.2 3.622-.082 7.254.036 10.88l.512 15.743a1.718 1.718 0 0 0 .244 1 1.6 1.6 0 0 0 .97.483c17.137 3.955 34.99 1.825 52.433-.323a2.888 2.888 0 0 0 1.711-.6 2.977 2.977 0 0 0 .631-2.117c.093-3.357-.1-6.713-.233-10.068a290.9 290.9 0 0 1 1.53-43.53c5.4-3.39 27.748-10.406 35.227-20.84 16.737-23.353 16.737-47.418 16.737-47.418z" transform="translate(-404.962 -147.01)"/>
            <path id="Path_691" d="M433.387 191.427l-.339-11.987-5.312.733-3.806 12.158a5.867 5.867 0 0 0 5.67 1.973c3.388-.466 3.787-2.877 3.787-2.877z" class="cls-14" transform="translate(-391.949 -130.102)"/>
            <path id="Path_692" d="M422.916 183.694c-.273-4.7 1.118-9.747 3.6-12.508s7.11-3.16 10.526-2.693a6.409 6.409 0 0 1 3.252 1.315c3.37 2.8 3.146 9.262 2.909 13.219a16.38 16.38 0 0 1-3.29 9.346 6.415 6.415 0 0 1-2.418 1.973 11.355 11.355 0 0 1-10.579-1.576c-2.685-2.134-3.805-5.723-4-9.076z" class="cls-14" transform="translate(-392.812 -139.256)"/>
            <path id="Path_693" d="M424.113 190.2c-1.249.584-3.19 1.007-4.16-.365-.775-1.1-.1-2.741.173-3.906a103.9 103.9 0 0 1 3.274-11.179 20.983 20.983 0 0 1 2.582-5.4c2.3-3.164 8.83-4.634 12.669-4.269 4.22-.279 10.942 6.6 7.263 14.593-.547-1.959-1.322-1.791-2.763-3.441a8.492 8.492 0 0 1-5.254 2.318c-2.553.232-5.5-.35-7.373 1.439-1.918 1.831-1.521 5.1-2.909 7.377a7.853 7.853 0 0 1-3.502 2.833z" class="cls-21" transform="translate(-395.521 -141.973)"/>
            <path id="Path_694" d="M425.97 178.039a1.515 1.515 0 0 0-1.249-1.866c-1.94-.206-2.52 2.843-1.767 4.229.558 1.027 1.968 1.873 2.7.636" class="cls-14" transform="translate(-393.015 -132.801)"/>
            <g id="Group_647" transform="translate(23.249 22.486)">
                <g id="Group_645" transform="translate(7.317 25.529)">
                    <g id="Group_643">
                        <path id="Path_695" d="M428.8 183.083a9.111 9.111 0 0 1-1.426-.233 6.22 6.22 0 0 1-3.636-2.378 2.8 2.8 0 0 1-.582-1.525.22.22 0 1 1 .44-.015 2.365 2.365 0 0 0 .5 1.277 5.807 5.807 0 0 0 3.385 2.2 13.822 13.822 0 0 0 4.058.224.225.225 0 0 1 .024.449 18.834 18.834 0 0 1-2.763.001z" class="cls-21" transform="translate(-423.154 -178.715)"/>
                    </g>
                    <g id="Group_644" transform="translate(7.592 3.425)">
                        <path id="Path_696" d="M429.113 180.752a1.609 1.609 0 0 0-1.238-.067c-1.4.454.117 2.27 1.38 1.337a.884.884 0 0 0 .255-.279.783.783 0 0 0-.397-.991z" class="cls-21" transform="translate(-427.317 -180.593)"/>
                    </g>
                </g>
                <g id="Group_646" transform="translate(3.642)">
                    <path id="Path_697" d="M421.139 179.579a18.692 18.692 0 0 1 3.385-9.133c2.458-3.142 5.746-5.73 8.9-5.73a10.083 10.083 0 0 1 3.957.622 16.939 16.939 0 0 0-8.6 5.092 15.474 15.474 0 0 0-4.158 10.234" class="cls-18" transform="translate(-421.139 -164.716)"/>
                </g>
                <path id="Path_698" d="M430.757 178.338c.359 3.534-1.94 6.674-5.139 7.016s-6.08-2.25-6.439-5.783 1.942-6.674 5.139-7.014 6.082 2.248 6.439 5.781z" class="cls-18" transform="translate(-419.142 -158.283)"/>
                <path id="Path_699" d="M427.435 177.83c.246 2.422-1.247 4.566-3.337 4.789s-3.983-1.561-4.231-3.985 1.249-4.566 3.339-4.789 3.983 1.563 4.229 3.985z" class="cls-23" transform="translate(-418.566 -157.212)"/>
            </g>
        </g>
        <g id="Group_650" transform="translate(583.819 304.889)">
            <path id="Path_700" fill="url(#linear-gradient-11)" d="M575.973 170.313L380.485 341.486v235.379H771.46V341.486z" transform="translate(-380.485 -170.313)"/>
            <path id="Rectangle_356" fill="url(#linear-gradient-12)" d="M0 0H351.452V322.047H0z" transform="translate(19.761 60.214)"/>
            <g id="Group_649" transform="translate(39.887 70.856)">
                <path id="Rectangle_357" d="M0 0H311.201V27.499H0z" class="cls-26" transform="translate(0 31.201)"/>
                <path id="Rectangle_358" d="M0 0H311.201V27.499H0z" class="cls-26" transform="translate(0 71.584)"/>
                <path id="Rectangle_359" d="M0 0H311.201V163.516H0z" class="cls-26" transform="translate(0 111.966)"/>
                <text id="NAME" class="cls-27" transform="translate(10.071 48.095)">
                    <tspan x="0" y="0">NAME</tspan>
                </text>
                <text id="EMAIL" class="cls-27" transform="translate(10.071 89.434)">
                    <tspan x="0" y="0">EMAIL</tspan>
                </text>
                <text id="MESAGE" class="cls-27" transform="translate(10.071 129.773)">
                    <tspan x="0" y="0">MESAGE</tspan>
                </text>
                <text id="CONTACT_US" fill="#eac38f" font-family="SegoeUI, Segoe UI" font-size="16px" transform="translate(153.992 17)">
                    <tspan x="-46.484" y="0">CONTACT US</tspan>
                </text>
            </g>
            <path id="Path_701" fill="#c9d3f4" d="M575.973 413.609L380.485 264.177v211.088H771.46V264.177z" transform="translate(-380.485 -93.003)" style="mix-blend-mode:multiply;isolation:isolate" opacity="0.55"/>
            <path id="Path_702" fill="url(#linear-gradient-13)" d="M575.973 437.938L380.485 264.177v235.379H771.46V264.177z" transform="translate(-380.485 -93.003)"/>
            <path id="Path_703" fill="#c9d3f4" d="M575.973 292.189l-195.487 184.3H771.46z" transform="translate(-380.485 -69.932)" style="mix-blend-mode:multiply;isolation:isolate" opacity="0.35"/>
            <path id="Path_704" fill="url(#linear-gradient-14)" d="M575.973 302.039L380.485 468.372H771.46z" transform="translate(-380.485 -61.82)"/>
        </g>
        <g id="Group_651" transform="translate(966.23 636.094)">
            <path id="Path_705" fill="url(#linear-gradient-15)" d="M558.483 438.7c-3.957-20.62.175-41.794 8.414-59.423 5.389-11.533 17.806-27.6 31.655-27.345 10.294.188 14.615 10.542 15.211 19.863 1.561 24.431-9.919 31.89-9.859 58.307.578-10 10.256-42.494 25.37-31.41 14.8 10.854.383 40.009.383 40.009" transform="translate(-556.967 -351.931)"/>
            <path id="Path_706" d="M599.994 381.11c-5.068 8.5-11.341 20.614-12.322 33.56" class="cls-3" transform="translate(-531.677 -327.899)"/>
            <path id="Path_707" d="M588.139 360.156c-13.971 19.642-18.4 61.092-19.56 71.773" class="cls-3" transform="translate(-547.402 -345.157)"/>
        </g>
        <g id="Group_653" transform="translate(565.903 265.994)">
            <g id="Group_652" transform="translate(32.892 56.815)">
                <path id="Path_708" d="M416.843 217.107s2.475 1.753 3.335 1.8 2.827-.589 5.263-.348c1.085.108 3.9.733 4.054 1.176s-2.544.376-2.477.565 5.051 2.048 4.834 2.8c-.109.379-4.937-1.432-4.937-1.432s5.265 1.835 4.96 2.414-5.29-1.359-5.29-1.359 4.756 1.738 4.5 2.228-4.907-.746-4.907-.746 4.047.883 3.828 1.366c-.113.25-4.552-.312-8.349-1.74a28.9 28.9 0 0 1-6.406-3.509" class="cls-14" transform="translate(-415.251 -217.107)"/>
            </g>
            <path id="Path_709" fill="url(#linear-gradient-16)" d="M433.434 207.139c-4.384 6.68-14.529 14.392-20.131 19.121 3.215 4.362 21.415 17.95 21.415 17.95l-1.689 4.048s-34.687-6.222-35.791-23.352c-.662-10.249 12.311-25.347 22.381-32.442 9.439-6.649 20.49-7.734 26.308-5.372" transform="translate(-397.215 -185.952)"/>
        </g>
        <g id="Group_666" transform="translate(955.217 407.267)">
            <path id="Path_710" d="M560.789 245.575c-3.822-1.572-9.27-6.231-8.641-8.883.268-1.131 2.962 1.94 3.718 1.185.5-.5.088-2.772-1.293-3.875s-4.24-3.137-3.536-3.841 7.709.855 9.279 3.23c.992 1.5 2.083 4.833 2.752 8.438l2.9 3.746" class="cls-14" transform="translate(-550.928 -223.537)"/>
            <g id="Group_654" transform="translate(66.491 135.783)">
                <path id="Path_711" d="M601.956 401.74s-11.932 3.614-11.921 6.337c.005 1.559 17.529 1.151 18.585.093 1.69-1.689-1.5-6.195-1.5-6.195z" class="cls-16" transform="translate(-585.209 -217.863)"/>
                <path id="Path_712" d="M596.572 398.461v7.839a2.387 2.387 0 0 0 2.2 1.408 3.714 3.714 0 0 0 2.958-1.408l.188-9.809" class="cls-14" transform="translate(-579.825 -222.187)"/>
                <path id="Path_713" d="M589.9 303.013s-5.513 30.544-.212 88.814c3.622 39.8 12.326 87.819 14.908 87.819a43.828 43.828 0 0 0 4.887-.292s14.445-58.083 14.445-90.625c0-50.108 16.9-61.954 8.5-87.819" class="cls-35" transform="translate(-587.388 -300.91)"/>
                <path id="Path_714" d="M595.838 397.2l.6 3.44h7.2l.222-3.44z" class="cls-18" transform="translate(-580.429 -221.604)"/>
            </g>
            <g id="Group_655" transform="translate(90.272 135.783)">
                <path id="Path_715" d="M622.35 401.74s-11.932 3.614-11.921 6.337c.005 1.559 17.529 1.151 18.585.093 1.69-1.689-1.5-6.195-1.5-6.195z" class="cls-16" transform="translate(-592.193 -217.863)"/>
                <path id="Path_716" d="M616.966 398.461v7.839a2.388 2.388 0 0 0 2.2 1.408 3.714 3.714 0 0 0 2.958-1.408l.188-9.809" class="cls-14" transform="translate(-586.809 -222.187)"/>
                <path id="Path_717" d="M600.429 303.013s4.421 38.608 9.842 83.167c2.143 17.6 17.944 91.065 19.9 93.466h6.561s7.78-64.022 7.78-96.567c0-50.106 6.842-56.3-1.55-82.169" class="cls-35" transform="translate(-600.429 -300.91)"/>
                <path id="Path_718" d="M616.138 397.2l.6 3.44h7.2l.222-3.44z" class="cls-18" transform="translate(-587.491 -221.604)"/>
                <path id="Path_719" d="M601.67 312.773s4.253 49.362 9.974 78.2" class="cls-20" transform="translate(-599.407 -291.139)"/>
            </g>
            <g id="Group_656" transform="translate(8.664 18.411)">
                <path id="Path_720" fill="url(#linear-gradient-19)" d="M681.509 349.613c0-3.191 2.484-58.238-7.079-70.686-2.7-5.794-12.707-12.355-20.674-15.2-7.028-2.511-11.449-.554-14.647-.093-13.438-3.859-44.168-1.278-52.69-5.655-4.69-2.409-26.636-21.428-26.636-21.428l-4.1 3.191s13.11 27.395 27.85 36.969c10.367 6.735 25.748 10.475 33.969 12.1-.119 1.508-.219 3.164-.3 5.008a557.792 557.792 0 0 0-.434 55.8c.108 2.734-2.849 6.224-2.849 8.048s3.552 7.592 33.1 7.592c25.064 0 36.976-3.678 36.976-7.854-.002-4.305-2.486-4.605-2.486-7.792z" transform="translate(-555.679 -236.548)"/>
                <path id="Path_721" fill="none" stroke="#707070" stroke-miterlimit="10" stroke-width="0.5px" d="M590.262 259.028s-.554 9.417-.684 11.268" transform="translate(-527.759 -218.033)" style="mix-blend-mode:multiply;isolation:isolate" opacity="0.75"/>
            </g>
            <path id="Path_722" d="M601.5 232.916c-1.121 4.415-3.846 16.555-1.34 20.357 2.477 3.76 7.906 4.838 12.056 3.095s7.025-5.761 8.349-10.063 1.291-8.9 1.007-13.389" class="cls-14" transform="translate(-511.227 -221.129)"/>
            <path id="Path_723" d="M603.856 243.5l-1.736 14.72s.631 4.121 2.881 5.7c5.537-.12 8.214-5.394 8.214-5.394l-1.658-18.953" class="cls-14" transform="translate(-508.764 -215.65)"/>
            <path id="Path_724" d="M617.837 242.319c-2.85-1.027-6.766-.658-10.342-1.266-2.484-.419-5.141-.474-7.479-1.5-4.258-1.864-3.87-8.3-.4-10.741a4.5 4.5 0 0 1 3.336-1.052c1.247.288 1.709 1.6 2.812 2.1a3.661 3.661 0 0 0 1.9.263 2.348 2.348 0 0 0 1.306-.492c.6-.527.855-1.362 1.441-1.922a4.447 4.447 0 0 1 2.075-1.056 6.3 6.3 0 0 1 4.953.755 6.252 6.252 0 0 0 1.5.981 15.3 15.3 0 0 1 2.827.722c2.385 1.318 3.928 4.692 4.129 7.3.033.412.713.819.961 1.107 2.369 2.766 2.533 6.643 1.891 10.068s-1.824 6.695-4.621 8.943a12.521 12.521 0 0 1-3.625 1.561c-4.933 1.742-2.427-11.859-2.655-15.771" class="cls-16" transform="translate(-513.049 -226.452)"/>
            <path id="Path_725" d="M608.952 239.919a1.635 1.635 0 0 1 2.449-1.14 2 2 0 0 1 .99 1.541c.095 1.368-.822 3.432-2.511 3.748-.642.12-1.329-.695-1.366-1.32" class="cls-14" transform="translate(-503.498 -216.506)"/>
            <g id="Group_661" transform="translate(93.356 2.996)">
                <g id="Group_659" transform="translate(2.717 24.96)">
                    <g id="Group_657" transform="translate(1.239)">
                        <path id="Path_726" d="M607.257 246.053a9.551 9.551 0 0 0 1.426-.228 6.245 6.245 0 0 0 3.636-2.325 2.7 2.7 0 0 0 .582-1.49.22.22 0 1 0-.439-.015 2.279 2.279 0 0 1-.5 1.247 5.827 5.827 0 0 1-3.385 2.156 14.136 14.136 0 0 1-4.058.219.22.22 0 0 0-.024.44 19.359 19.359 0 0 0 2.762-.004z" class="cls-21" transform="translate(-604.29 -241.782)"/>
                    </g>
                    <g id="Group_658" transform="translate(0 3.349)">
                        <path id="Path_727" d="M604.073 243.775a1.626 1.626 0 0 1 1.238-.066c1.4.441-.117 2.219-1.38 1.306a.866.866 0 0 1-.255-.274.756.756 0 0 1 .397-.966z" class="cls-21" transform="translate(-603.61 -243.618)"/>
                    </g>
                </g>
                <g id="Group_660">
                    <path id="Path_728" d="M618.363 242.627a18.02 18.02 0 0 0-3.385-8.928c-2.458-3.073-5.746-5.6-8.9-5.6a10.268 10.268 0 0 0-3.957.609 17.025 17.025 0 0 1 8.6 4.977 14.957 14.957 0 0 1 4.158 10.006" class="cls-18" transform="translate(-602.12 -228.095)"/>
                </g>
                <path id="Path_729" d="M606.672 241.415a5.838 5.838 0 1 0 6.439-5.653 6.067 6.067 0 0 0-6.439 5.653z" class="cls-18" transform="translate(-598.401 -221.805)"/>
                <path id="Path_730" d="M608.173 240.916a3.833 3.833 0 1 0 4.229-3.893 4.08 4.08 0 0 0-4.229 3.893z" class="cls-38" transform="translate(-597.156 -220.757)"/>
            </g>
            <g id="Group_664" transform="translate(29.709 45.586)">
                <g id="Group_662" transform="translate(0 43.309)">
                    <path id="Path_731" d="M632.975 313.75H573.97l-5.781-35.65a2.5 2.5 0 0 1 2.467-2.9h52.592a4.088 4.088 0 0 1 4.034 3.434z" class="cls-38" transform="translate(-566.447 -275.199)"/>
                    <path id="Path_732" fill="url(#linear-gradient-20)" d="M632.038 313.75h-59.007l-5.779-35.65a2.5 2.5 0 0 1 2.467-2.9h52.59a4.089 4.089 0 0 1 4.036 3.434z" transform="translate(-567.219 -275.199)"/>
                    <path id="Path_733" fill="#abd1ff" d="M590.3 287.419c-.646-3.005-2.932-5.134-5.108-4.751s-3.419 3.129-2.774 6.135 2.932 5.133 5.108 4.752 3.422-3.129 2.774-6.136z" transform="translate(-554.839 -269.084)"/>
                </g>
                <g id="Group_663" transform="translate(46.445)">
                    <path id="Path_734" d="M643.949 264.8c-2.7-5.794-9.848-8.243-17.817-11.091l-2.185 26.924c.985 12.273 5.423 30.011 5.423 30.011l-24.67 18.663.036.068a4.122 4.122 0 0 1-.992.527c-.337 0-2.728-1.353-4-1.134s-2.728.3-2.728.762 1.942.5 1.942.941-1.307 1.306-1.906 1.306-4.112-.253-4.333.005.748 1.849 1.718 2.708a6.334 6.334 0 0 0 3.12 1.07 20.817 20.817 0 0 0 6.669-1.246c.41-.292 1.432-.861 2.424-1.4l.835 1.545s33.62-2.679 43.742-7.294c.312-16.574.23-52.594-7.278-62.365z" transform="translate(-592.687 -249.593)" style="mix-blend-mode:multiply;isolation:isolate" fill="url(#linear-gradient-21)" opacity="0.75"/>
                    <path id="Path_735" d="M606.805 294.44a25.372 25.372 0 0 1-3.064 1.636c-.337 0-2.728-1.16-4-.972s-2.728.261-2.728.653 1.942.43 1.942.8-1.307 1.116-1.906 1.116-4.112-.217-4.333.005.748 1.579 1.718 2.316a7.063 7.063 0 0 0 3.12.915 23.987 23.987 0 0 0 6.669-1.065c.9-.549 4.745-2.241 4.745-2.241" class="cls-14" transform="translate(-592.687 -216.042)"/>
                    <path id="Path_736" fill="url(#linear-gradient-22)" d="M617.85 251.45s17.268 1.091 25.474 17.047 5.642 49.962.627 54.977-43.22 11.2-43.22 11.2l-1.459-3.505 26.9-16.808s-8.378-28.078-8.378-39.476" transform="translate(-587.263 -251.45)"/>
                </g>
            </g>
            <g id="Group_665" transform="translate(90.952 42.57)">
                <path id="Path_737" fill="url(#linear-gradient-23)" d="M603.694 255.355c1.242 1.242 1.769 3.009 2.965 5.547 5.737-1.891 7.537-8.226 7.537-8.226l-2.289-2.715s-4.507 4.663-8.213 5.394z" transform="translate(-598.42 -249.66)"/>
                <path id="Path_738" fill="url(#linear-gradient-24)" d="M606.087 255.491a13.37 13.37 0 0 0-2.881 4.69c-1.461-1.461-2.537-6.729-2.391-7.367a36.553 36.553 0 0 1 2.391-3.018 10.721 10.721 0 0 0 2.881 5.695z" transform="translate(-600.802 -249.796)"/>
            </g>
        </g>
        <g id="Group_680" transform="translate(307.242 402.626)">
            <g id="Group_669" transform="translate(58.342 87.607)">
                <g id="Group_667">
                    <path id="Path_739" d="M333.594 401.017s-11.934 3.613-11.923 6.335c.007 1.561 17.531 1.151 18.586.095 1.69-1.69-1.313-6.806-1.313-6.806z" class="cls-45" transform="translate(-320.117 -165.951)"/>
                    <path id="Path_740" d="M328.209 397.567v7.838a2.387 2.387 0 0 0 2.2 1.408 3.708 3.708 0 0 0 2.958-1.408l.188-9.809" class="cls-14" transform="translate(-314.732 -170.106)"/>
                    <path id="Path_741" d="M338.258 283.959c-8.02 10.369-17.439 39.71-17.439 95.405 0 39.363 12.765 121.8 12.765 121.8l7.294.607c23.326-147.351 15.452-145.827 21.274-172.028 3.647-16.413-3.762-57.8-3.762-57.8" class="cls-35" transform="translate(-320.819 -271.947)"/>
                    <path id="Path_742" d="M343.98 344.48s-5.031-27.956-5.031-33.67c-2.176 11.427-2.176 26.231 0 36.619 1.6 7.626 3.257 15.078 3.257 15.078z" class="cls-46" transform="translate(-307.231 -239.938)"/>
                    <path id="Path_743" d="M327.648 396.522v3.115s7.626 1.282 7.626.81.345-3.585.345-3.585z" class="cls-18" transform="translate(-315.194 -169.343)"/>
                </g>
                <g id="Group_668" transform="translate(12.459)">
                    <path id="Path_744" d="M366.352 401.017s11.932 3.613 11.921 6.335c-.005 1.561-17.531 1.151-18.586.095-1.687-1.691 1.313-6.806 1.313-6.806z" class="cls-45" transform="translate(-301.69 -165.951)"/>
                    <path id="Path_745" d="M364.792 397.567l1.339 7.838a2.392 2.392 0 0 1-2.207 1.408 3.7 3.7 0 0 1-2.956-1.408l-1.526-9.809" class="cls-14" transform="translate(-301.468 -170.106)"/>
                    <path id="Path_746" d="M363.721 279.283c7.9 13.3 21.913 40.707 21.913 96.4 0 39.365-1.036 125.455-1.036 125.455l-6.259.635c-20.149-56.257-36.928-127.942-40.864-169.7-1.577-16.739 1.437-60.125 1.437-60.125" class="cls-35" transform="translate(-319.936 -271.947)"/>
                    <path id="Path_747" d="M372.366 279.62a225.232 225.232 0 0 0-25.921-6.153l-.066 1.038-13.748 8.2a42.8 42.8 0 0 0-4.98 8.768 62.393 62.393 0 0 0 17.627 3.95c11.378 1.014 25.591-1.207 32.886-4.617-2.046-4.47-4.04-8.152-5.798-11.186z" class="cls-46" transform="translate(-327.651 -270.695)"/>
                    <path id="Path_748" d="M367.455 396.2v3.115s-8 1.28-8 .808-.361-3.585-.361-3.585z" class="cls-18" transform="translate(-301.757 -169.607)"/>
                </g>
            </g>
            <g id="Group_673" transform="translate(0 3.833)">
                <g id="Group_670" transform="translate(177.219 52.669)">
                    <path id="Path_749" d="M386.006 264.018l2.582-1.406a17.183 17.183 0 0 1 1.47-3.717c.469-.868 1.993-3.014 2.451-3.014s-.523 2.221-.326 2.221 3.583-3.583 4.194-3.18c.308.2-2.985 3.671-2.985 3.671s3.465-3.824 3.89-3.4-3.04 3.988-3.04 3.988 3.2-3.432 3.562-3.073-2.843 3.66-2.843 3.66 2.911-2.9 3.04-2.582c.2.491-1.488 2.664-4.315 5.491-.491.491-2.385 1.962-2.517 2.092s-2.973 3.106-2.973 3.106" class="cls-14" transform="translate(-386.006 -254.891)"/>
                    <path id="Path_750" d="M390.095 256.932a6.121 6.121 0 0 1-.3 3.33 4.687 4.687 0 0 1-1.331 1.515" class="cls-15" transform="translate(-383.984 -253.209)"/>
                </g>
                <g id="Group_671">
                    <path id="Path_751" d="M297.2 238.61l-1.805-2.32a17.1 17.1 0 0 0 .137-4c-.082-.983-.622-3.56-1.041-3.742s-.409 2.245-.589 2.166-1.855-4.716-2.573-4.592c-.365.064 1.269 4.559 1.269 4.559s-1.649-4.889-2.208-4.67 1.195 4.869 1.195 4.869-1.565-4.424-2.039-4.238 1.145 4.492 1.145 4.492-1.51-3.826-1.756-3.582c-.376.37.3 3.036 1.762 6.757.253.646 1.4 2.75 1.472 2.923s1.486 4.034 1.486 4.034" class="cls-14" transform="translate(-288.827 -226.009)"/>
                    <path id="Path_752" d="M292.005 228.863a6.134 6.134 0 0 0-1.052 3.173 4.706 4.706 0 0 0 .615 1.922" class="cls-15" transform="translate(-287.079 -223.659)"/>
                </g>
                <g id="Group_672" transform="translate(3.177 10.604)">
                    <path id="Path_753" fill="url(#linear-gradient-29)" d="M466.436 281.914s-26.14 9.632-32.076 9.632c-4.9 0-13.247-13.24-24.8-22.263a65.623 65.623 0 0 0-15.346-8.673l-21.818-.456a173.679 173.679 0 0 0-19.817 1.588c-10.854 1.474-21.03.988-25.766-1.132-9.164-4.1-32.085-28.739-32.085-28.739a4.817 4.817 0 0 0-4.16 1.517c0 1.218 11.8 34.9 27.354 44.985 11.443 7.42 28.115 8.635 38.524 8.564v6.937c0 3.419-4.087 20.271.744 25.1 4.437 4.437 21.367 4.989 27.978 4.989 9.8 0 19.832-1.556 22.339-4.989 1.256-1.721 1.067-9.392.68-16.422 7.842 4.935 14.93 9.851 23.979 9.851 16.942 0 36.872-26.5 36.872-26.5z" transform="translate(-290.569 -231.824)"/>
                    <path id="Path_754" d="M358.593 278.845l-.22-4.888-7.322-7.412z" transform="translate(-240.754 -203.227)" style="mix-blend-mode:multiply;isolation:isolate" fill="url(#linear-gradient-29)" opacity="0.75"/>
                    <path id="Path_755" d="M328.528 266.834c0-.868 1.474-9.264 1.474-10.6-2.2 4.736-5.535 10.561-5.535 10.561z" transform="translate(-262.65 -211.72)" style="mix-blend-mode:multiply;isolation:isolate" fill="url(#linear-gradient-31)" opacity="0.75"/>
                </g>
            </g>
            <g id="Group_679" transform="translate(65.79)">
                <path id="Path_756" d="M355.61 226.094c6.157 3.837 5.1 11.684 7.6 16.591 1.8 3.545 4.623 6.552 4.887 10.763.29 4.6-5.686 6.746-8.89 6.25-6.27-.97-11.657 2.221-17.974 1.457-4.3-.522-2.681-2.681-5.487-5.985a12.8 12.8 0 0 1-2.754-7.2 30.416 30.416 0 0 1 .558-7.791" class="cls-50" transform="translate(-318.304 -222.106)"/>
                <path id="Path_757" d="M342.144 243.006l-1.226 11.294-5.478.848s3.82 6.893 9.9 6.893 11.919-6.437 11.919-6.437l-5.938-1.838-2.258-15.866" class="cls-14" transform="translate(-316.225 -212.38)"/>
                <path id="Path_758" d="M334.369 234.317c-.356 3.777-.709 7.628.117 11.33s3.042 7.3 6.52 8.812a14.1 14.1 0 0 0 5.024.987c2.883.128 5.96-.208 8.25-1.964 2.672-2.05 3.727-5.681 3.509-9.042s-1.523-6.541-2.812-9.652l-3.6-8.693" class="cls-14" transform="translate(-317.428 -222.106)"/>
                <path id="Path_759" d="M327.777 251.156c-1.2 1.479-2.65 2.951-2.852 4.842a4.621 4.621 0 0 0 2.724 4.517c1.517.686 2.947.452 4.548.345a20.283 20.283 0 0 1 5.265.212c1.473.29 2.887.826 4.333 1.238a14.993 14.993 0 0 0 6.574.573 1.263 1.263 0 0 0 .972-.527 1.424 1.424 0 0 0-.2-1.205c-1.346-2.85-1.368-6.138-1.116-9.28a24.811 24.811 0 0 1 .771-4.789 27.583 27.583 0 0 1 1.479-3.795c1.074-2.36 2.411-4.623 3.43-7 .992-2.367 1.614-6.025 4.927-5.546 2.134.31 3.04 3.751 4.459 5.847 2.108-2.407 4.479-3.866-.011-9.569-2.247-2.854-6.074-2.7-9.47-2.077-1.907-.128-1.774-.875-3.682-1-6.228-.423-12.928 3.819-15.656 9.525-3.047 6.369-2.337 12.561-6.495 17.689z" class="cls-50" transform="translate(-324.903 -223.907)"/>
                <g id="Group_678" transform="translate(11.302 .029)">
                    <g id="Group_676" transform="translate(7.317 24.96)">
                        <g id="Group_674">
                            <path id="Path_760" d="M340.757 241.881a9.555 9.555 0 0 1-1.426-.23 6.245 6.245 0 0 1-3.636-2.325 2.7 2.7 0 0 1-.582-1.49.22.22 0 0 1 .439-.015 2.278 2.278 0 0 0 .5 1.247 5.827 5.827 0 0 0 3.385 2.156 14.2 14.2 0 0 0 4.058.221.219.219 0 1 1 .024.438 19.344 19.344 0 0 1-2.762-.002z" class="cls-21" transform="translate(-335.113 -237.61)"/>
                        </g>
                        <g id="Group_675" transform="translate(7.592 3.348)">
                            <path id="Path_761" d="M341.072 239.6a1.633 1.633 0 0 0-1.238-.066c-1.4.443.117 2.219 1.38 1.306a.861.861 0 0 0 .255-.272.756.756 0 0 0-.397-.968z" class="cls-21" transform="translate(-339.276 -239.446)"/>
                        </g>
                    </g>
                    <g id="Group_677" transform="translate(3.642)">
                        <path id="Path_762" d="M333.1 238.454a18.019 18.019 0 0 1 3.385-8.928c2.458-3.073 5.746-5.6 8.9-5.6a10.3 10.3 0 0 1 3.957.607 17.028 17.028 0 0 0-8.6 4.978 14.95 14.95 0 0 0-4.158 10.006" class="cls-21" transform="translate(-333.098 -223.923)"/>
                    </g>
                    <path id="Path_763" d="M342.716 237.241a5.838 5.838 0 1 1-6.439-5.653 6.067 6.067 0 0 1 6.439 5.653z" class="cls-21" transform="translate(-331.101 -217.634)"/>
                    <path id="Path_764" d="M339.393 236.743a3.833 3.833 0 1 1-4.229-3.893 4.083 4.083 0 0 1 4.229 3.893z" class="cls-23" transform="translate(-330.524 -216.586)"/>
                </g>
            </g>
        </g>
        <g id="Group_681" transform="translate(301.382 181.429)">
            <path id="Path_765" d="M538.161 152.5L529 156.337a1.481 1.481 0 0 0-.394 2.491l6.567 5.651a1.482 1.482 0 0 0 2.4-.733l2.593-9.485a1.482 1.482 0 0 0-2.005-1.761z" class="cls-51" transform="translate(32.188 -152.385)"/>
            <path id="Path_766" d="M317.668 218.911l2.686 9.559a1.481 1.481 0 0 0 2.424.695l6.412-5.828a1.481 1.481 0 0 0-.436-2.467l-9.1-3.731a1.482 1.482 0 0 0-1.986 1.772z" class="cls-51" transform="translate(-259.26 -99.146)"/>
            <path id="Path_767" d="M638.9 286.546l7.037-7a1.482 1.482 0 0 0-.574-2.456l-8.214-2.757a1.481 1.481 0 0 0-1.942 1.581l1.174 9.764a1.483 1.483 0 0 0 2.519.868z" class="cls-51" transform="translate(172.31 -52.014)"/>
            <path id="Path_768" d="M619.168 222.324l2.586 9.587a1.483 1.483 0 0 0 2.418.722l6.472-5.761a1.482 1.482 0 0 0-.41-2.473l-9.058-3.828a1.483 1.483 0 0 0-2.008 1.753z" class="cls-51" transform="translate(159.068 -96.324)"/>
            <path id="Rectangle_360" d="M0 0H5.677V5.677H0z" class="cls-10" transform="rotate(-37.391 533.949 -1043.603)"/>
            <path id="Rectangle_361" d="M0 0H5.677V5.677H0z" class="cls-10" transform="rotate(-2.56 1898.575 -15897.305)"/>
            <path id="Rectangle_362" d="M0 0H5.677V5.677H0z" class="cls-10" transform="rotate(-21.25 485.892 -491.615)"/>
            <path id="Rectangle_363" d="M0 0H5.677V5.677H0z" class="cls-10" transform="rotate(20.972 134.067 763.886)"/>
            <path id="Rectangle_364" d="M0 0H5.677V5.677H0z" class="cls-10" transform="rotate(-2.56 6501.187 147.754)"/>
        </g>
    </g>
</svg>
