<svg xmlns="http://www.w3.org/2000/svg" width="404.5" height="437.573" viewBox="0 0 404.5 437.573">
    <defs>
        <style>
            .cls-1{fill:#e64178}.cls-2{fill:#00d2d2}.cls-3{fill:#289bc3}.cls-4{fill:#fa9b37}.cls-5{fill:#ffd241}.cls-6{fill:#ff6e91}
        </style>
    </defs>
    <g id="conversion-rate" transform="translate(-28 -9.358)">
        <path id="Path_293" d="M373.215 12.906a12.115 12.115 0 0 0-8.566-3.548H322.93a7.1 7.1 0 0 0-5.018 12.114L331.244 34.8l-60.929 60.93L223.579 49a14.192 14.192 0 0 0-20.072 0l-99.351 99.351a14.192 14.192 0 1 0 20.071 20.072l89.316-89.315 46.737 46.736a14.191 14.191 0 0 0 20.071 0l70.965-70.965 13.333 13.333a7.1 7.1 0 0 0 12.114-5.018V21.473a12.115 12.115 0 0 0-3.548-8.567z" class="cls-1" transform="translate(-8.131)"/>
        <path id="Path_294" d="M304.134 454.109l-16.124-12.541a5.283 5.283 0 0 0-8.527 4.171v8.909h-7.1a14.21 14.21 0 0 1-14.193-14.193 7.1 7.1 0 0 0-14.193 0 28.418 28.418 0 0 0 28.386 28.386h7.1v8.909a5.284 5.284 0 0 0 8.527 4.171l16.124-12.541a9.673 9.673 0 0 0 0-15.271z" class="cls-1" transform="translate(-24.395 -47.886)"/>
        <g id="Group_379" transform="translate(70.579 137.095)">
            <g id="Group_375">
                <path id="Path_295" d="M374.053 181.744H90.193a14.193 14.193 0 0 1 0-28.386h283.86a14.193 14.193 0 0 1 0 28.386z" class="cls-2" transform="translate(-76 -153.358)"/>
            </g>
            <g id="Group_376" transform="translate(14.193 28.386)">
                <path id="Path_296" d="M92 185.358v43.891a28.386 28.386 0 0 0 9.694 21.363L195.851 333a28.389 28.389 0 0 1 9.694 21.363v41.412a9.577 9.577 0 0 0 14.4 8.272l35.329-20.608a14.193 14.193 0 0 0 7.041-12.26v-16.817A28.386 28.386 0 0 1 272.011 333l94.157-82.387a28.389 28.389 0 0 0 9.694-21.363v-43.892z" class="cls-2" transform="translate(-92 -185.358)"/>
            </g>
            <g id="Group_377" transform="translate(14.193 70.964)">
                <path id="Path_297" d="M92 233.358v1.312a28.386 28.386 0 0 0 9.694 21.363l94.156 82.387a28.389 28.389 0 0 1 9.694 21.363v1.312h14.193a14.192 14.192 0 0 1 14.193 14.193v26.02l21.344-12.451a14.192 14.192 0 0 0 7.042-12.26v-16.815a28.386 28.386 0 0 1 9.694-21.363l94.156-82.387a28.388 28.388 0 0 0 9.694-21.363v-1.312H92z" class="cls-3" transform="translate(-92 -233.357)"/>
            </g>
            <g id="Group_378" transform="translate(14.193 28.386)">
                <path id="Path_298" d="M92 185.358v14.193h127.737a14.192 14.192 0 0 1 14.193 14.193v14.193h141.93v-42.579z" class="cls-3" transform="translate(-92 -185.358)"/>
            </g>
        </g>
        <g id="Group_380" transform="translate(309.264 335.387)">
            <ellipse id="Ellipse_17" cx="44.775" cy="42.141" class="cls-4" rx="44.775" ry="42.141"/>
        </g>
        <g id="Group_381" transform="translate(337.88 352.355)">
            <circle id="Ellipse_18" cx="16.559" cy="16.559" r="16.559" class="cls-5"/>
        </g>
        <path id="Path_299" d="M406.579 433.358h-28.386A14.193 14.193 0 0 0 364 447.528a35.446 35.446 0 0 0 56.77 0 14.193 14.193 0 0 0-14.191-14.17z" class="cls-5" transform="translate(-37.947 -47.886)"/>
        <g id="Group_382" transform="translate(276.377 371.279)">
            <path id="Path_300" d="M322.193 431.551h-7.1a7.1 7.1 0 0 1 0-14.193h7.1a7.1 7.1 0 0 1 0 14.193z" class="cls-4" transform="translate(-308 -417.358)"/>
        </g>
        <g id="Group_383" transform="translate(411.211 371.279)">
            <path id="Path_301" d="M474.193 431.551h-7.1a7.1 7.1 0 0 1 0-14.193h7.1a7.1 7.1 0 0 1 0 14.193z" class="cls-4" transform="translate(-460 -417.358)"/>
        </g>
        <g id="Group_384" transform="translate(379.275 426.591)">
            <path id="Path_302" d="M434.652 500.052a7.094 7.094 0 0 1-6.152-3.552l-3.548-6.146a7.1 7.1 0 0 1 12.291-7.1l3.548 6.146a7.1 7.1 0 0 1-6.138 10.646z" class="cls-4" transform="translate(-423.999 -479.712)"/>
        </g>
        <g id="Group_385" transform="translate(311.858 309.822)">
            <path id="Path_303" d="M358.652 368.416a7.094 7.094 0 0 1-6.153-3.549l-3.548-6.146a7.1 7.1 0 1 1 12.291-7.1l3.548 6.146a7.1 7.1 0 0 1-6.139 10.646z" class="cls-4" transform="translate(-347.998 -348.076)"/>
        </g>
        <g id="Group_386" transform="translate(379.275 309.821)">
            <path id="Path_304" d="M431.089 368.416a7.1 7.1 0 0 1-6.138-10.646l3.548-6.146a7.1 7.1 0 1 1 12.291 7.1l-3.548 6.146a7.1 7.1 0 0 1-6.153 3.546z" class="cls-4" transform="translate(-423.999 -348.075)"/>
        </g>
        <g id="Group_387" transform="translate(311.858 426.59)">
            <path id="Path_305" d="M355.089 500.052a7.1 7.1 0 0 1-6.138-10.645l3.548-6.146a7.1 7.1 0 0 1 12.291 7.1l-3.548 6.146a7.094 7.094 0 0 1-6.153 3.545z" class="cls-4" transform="translate(-347.998 -479.711)"/>
        </g>
        <g id="Group_391" transform="translate(28 108.71)">
            <g id="Group_388">
                <circle id="Ellipse_19" cx="68.599" cy="68.599" r="68.599" class="cls-6"/>
            </g>
            <g id="Group_389" transform="translate(20.564 18.923)">
                <path id="Path_306" fill="#d7e6f0" d="M141.8 192.367a41.969 41.969 0 0 0-.215-4.233 5.661 5.661 0 0 1 2.816-5.463h.005a5.7 5.7 0 0 0 2.085-7.779l-8.5-14.721a5.7 5.7 0 0 0-7.779-2.085l-.009.005a5.664 5.664 0 0 1-6.138-.292 42.471 42.471 0 0 0-7.346-4.249 5.657 5.657 0 0 1-3.307-5.164 5.694 5.694 0 0 0-5.694-5.694h-17a5.694 5.694 0 0 0-5.694 5.694 5.656 5.656 0 0 1-3.307 5.164 42.473 42.473 0 0 0-7.346 4.249 5.662 5.662 0 0 1-6.138.292l-.009-.005a5.694 5.694 0 0 0-7.779 2.085l-8.5 14.721a5.694 5.694 0 0 0 2.085 7.779h.005a5.662 5.662 0 0 1 2.816 5.463 41.842 41.842 0 0 0 0 8.466 5.661 5.661 0 0 1-2.816 5.463h-.005a5.7 5.7 0 0 0-2.085 7.779l8.5 14.721a5.7 5.7 0 0 0 7.779 2.085l.009-.005a5.664 5.664 0 0 1 6.138.292 42.474 42.474 0 0 0 7.346 4.249 5.657 5.657 0 0 1 3.307 5.164 5.694 5.694 0 0 0 5.694 5.694h17a5.694 5.694 0 0 0 5.694-5.694 5.656 5.656 0 0 1 3.307-5.164 42.472 42.472 0 0 0 7.346-4.249 5.664 5.664 0 0 1 6.138-.292l.009.005a5.694 5.694 0 0 0 7.779-2.085l8.5-14.721a5.694 5.694 0 0 0-2.085-7.779h-.005a5.663 5.663 0 0 1-2.816-5.463 41.982 41.982 0 0 0 .215-4.233z" transform="translate(-51.183 -142.691)"/>
            </g>
            <g id="Group_390" transform="translate(54.406 54.406)">
                <circle id="Ellipse_20" cx="14.193" cy="14.193" r="14.193" class="cls-6"/>
            </g>
        </g>
    </g>
</svg>
