<svg xmlns="http://www.w3.org/2000/svg" width="84.15" height="94.52" viewBox="0 0 84.15 94.52"><defs><style>.a{fill:#bdf0ff;}.b{fill:#9587ff;}.c{fill:#9ea4ff;}.d{fill:#ff9457;}.e{fill:#ff6145;}.f{fill:#ff7e4f;}.g{fill:#fff;}.h{fill:#ffae6b;}</style></defs><g transform="translate(-27.264)"><g transform="translate(32.969 8.632)"><path class="a" d="M409.736,173.5h5.705V202.03h-5.705Z" transform="translate(-342.703 -149.138)"/><path class="a" d="M0,0H5.705V28.527H0Z" transform="matrix(0.5, -0.866, 0.866, 0.5, 39.349, 4.942)"/><path class="a" d="M0,0H5.705V28.527H0Z" transform="matrix(-0.5, -0.866, 0.866, -0.5, 8.685, 19.204)"/><path class="a" d="M0,0H5.705V28.527H0Z" transform="translate(5.705 52.891) rotate(180)"/><path class="a" d="M0,0H5.705V28.527H0Z" transform="matrix(-0.5, 0.866, -0.866, -0.5, 33.391, 72.315)"/><path class="a" d="M0,0H5.705V28.527H0Z" transform="matrix(0.5, 0.866, -0.866, 0.5, 64.055, 58.051)"/></g><path class="b" d="M248.5,0V17.116A8.558,8.558,0,0,0,248.5,0Z" transform="translate(-179.161)"/><path class="c" d="M214.911,8.558c0-4.727-1.277-8.558-2.853-8.558a8.558,8.558,0,0,0,0,17.116C213.634,17.116,214.911,13.285,214.911,8.558Z" transform="translate(-142.719)"/><path class="b" d="M72.264,101.75v17.116a8.558,8.558,0,1,0,0-17.116Z" transform="translate(-36.442 -82.399)"/><path class="c" d="M38.675,110.308c0-4.727-1.277-8.558-2.853-8.558a8.558,8.558,0,1,0,0,17.116C37.4,118.866,38.675,115.035,38.675,110.308Z" transform="translate(0 -82.399)"/><path class="b" d="M424.736,101.75v17.116a8.558,8.558,0,0,0,0-17.116Z" transform="translate(-321.88 -82.399)"/><path class="c" d="M391.147,110.308c0-4.727-1.277-8.558-2.853-8.558a8.558,8.558,0,0,0,0,17.116C389.87,118.866,391.147,115.035,391.147,110.308Z" transform="translate(-285.439 -82.399)"/><path class="b" d="M424.736,305.25v17.116a8.558,8.558,0,0,0,0-17.116Z" transform="translate(-321.88 -247.197)"/><path class="c" d="M391.147,313.808c0-4.727-1.277-8.558-2.853-8.558a8.558,8.558,0,1,0,0,17.116C389.87,322.366,391.147,318.535,391.147,313.808Z" transform="translate(-285.439 -247.197)"/><path class="b" d="M72.264,305.25v17.116a8.558,8.558,0,1,0,0-17.116Z" transform="translate(-36.442 -247.197)"/><path class="c" d="M38.675,313.808c0-4.727-1.277-8.558-2.853-8.558a8.558,8.558,0,1,0,0,17.116C37.4,322.366,38.675,318.535,38.675,313.808Z" transform="translate(0 -247.197)"/><path class="b" d="M248.5,407v17.116a8.558,8.558,0,1,0,0-17.116Z" transform="translate(-179.161 -329.596)"/><path class="c" d="M214.911,415.558c0-4.727-1.277-8.558-2.853-8.558a8.558,8.558,0,1,0,0,17.116C213.634,424.116,214.911,420.285,214.911,415.558Z" transform="translate(-142.719 -329.596)"/><path class="d" d="M137.415,184.361a1.417,1.417,0,0,0-.191.713v22.791a1.426,1.426,0,0,0,.713,1.235l19.737,11.4a1.425,1.425,0,0,0,.713.191l15.458-36.437Z" transform="translate(-89.048 -149.209)"/><path class="e" d="M269.473,184.361,248.5,184.25l15.459,27.732,4.992-2.882a1.427,1.427,0,0,0,.713-1.235V185.073A1.419,1.419,0,0,0,269.473,184.361Z" transform="translate(-179.161 -149.209)"/><path class="f" d="M263.962,187.544,248.5,184.25v36.437a1.425,1.425,0,0,0,.713-.191l14.745-8.513v-6.588l-2.853-3.294,2.853-3.294Z" transform="translate(-179.164 -149.209)"/><path class="g" d="M288.257,260.789,278.5,266.42v6.588l9.753-5.631Z" transform="translate(-203.459 -211.192)"/><path class="d" d="M223.9,132.747l-19.737-11.4a1.426,1.426,0,0,0-1.426,0l-9.868,5.7,2.853,12.221h18.311l10.391-6A1.427,1.427,0,0,0,223.9,132.747Z" transform="translate(-134.106 -98.118)"/><path class="h" d="M148.619,152.12l-9.869,5.7a1.428,1.428,0,0,0-.522.523L159.2,170.45l10.582-6.109Z" transform="translate(-89.861 -123.19)"/></g></svg>