<svg xmlns="http://www.w3.org/2000/svg" width="765.694" height="570.608" viewBox="0 0 765.694 570.608"><defs><style>.a{fill:#ebebeb;}.b{fill:#f0f0f0;}.c{fill:#e0e0e0;}.d{fill:#fafafa;}.e{fill:#f5f5f5;}.f{fill:#e6e6e6;}.g,.o{fill:#fff;}.h{fill:#3685c3;}.i{fill:#263238;}.j{fill:#f6861f;}.k{fill:#fbd6a0;}.l{fill:#7f3e3b;}.m{fill:#fc9763;}.n,.r{opacity:0.2;}.o,.p{opacity:0.5;}.q{opacity:0.3;}.r{fill:#407bff;}</style></defs><g transform="translate(0 -54.953)"><g transform="translate(0 54.953)"><rect class="a" width="765.694" height="0.383" transform="translate(0 501.446)"/><rect class="a" width="149.459" height="0.383" transform="translate(508.591 511.875)"/><rect class="a" width="71.465" height="0.383" transform="translate(442.571 520.722)"/><rect class="a" width="29.391" height="0.383" transform="translate(659.582 526.095)"/><rect class="a" width="141.694" height="0.383" transform="translate(193.68 520.913)"/><rect class="a" width="30.48" height="0.383" transform="translate(149.566 520.913)"/><rect class="a" width="50.325" height="0.383" transform="translate(88.502 514.448)"/><path class="a" d="M342.658,488.1H46.948a8.752,8.752,0,0,1-8.741-8.741V63.693a8.751,8.751,0,0,1,8.741-8.74H342.658a8.75,8.75,0,0,1,8.74,8.74V479.36A8.752,8.752,0,0,1,342.658,488.1ZM46.948,55.336a8.367,8.367,0,0,0-8.358,8.357V479.36a8.367,8.367,0,0,0,8.358,8.358H342.658a8.367,8.367,0,0,0,8.357-8.358V63.693a8.366,8.366,0,0,0-8.357-8.357Z" transform="translate(20.303 -54.953)"/><path class="a" d="M558.953,488.1H263.245a8.751,8.751,0,0,1-8.74-8.741V63.693a8.749,8.749,0,0,1,8.74-8.74H558.953a8.751,8.751,0,0,1,8.743,8.74V479.36A8.752,8.752,0,0,1,558.953,488.1ZM263.245,55.336a8.366,8.366,0,0,0-8.357,8.357V479.36a8.367,8.367,0,0,0,8.357,8.358H558.953a8.368,8.368,0,0,0,8.36-8.358V63.693a8.368,8.368,0,0,0-8.36-8.357Z" transform="translate(135.241 -54.953)"/><g transform="translate(100.604 42.024)"><g transform="translate(0 131.569)"><path class="b" d="M561.144,482.068H98.6L71.023,168.31h462.54Z" transform="translate(-62.863 -168.31)"/><path class="c" d="M93.263,492.063l8.173-9.995L73.854,168.31l-8.159,10.148Z" transform="translate(-65.695 -168.31)"/><path class="d" d="M101.848,467.671,76.441,178.651a5.212,5.212,0,0,1,5.19-5.666H519.392a5.212,5.212,0,0,1,5.19,4.753l25.407,289.02a5.211,5.211,0,0,1-5.19,5.666H107.038A5.212,5.212,0,0,1,101.848,467.671Z" transform="translate(-59.995 -165.826)"/><path class="c" d="M157.378,373.195H87.689l-4.929,14.095h69.689Z" transform="translate(-56.626 -59.437)"/><path class="e" d="M133.2,373.195H591.422l-4.929,14.095H128.268Z" transform="translate(-32.444 -59.437)"/><path class="c" d="M255.03,373.195h87.837l-.945,9.228H254.085Z" transform="translate(34.414 -59.437)"/></g><g transform="translate(310.314)"><path class="c" d="M355.834,154.864h110.98c9.2,60.882-33.335,110.98-94.216,110.98a123.736,123.736,0,0,1-57.736-14.868Z" transform="translate(-243.604 -43.886)"/><path class="a" d="M341.617,184.364l58.494-85.015a138.293,138.293,0,0,1,35,38.113,125.325,125.325,0,0,1,17.482,46.9Z" transform="translate(-229.387 -73.386)"/><path class="f" d="M347.434,193.373,330.671,82.4a119.72,119.72,0,0,1,38.968,6.692,134.2,134.2,0,0,1,36.289,19.271Z" transform="translate(-235.203 -82.395)"/><path class="b" d="M380.561,193.373l-40.972,96.111c-37.285-19.8-64.026-56.511-70.007-96.111C260.385,132.493,302.916,82.4,363.8,82.4Z" transform="translate(-268.33 -82.395)"/></g><g transform="translate(185.988 210.581)"><path class="a" d="M252.155,284.19H350.6a96,96,0,0,1,.495,25.479,85.943,85.943,0,0,1-6.25,23.743Z" transform="translate(-152.6 -185.745)"/><path class="c" d="M252.155,317.832l2.45-96.951c23.4,4.018,45.854,15.945,63.4,33.671s29.095,40.141,32.591,63.28Z" transform="translate(-152.6 -219.386)"/><path class="b" d="M286.7,318.35l-87.422,33.671a109.442,109.442,0,0,1-11.023-33.671c-8.158-54.006,29.57-98.445,83.576-98.445a102.491,102.491,0,0,1,17.32,1.495Z" transform="translate(-187.146 -219.905)"/><path class="g" d="M282.49,284.19l92.69,49.222c-12.968,30.423-42.694,49.223-77.821,49.223-41.289,0-82.311-25.975-102.292-64.775Z" transform="translate(-182.936 -185.745)"/></g></g></g><g transform="translate(85.928 590.88)"><ellipse class="e" cx="296.92" cy="17.341" rx="296.92" ry="17.341"/></g><g transform="translate(113.097 83.644)"><g transform="translate(92.559 136.437)"><path class="g" d="M296.837,279.864H158.9a17.641,17.641,0,0,1-17.213-15.916l-6.905-84.817A14.493,14.493,0,0,1,149.4,163.215h137.94a17.64,17.64,0,0,1,17.211,15.916l6.905,84.817A14.492,14.492,0,0,1,296.837,279.864Z" transform="translate(-134.063 -162.552)"/><path class="h" d="M297.067,280.756H159.127a18.28,18.28,0,0,1-17.873-16.524l-6.905-84.816a15.155,15.155,0,0,1,15.282-16.634h137.94a18.283,18.283,0,0,1,17.873,16.525l6.905,84.817a15.153,15.153,0,0,1-15.282,16.631ZM149.631,164.107a13.831,13.831,0,0,0-13.96,15.2l6.905,84.817a16.932,16.932,0,0,0,16.551,15.306h137.94a13.83,13.83,0,0,0,13.96-15.2l-6.907-84.816a16.931,16.931,0,0,0-16.55-15.309Z" transform="translate(-134.294 -162.782)"/><g transform="translate(41.537 11.534)"><path class="c" d="M223.967,246.5a42.766,42.766,0,0,1-20.274,12.282l-2.283-6.539c16.985-4.642,28.481-20.478,26.948-39.3a44.277,44.277,0,0,0-14.253-28.769l4.4-4.789C238.413,197.8,240.878,228.1,223.967,246.5Z" transform="translate(-140.165 -165.491)"/><path class="i" d="M235.86,184.214l-4.4,4.789a44,44,0,0,0-29.738-11.911,37.282,37.282,0,0,0-27.784,11.923l-5.193-4.8a43.7,43.7,0,0,1,32.426-13.9A51.459,51.459,0,0,1,235.86,184.214Z" transform="translate(-157.522 -170.314)"/><path class="j" d="M224.945,258.786c-16,4.377-33.888-.317-46.839-12.282-19.894-18.409-22.361-48.7-5.464-67.113l5.193,4.8a37.554,37.554,0,0,0-9.57,28.756c1.828,22.455,21.522,40.666,43.977,40.666a39.84,39.84,0,0,0,10.42-1.368Z" transform="translate(-161.417 -165.491)"/></g></g><rect class="h" width="11.06" height="1.325" transform="translate(56.376)"/><rect class="h" width="25.183" height="1.325" transform="translate(20.474)"/><g transform="translate(0 4.595)"><path class="g" d="M236.4,193.771H98.456a17.64,17.64,0,0,1-17.213-15.917L74.338,93.038a14.493,14.493,0,0,1,14.62-15.916H226.9a17.64,17.64,0,0,1,17.211,15.916l6.9,84.816A14.494,14.494,0,0,1,236.4,193.771Z" transform="translate(-73.622 -76.459)"/><path class="h" d="M236.626,194.664H98.685a18.281,18.281,0,0,1-17.871-16.527L73.908,93.321a15.153,15.153,0,0,1,15.28-16.632h137.94A18.283,18.283,0,0,1,245,93.213l6.905,84.817a15.158,15.158,0,0,1-15.282,16.634ZM89.189,78.014a13.83,13.83,0,0,0-13.959,15.2l6.905,84.817a16.931,16.931,0,0,0,16.55,15.308H236.626a13.828,13.828,0,0,0,13.959-15.2l-6.9-84.816a16.935,16.935,0,0,0-16.553-15.308Z" transform="translate(-73.853 -76.689)"/></g><g transform="translate(12.604 22.374)"><path class="c" d="M82.671,95.52h73.1l-.588-7.221h-73.1Z" transform="translate(-82.083 -88.299)"/><path class="j" d="M203.5,95.52H130.4l-.588-7.221h73.1Z" transform="translate(-56.718 -88.299)"/><path class="c" d="M83.67,107.8h20.853l-.588-7.221H83.082Z" transform="translate(-81.552 -81.776)"/><path class="h" d="M222.627,107.8H97.287l-.588-7.221h125.34Z" transform="translate(-74.316 -81.776)"/><path class="c" d="M84.669,120.071h65.065l-.588-7.221H84.081Z" transform="translate(-81.021 -75.253)"/><path class="j" d="M208.285,120.071H127.157l-.588-7.221H207.7Z" transform="translate(-58.443 -75.253)"/><path class="c" d="M85.669,132.347H196.713l-.588-7.221H85.081Z" transform="translate(-80.49 -68.73)"/><path class="h" d="M193.329,132.347H158.181l-.588-7.221h35.148Z" transform="translate(-41.957 -68.73)"/><path class="c" d="M86.668,144.622h51.359l-.588-7.221H86.08Z" transform="translate(-79.958 -62.207)"/><path class="j" d="M215.039,144.622H120.206l-.588-7.221h94.834Z" transform="translate(-62.137 -62.207)"/></g><g transform="translate(188.571 4.595)"><path class="g" d="M359.532,193.771H221.593a17.64,17.64,0,0,1-17.211-15.917l-6.905-84.816A14.491,14.491,0,0,1,212.1,77.122h137.94a17.64,17.64,0,0,1,17.211,15.916l6.905,84.816A14.493,14.493,0,0,1,359.532,193.771Z" transform="translate(-196.759 -76.459)"/><path class="h" d="M359.763,194.664H221.823a18.283,18.283,0,0,1-17.873-16.527l-6.905-84.816a15.153,15.153,0,0,1,15.28-16.632H350.267A18.28,18.28,0,0,1,368.14,93.213l6.905,84.817a15.157,15.157,0,0,1-15.282,16.634ZM212.325,78.014a13.83,13.83,0,0,0-13.959,15.2l6.905,84.817a16.933,16.933,0,0,0,16.551,15.308h137.94a13.83,13.83,0,0,0,13.959-15.2l-6.9-84.816a16.932,16.932,0,0,0-16.551-15.308Z" transform="translate(-196.99 -76.689)"/><g transform="translate(18.585 17.779)"><path class="c" d="M261.3,170.714h-2.435L252.157,88.3h2.435Z" transform="translate(-186.259 -88.299)"/><path class="j" d="M266.769,130.927H251.407l-2.622-32.2h15.363Z" transform="translate(-188.051 -82.758)"/><path class="c" d="M241.558,170.714h-2.435L232.414,88.3h2.435Z" transform="translate(-196.751 -88.299)"/><path class="j" d="M247.294,134.218H231.931l-2.3-28.226H245Z" transform="translate(-198.228 -78.897)"/><path class="c" d="M221.815,170.714H219.38L212.671,88.3h2.435Z" transform="translate(-207.242 -88.299)"/><path class="i" d="M226.066,115.984H210.7L209.126,96.6h15.363Z" transform="translate(-209.126 -83.885)"/><path class="c" d="M281.045,170.714H278.61L271.9,88.3h2.435Z" transform="translate(-175.768 -88.299)"/><path class="i" d="M288,149.205H272.638l-4.11-50.479h15.363Z" transform="translate(-177.56 -82.758)"/><path class="c" d="M300.788,170.714h-2.435L291.644,88.3h2.435Z" transform="translate(-165.276 -88.299)"/><path class="j" d="M307.782,149.667H292.419l-3.291-40.428H304.49Z" transform="translate(-166.614 -77.171)"/></g></g><g transform="translate(40.957 267.194)"><path class="g" d="M263.141,365.249H125.2a17.64,17.64,0,0,1-17.211-15.916l-6.907-84.817A14.493,14.493,0,0,1,115.705,248.6h137.94a17.64,17.64,0,0,1,17.211,15.916l6.9,84.817A14.492,14.492,0,0,1,263.141,365.249Z" transform="translate(-100.368 -247.937)"/><path class="h" d="M263.371,366.141H125.431a18.28,18.28,0,0,1-17.873-16.524L100.653,264.8a15.155,15.155,0,0,1,15.282-16.632h137.94a18.283,18.283,0,0,1,17.873,16.525l6.905,84.817a15.153,15.153,0,0,1-15.282,16.631ZM115.935,249.492a13.833,13.833,0,0,0-13.96,15.2l6.905,84.817a16.934,16.934,0,0,0,16.551,15.306h137.94a13.832,13.832,0,0,0,13.959-15.2l-6.9-84.818a16.933,16.933,0,0,0-16.551-15.308Z" transform="translate(-100.598 -248.167)"/><g transform="translate(26.152 18.707)"><path class="j" d="M125.522,291.693l29.73,34.35,34.094-52.59,21.084,27.177,5.145-7.936L250.036,334l-132.362-.049Z" transform="translate(-117.675 -253.438)"/><path class="c" d="M224.77,300.77l-13.817,29.588L166.88,260.383l-20.753,44.438-6.651-10.559-21.8,46.68,132.352-.066Z" transform="translate(-117.673 -260.383)"/></g></g></g><g transform="translate(413.179 141.302)"><path class="k" d="M378.556,160.656c3.689,6.925,6.859,13.766,9.844,20.893a194.277,194.277,0,0,1,7.7,22.027c.537,1.9,1,3.858,1.447,5.827a20.994,20.994,0,0,1,.606,4.153,21.539,21.539,0,0,1-.233,4.155,39.956,39.956,0,0,1-4.554,12.68,85.364,85.364,0,0,1-14.315,19.063,4.332,4.332,0,0,1-6.953-5.009l.109-.208a151.593,151.593,0,0,0,8.729-19.372,30.372,30.372,0,0,0,1.891-8.729,8.278,8.278,0,0,0-.121-1.447,1.447,1.447,0,0,0-.13-.452l-.283-.9c-.51-1.651-1.034-3.3-1.646-4.963-2.32-6.649-5.188-13.326-8.165-19.949-2.968-6.6-6.161-13.318-9.317-19.7l-.064-.129a8.688,8.688,0,0,1,15.455-7.936Z" transform="translate(-220.71 -87.577)"/><path class="l" d="M372.287,213.271l-7.308,2.3,8.6,10.07a16.747,16.747,0,0,0,4.516-7.152,3.563,3.563,0,0,0-1.389-3.822l-1.219-.881A3.613,3.613,0,0,0,372.287,213.271Z" transform="translate(-219.233 -57.262)"/><path class="l" d="M358.4,220.924l9.218,7.313,9.452-3.451-8.6-10.071Z" transform="translate(-222.727 -56.406)"/><path class="i" d="M338.613,126.263c-.185.907-.815,1.544-1.406,1.423s-.923-.953-.74-1.858.813-1.544,1.406-1.423S338.8,125.358,338.613,126.263Z" transform="translate(-234.411 -104.404)"/><path class="m" d="M339.422,126.632s-3.122,4.809-5.9,6.868c1.3,1.822,4.162,1.692,4.162,1.692Z" transform="translate(-235.951 -103.213)"/><path class="i" d="M342.305,123.721a.543.543,0,0,0,.4-.911,5.388,5.388,0,0,0-4.62-1.8.543.543,0,0,0,.181,1.07h0a4.312,4.312,0,0,1,3.642,1.464A.543.543,0,0,0,342.305,123.721Z" transform="translate(-233.765 -106.218)"/><path class="k" d="M363.021,136.381c-1.643,8.386-2.635,20,3.231,25.6,0,0-2.293,8.507-17.874,8.507-17.133,0-8.242-7.466-8.242-7.466,7.121-2.21,7.06-10.322,5.43-16.838Z" transform="translate(-233.66 -98.032)"/><path class="h" d="M337.374,156.121s2.5-5.919,5.051-6.94,18.8-3.692,22.545-1.337,6.271,9.93,6.271,9.93Z" transform="translate(-233.902 -92.443)"/><path class="j" d="M349.817,409.938c-1.47,0-2.891-.2-3.368-.864a1.028,1.028,0,0,1,.023-1.187,1.351,1.351,0,0,1,.861-.636c1.907-.518,5.913,1.764,6.083,1.862a.268.268,0,0,1,.132.279.272.272,0,0,1-.214.224A20.13,20.13,0,0,1,349.817,409.938ZM348,407.714a1.988,1.988,0,0,0-.524.063.816.816,0,0,0-.533.38c-.191.337-.121.5-.052.6.533.74,3.43.758,5.562.456A12.271,12.271,0,0,0,348,407.714Z" transform="translate(-229.172 45.865)"/><path class="j" d="M352.249,410.573a.257.257,0,0,1-.11-.024c-1.384-.62-4.124-3.1-3.914-4.4.049-.3.265-.683,1.011-.76a1.984,1.984,0,0,1,1.505.466c1.458,1.2,1.766,4.285,1.779,4.417a.27.27,0,0,1-.271.3Zm-2.8-4.646a1.431,1.431,0,0,0-.162.008c-.488.049-.521.242-.53.3-.126.778,1.737,2.726,3.149,3.574-.149-.9-.556-2.749-1.513-3.534A1.443,1.443,0,0,0,349.453,405.927Z" transform="translate(-228.142 44.912)"/><path class="k" d="M363.453,417.805H351.991l-1.142-26.544h11.462Z" transform="translate(-226.741 37.408)"/><path class="i" d="M359.54,407.728h12.517a1,1,0,0,1,.977.783L375.3,418.7a1.669,1.669,0,0,1-1.649,2.04c-4.515-.077-11.04-.342-16.715-.342-6.635,0-7.439.361-15.22.361-4.706,0-6.012-4.758-4.043-5.188,8.966-1.962,11.36-2.172,19.109-6.949A5.306,5.306,0,0,1,359.54,407.728Z" transform="translate(-234.215 46.158)"/><path class="i" d="M374.819,153.23c10.744,2.462,17.832,31.455,17.832,31.455l-17.937,13.473s-9.784-6.061-13.308-19.781C357.712,164,363.836,150.712,374.819,153.23Z" transform="translate(-221.704 -89.243)"/><path class="n" d="M365.435,166.293c5.836,5.773,9.606,14.887,10.058,24.029l-.951.734s-9.793-6.07-13.32-19.786c-.218-.858-.406-1.717-.561-2.559Z" transform="translate(-221.527 -82.137)"/><g transform="translate(104.712 107.121)"><g transform="translate(0 0)"><rect class="j" width="93.714" height="69.695" transform="translate(0 34.778) rotate(-21.784)"/><rect class="o" width="92.336" height="69.695" transform="translate(0 34.778) rotate(-21.784)"/></g><g class="p" transform="translate(7.591 8.358)"><rect class="j" width="8.742" height="6.197" transform="translate(0 30.029) rotate(-21.784)"/><rect class="j" width="8.742" height="6.197" transform="translate(13.404 24.672) rotate(-21.784)"/><rect class="j" width="8.742" height="6.197" transform="translate(26.809 19.315) rotate(-21.784)"/><rect class="j" width="8.742" height="6.197" transform="translate(40.213 13.958) rotate(-21.784)"/><rect class="j" width="8.742" height="6.197" transform="translate(53.617 8.601) rotate(-21.784)"/><rect class="j" width="8.742" height="6.197" transform="translate(67.021 3.244) rotate(-21.785)"/><rect class="j" width="8.742" height="6.197" transform="translate(3.797 39.53) rotate(-21.783)"/><rect class="j" width="8.742" height="6.197" transform="translate(17.201 34.173) rotate(-21.784)"/><rect class="j" width="8.742" height="6.197" transform="translate(30.606 28.816) rotate(-21.784)"/><rect class="j" width="8.742" height="6.197" transform="translate(44.01 23.46) rotate(-21.784)"/><rect class="j" width="8.742" height="6.197" transform="translate(57.414 18.103) rotate(-21.784)"/><rect class="j" width="8.742" height="6.197" transform="translate(70.819 12.746) rotate(-21.784)"/><rect class="j" width="8.742" height="6.197" transform="translate(7.594 49.032) rotate(-21.784)"/><rect class="j" width="8.742" height="6.197" transform="translate(20.999 43.675) rotate(-21.783)"/><rect class="j" width="8.742" height="6.197" transform="translate(34.403 38.318) rotate(-21.784)"/><rect class="j" width="8.742" height="6.197" transform="translate(47.807 32.961) rotate(-21.784)"/><rect class="j" width="8.742" height="6.197" transform="translate(61.211 27.604) rotate(-21.785)"/><rect class="j" width="8.742" height="6.197" transform="translate(74.616 22.247) rotate(-21.785)"/><rect class="j" width="8.742" height="6.197" transform="translate(11.391 58.533) rotate(-21.784)"/><rect class="j" width="8.742" height="6.197" transform="translate(24.796 53.176) rotate(-21.784)"/><rect class="j" width="8.742" height="6.197" transform="translate(38.2 47.819) rotate(-21.783)"/><rect class="j" width="8.742" height="6.197" transform="translate(51.604 42.462) rotate(-21.784)"/><rect class="j" width="8.742" height="6.197" transform="translate(65.009 37.106) rotate(-21.784)"/><rect class="j" width="8.742" height="6.197" transform="translate(78.413 31.749) rotate(-21.784)"/><rect class="j" width="8.742" height="6.197" transform="translate(15.189 68.035) rotate(-21.783)"/><rect class="j" width="8.742" height="6.197" transform="translate(28.593 62.678) rotate(-21.784)"/><rect class="j" width="8.742" height="6.197" transform="translate(41.997 57.321) rotate(-21.784)"/><rect class="j" width="8.742" height="6.197" transform="translate(55.401 51.964) rotate(-21.784)"/><rect class="j" width="8.742" height="6.197" transform="translate(68.806 46.607) rotate(-21.785)"/><rect class="j" width="8.742" height="6.197" transform="translate(82.21 41.25) rotate(-21.784)"/><rect class="j" width="8.742" height="6.197" transform="translate(18.986 77.536) rotate(-21.784)"/><rect class="j" width="8.742" height="6.197" transform="translate(32.39 72.179) rotate(-21.784)"/><rect class="j" width="8.742" height="6.197" transform="translate(45.794 66.822) rotate(-21.784)"/><rect class="j" width="8.742" height="6.197" transform="translate(59.199 61.465) rotate(-21.784)"/><rect class="j" width="8.742" height="6.197" transform="translate(72.603 56.108) rotate(-21.783)"/><rect class="j" width="8.742" height="6.197" transform="translate(86.007 50.751) rotate(-21.784)"/></g><g transform="translate(27.819 17.208)"><path class="g" d="M390.37,195.857a2.428,2.428,0,1,1,3.156,1.354A2.429,2.429,0,0,1,390.37,195.857Z" transform="translate(-338.363 -192.526)"/><path class="g" d="M389.055,217.969a2.429,2.429,0,1,1,3.158,1.354A2.429,2.429,0,0,1,389.055,217.969Z" transform="translate(-339.062 -180.777)"/><path class="g" d="M369.07,218.76a2.428,2.428,0,1,1,3.156,1.355A2.429,2.429,0,0,1,369.07,218.76Z" transform="translate(-349.682 -180.356)"/><path class="g" d="M356.523,238.166a2.429,2.429,0,1,1,3.156,1.354A2.43,2.43,0,0,1,356.523,238.166Z" transform="translate(-356.349 -170.044)"/><path class="g" d="M358.247,260.116a.886.886,0,0,1-.488-.146.9.9,0,0,1-.267-1.243l19.214-29.718a.894.894,0,0,1,.72-.409l29.792-1.182,1.963-33.047a.918.918,0,0,1,.952-.845.9.9,0,0,1,.845.953l-2.012,33.862a.9.9,0,0,1-.862.844l-30.141,1.2L359,259.7A.9.9,0,0,1,358.247,260.116Z" transform="translate(-355.819 -191.996)"/></g></g><path class="i" d="M326.14,165.648c-2.343,12.383-3.809,37.811,2.994,88.17h61.308c-1.107-8.734-5.492-55.32,3.585-99.663a159.89,159.89,0,0,0-20.522-2.591c-7.835-.378-19.175-.628-26.061,0-2.874.263-5.7.678-8.211,1.122A16.22,16.22,0,0,0,326.14,165.648Z" transform="translate(-240.912 -90.168)"/><path class="n" d="M335.782,173.08,324.266,174c-.414,14.9.613,36.646,4.87,68.177h.551C336.594,219.466,345.752,187,335.782,173.08Z" transform="translate(-240.912 -78.531)"/><g transform="translate(124.111 428.677)"><path class="n" d="M350.851,391.266l.586,13.682H362.9l-.586-13.682Z" transform="translate(-350.851 -391.266)"/></g><path class="k" d="M369.707,135.211c-2.945,10.988-4.11,17.57-10.89,22.138-10.2,6.873-22.9-1.014-23.3-12.662-.357-10.482,4.519-26.691,16.311-28.9A15.515,15.515,0,0,1,369.707,135.211Z" transform="translate(-234.897 -109.13)"/><path class="i" d="M343.106,137.492l-5.956,1.548,5.542-14.374a16.207,16.207,0,0,1-.51-11.087,3.262,3.262,0,0,1,3.037-2.234c12.346-.24,25.25,6.689,31.753,11.93a3.2,3.2,0,0,1,.721,4.159,36.978,36.978,0,0,1-5.591,6.479c-.122,4.024-6.7,22.21-10.332,24.253s-10.593,1.211-12.443-2.106S341.223,148.339,343.106,137.492Z" transform="translate(-234.021 -111.339)"/><path class="k" d="M347.945,130.417a12.864,12.864,0,0,1-4.438,6.963c-2.92,2.3-5.207.176-5.087-3.2.107-3.043,1.758-7.905,5.023-8.9C346.658,124.306,348.71,127.1,347.945,130.417Z" transform="translate(-233.349 -104.035)"/><path class="j" d="M413.082,407.627c-.009-1.472.184-2.893.842-3.374a1.029,1.029,0,0,1,1.187.015,1.353,1.353,0,0,1,.64.856c.531,1.905-1.726,5.925-1.822,6.095a.271.271,0,0,1-.5-.078A20.042,20.042,0,0,1,413.082,407.627Zm2.211-1.832a2,2,0,0,0-.066-.525.815.815,0,0,0-.383-.528c-.338-.19-.505-.119-.6-.049-.738.538-.737,3.435-.421,5.563A12.276,12.276,0,0,0,415.293,405.8Z" transform="translate(-193.672 44.218)"/><path class="j" d="M413.3,410.065a.282.282,0,0,1,.023-.112c.613-1.388,3.074-4.144,4.371-3.942.3.047.685.26.766,1.006a1.98,1.98,0,0,1-.456,1.508c-1.188,1.466-4.273,1.793-4.4,1.807a.271.271,0,0,1-.3-.268Zm4.629-2.827c0-.054,0-.109-.009-.162-.054-.488-.247-.519-.309-.528-.778-.121-2.715,1.753-3.554,3.171.9-.153,2.746-.573,3.525-1.536A1.442,1.442,0,0,0,417.932,407.238Z" transform="translate(-193.554 45.241)"/><path class="k" d="M419.478,417.989l-11.185.792-6.283-26.757,11.185-.792Z" transform="translate(-199.556 37.393)"/><path class="i" d="M419.2,407.41l-12.47-1.1a1,1,0,0,0-1.04.694l-3.155,9.949A1.668,1.668,0,0,0,404,419.127c4.5.322,11.026.633,16.68,1.133,6.611.585,2.329.57,10.081,1.256,4.688.415,6.407-4.208,4.484-4.812-8.76-2.744-10.346-4.64-13.374-8.161A3.921,3.921,0,0,0,419.2,407.41Z" transform="translate(-199.317 45.401)"/><g transform="translate(202.458 428.631)"><path class="n" d="M402.012,392.028l3.237,13.792,11.19-.792L413.2,391.236Z" transform="translate(-402.012 -391.236)"/></g><path class="h" d="M341.617,218.2s26.366,88.044,36.37,120.727c10.954,35.789,52.637,154.523,52.637,154.523l20.21-4.443S422.283,387,410.442,337.085C401.349,298.746,381.177,218.2,381.177,218.2Z" transform="translate(-231.647 -54.553)"/><path class="j" d="M397.422,394.533c-.092.011,1.989,7.894,1.989,7.894l24.309-2.611-.112-7.224Z" transform="translate(-201.995 38.116)"/><path class="q" d="M351.953,244.869c14.588,1.923,20.4,52.767,22.582,82.6-.276-.945-.567-1.841-.821-2.689-5.459-17.844-15.8-52.228-24.064-79.752A5.112,5.112,0,0,1,351.953,244.869Z" transform="translate(-227.379 -40.414)"/><path class="h" d="M327.416,218.2s8.842,85.749,12.652,120.655c3.962,36.309,18.836,155.4,18.836,155.4h19.416s-2.354-116.922-3.135-152.627c-.853-38.928-7.472-123.431-7.472-123.431Z" transform="translate(-239.194 -54.553)"/><path class="j" d="M346.007,393.42c-.089,0,1.095,8.061,1.095,8.061h23.62l.639-7.194Z" transform="translate(-229.317 38.555)"/><g transform="translate(0 182.289)"><path class="i" d="M275.1,289.167a34.362,34.362,0,1,0,10.743-47.395A34.364,34.364,0,0,0,275.1,289.167Zm53.536-33.75a28.924,28.924,0,1,1-39.893-9.046A28.924,28.924,0,0,1,328.64,255.417Z" transform="translate(-269.807 -227.132)"/><path class="r" d="M327.3,273.977a26.506,26.506,0,1,1-19.989-31.712A26.506,26.506,0,0,1,327.3,273.977Z" transform="translate(-267.082 -224.407)"/><path class="i" d="M312.909,244.5l3.22,5.109a1.662,1.662,0,0,1-.519,2.292h0a1.661,1.661,0,0,1-2.291-.521L310.1,246.27a1.661,1.661,0,0,1,.521-2.291h0A1.66,1.66,0,0,1,312.909,244.5Z" transform="translate(-248.532 -223.281)"/><path class="i" d="M333.322,237.068q-5.584,3.813-11.067,7.79c-3.648,2.663-7.265,5.377-10.775,8.257a2.283,2.283,0,0,0,2.417,3.833c4.113-1.925,8.119-4.018,12.095-6.161s7.9-4.364,11.8-6.628q4.978-2.9,9.884-5.9a1.984,1.984,0,0,0,.643-2.749l-2.654-4.208a1.984,1.984,0,0,0-2.758-.606Q338.085,233.832,333.322,237.068Z" transform="translate(-248.106 -230.374)"/></g><path class="k" d="M347.478,167.048c-1.874,9.193-3.887,18.354-5.974,27.493l-6.352,27.343c-2.054,8.914-3.813,17.954-5.426,27.121l-4.819,27.573-.011.063a4.323,4.323,0,0,1-8.579-.6c-.331-9.571-.184-19.037.352-28.563a280.267,280.267,0,0,1,3.012-28.609c1.492-9.371,3.17-18.634,4.965-27.888s3.734-18.461,5.854-27.631a8.688,8.688,0,0,1,16.977,3.7Z" transform="translate(-245.185 -87.278)"/><path class="k" d="M324.028,233.668a3.177,3.177,0,0,0-3.038-.9l-2.49.594a3.16,3.16,0,0,0-2.4,2.665l-.72,5.53a7.043,7.043,0,0,0,.957,4.557l3.418,5.657a3.847,3.847,0,0,0,3.87,1.444l3.564-.757a3.849,3.849,0,0,0,2.864-4.951l-.934-2.882A17.681,17.681,0,0,0,324.028,233.668Z" transform="translate(-245.622 -46.859)"/><path class="i" d="M357.612,164.03c5.573,14.784-13.7,35.867-13.7,35.867l-24.39-8.067s1.867-20.171,10.332-31.544C340.309,146.239,353.37,152.778,357.612,164.03Z" transform="translate(-243.39 -89.576)"/></g></g></svg>