<?xml version="1.0" encoding="utf-8"?>
<!-- Generator: Adobe Illustrator 23.1.0, SVG Export Plug-In . SVG Version: 6.00 Build 0)  -->
<svg version="1.1" id="Layer_1" xmlns="http://www.w3.org/2000/svg" xmlns:xlink="http://www.w3.org/1999/xlink" x="0px" y="0px"
	 viewBox="0 0 1080 284" style="enable-background:new 0 0 1080 284;" xml:space="preserve">
<style type="text/css">
	.st0{fill:#FFFFFF;stroke:#FFFFFF;stroke-width:6.8818;stroke-miterlimit:10;}
	.st1{fill:none;stroke:#FFFFFF;stroke-width:15.7232;stroke-linecap:square;stroke-miterlimit:10;}
	.st2{fill:none;stroke:#FFFFFF;stroke-width:15.7232;stroke-linecap:round;stroke-linejoin:round;}
	.st3{fill:none;stroke:#FFFFFF;stroke-width:7.9756;stroke-miterlimit:10;}
</style>
<path class="st0" d="M191,218c-0.1,2.7-2.2,4.9-5,5c-1,0.1-2.1-0.2-3-0.7c-0.7-0.6-1.4-1.2-2-2L64.3,85.2V218c0,2.7-2.2,5-5,5
	c-2.7,0-5-2.2-5-5V71.3c0-0.6-0.1-1.3-0.3-1.9C54,69,54,68.5,54,68c0.1-0.4,0.5-0.7,1.1-1c1.2-0.3,2.5-0.4,3.7-0.4
	c1,0,1.9,0.4,2.6,1.1l2.8,2.9c1.5,1.5,3.5,3.6,6.1,6.4c2.6,2.8,6.3,7.1,11.3,12.8s11.7,13.6,20.3,23.6s19.4,22.5,32.2,37.7
	s28.5,33.4,46.8,54.9V71.3c0-0.6-0.1-1.3-0.4-1.9c-0.2-0.5-0.3-1-0.3-1.5c0.1-0.4,0.5-0.7,1.2-1c1.3-0.3,2.5-0.4,3.8-0.4
	c2.6,0,4.2,0.5,4.7,1.4c0.5,1,0.8,2.2,0.7,3.3L191,218z"/>
<path class="st0" d="M337.7,218c-0.1,2.7-2.2,4.9-5,5h-97.9c-1.2,0-2.4-0.5-3.2-1.5c-0.8-1-1.3-2.2-1.2-3.4V73.3
	c0-0.7-0.1-1.4-0.4-2.1c-0.2-0.7-0.4-1.4-0.4-2.1c0-0.6,0.2-1.2,0.6-1.7c0.7-0.6,1.7-0.9,2.6-0.7h99.9c2.7,0,5,2.2,5,5
	c0,2.7-2.2,5-5,5h-92.4v70.6h76.3c2.7,0,5,2.2,5,5c0,2.7-2.2,5-5,5h-76.3v56h92.4C335.4,213.1,337.6,215.3,337.7,218z"/>
<path class="st0" d="M674.2,218c-0.1,2.7-2.2,4.9-5,5H568.9c-1.2,0-2.4-0.5-3.2-1.5c-0.8-1-1.3-2.2-1.2-3.5V71.7
	c0-0.6-0.1-1.3-0.2-1.9c-0.2-0.5-0.2-1.1,0-1.6c0.2-0.6,0.7-1,1.2-1.1c1.1-0.3,2.3-0.4,3.5-0.4c1.5-0.1,3,0.4,4.1,1.5
	c0.9,0.9,1.4,2.1,1.4,3.4v141.3h94.9c2.7,0.1,4.9,2.3,5,5V218z"/>
<path class="st0" d="M673,144.8c-0.1-20.7,8.1-40.6,22.8-55.1c7.2-7.1,15.6-12.8,24.9-16.7c19.4-8.3,41.3-8.3,60.7,0
	c18.7,7.9,33.6,22.8,41.5,41.5c8.3,19.4,8.3,41.3,0,60.7c-4,9.3-9.6,17.7-16.7,24.9c-22.5,22.4-56.2,29-85.5,16.8
	c-18.8-7.9-33.8-22.9-41.6-41.7C675,165.6,672.9,155.2,673,144.8z M682.9,144.8c-0.1,9.1,1.8,18.1,5.3,26.5
	c6.9,16.4,20,29.4,36.3,36.3c17,7.1,36.1,7.1,53,0c16.4-6.9,29.4-20,36.3-36.3c7.1-17,7.1-36.1,0-53c-6.9-16.4-20-29.4-36.3-36.3
	c-17-7.1-36.1-7.1-53,0c-16.3,6.9-29.4,20-36.3,36.3C684.6,126.7,682.8,135.7,682.9,144.8z"/>
<path class="st0" d="M875.5,218c0,2.7-2.2,5-5,5c-2.7,0-5-2.2-5-5V71.7c0-0.6-0.1-1.3-0.3-1.9c-0.2-0.5-0.2-1.1,0-1.6
	c0.2-0.6,0.7-1,1.2-1.1c1.1-0.3,2.3-0.4,3.4-0.4c1.5-0.1,3,0.4,4.1,1.5c0.9,0.9,1.4,2.1,1.4,3.4L875.5,218z"/>
<path class="st0" d="M915.4,222.9c-2.7-0.1-4.9-2.2-5-5V71.4c0-0.6-0.1-1.3-0.3-1.9c-0.2-0.5-0.2-1.1,0-1.6c0.2-0.6,0.7-1,1.2-1.1
	c1.1-0.3,2.3-0.4,3.4-0.4h39.9c10.4-0.1,20.8,2,30.4,6.2c18.8,8,33.7,23,41.8,41.8c8.3,19.4,8.3,41.3,0,60.7
	c-4,9.3-9.7,17.7-16.9,24.9c-7.1,7.1-15.6,12.8-24.8,16.8c-9.6,4.1-19.9,6.1-30.4,6H915.4z M1023.1,144.8c0.1-9.1-1.8-18.2-5.4-26.5
	c-7.1-16.3-20.1-29.4-36.5-36.5c-8.3-3.6-17.4-5.5-26.5-5.4h-34.4V213h34.4c9.1,0.1,18.1-1.7,26.5-5.3c8.1-3.4,15.4-8.4,21.6-14.6
	c6.2-6.2,11.3-13.6,14.8-21.6C1021.4,163,1023.2,153.9,1023.1,144.8z"/>
<line class="st1" x1="403.8" y1="188.1" x2="492.1" y2="99.4"/>
<path class="st2" d="M469.9,164.3l38.7,38.7"/>
<path class="st2" d="M392.3,86.2l35.6,35.7"/>
<circle class="st3" cx="387.5" cy="206.6" r="19.8"/>
<ellipse transform="matrix(0.2298 -0.9732 0.9732 0.2298 311.735 559.5059)" class="st3" cx="509.4" cy="82.8" rx="19.8" ry="19.8"/>
</svg>
