<?xml version="1.0" encoding="utf-8"?>
<!-- Generator: Adobe Illustrator 23.1.0, SVG Export Plug-In . SVG Version: 6.00 Build 0)  -->
<svg version="1.1" id="Layer_1" xmlns="http://www.w3.org/2000/svg" xmlns:xlink="http://www.w3.org/1999/xlink" x="0px" y="0px"
	 viewBox="0 0 1080 284" style="enable-background:new 0 0 1080 284;" xml:space="preserve">
<style type="text/css">
	.st0{fill:#4184C1;stroke:#4184C1;stroke-width:6.88;stroke-miterlimit:10;}
	.st1{fill:none;stroke:#414042;stroke-width:15.7192;stroke-linecap:round;stroke-linejoin:round;}
	.st2{fill:none;stroke:#4184C1;stroke-width:15.7192;stroke-linecap:round;stroke-linejoin:round;}
	.st3{fill:#F68620;}
</style>
<path class="st0" d="M187.6,217.4c-0.1,2.7-2.2,4.9-5,5c-1,0.1-2.1-0.2-3-0.7c-0.7-0.6-1.4-1.2-2-2L61,84.6v132.8c0,2.7-2.2,5-5,5
	c-2.7,0-4.9-2.2-5-5V70.7c0-0.6-0.1-1.3-0.2-1.9c-0.2-0.5-0.2-1-0.1-1.5c0.1-0.4,0.4-0.7,1.1-1c1.2-0.3,2.5-0.4,3.7-0.4
	c1,0,1.9,0.4,2.6,1.1l2.8,2.9c1.5,1.5,3.5,3.6,6.1,6.4s6.3,7.1,11.3,12.8c5,5.7,11.7,13.6,20.3,23.5s19.4,22.5,32.2,37.7
	c12.8,15.1,28.5,33.4,46.8,54.9V70.7c0-0.6-0.1-1.3-0.4-1.9c-0.2-0.5-0.3-1-0.3-1.5c0.1-0.4,0.5-0.7,1.2-1c1.3-0.3,2.5-0.4,3.8-0.4
	c2.6,0,4.2,0.5,4.7,1.4c0.5,1,0.8,2.2,0.7,3.3L187.6,217.4z"/>
<path class="st0" d="M334.3,217.4c-0.1,2.7-2.2,4.9-5,5h-97.9c-1.2,0-2.4-0.5-3.2-1.5c-0.8-1-1.3-2.2-1.2-3.4V72.7
	c0-0.7-0.1-1.4-0.4-2.1c-0.2-0.7-0.4-1.4-0.4-2.1c0-0.6,0.2-1.3,0.6-1.7c0.7-0.6,1.7-0.9,2.6-0.7h99.9c2.7,0,5,2.2,5,5
	c0,2.7-2.2,4.9-5,5h-92.4v70.6h76.3c2.7,0,5,2.2,5,5c0,2.7-2.2,4.9-5,5h-76.3v56h92.4C332.1,212.5,334.3,214.7,334.3,217.4
	L334.3,217.4z"/>
<path class="st0" d="M670.8,217.3c-0.1,2.7-2.3,4.8-4.9,4.9H565.5c-1.2,0-2.4-0.5-3.2-1.5c-0.8-1-1.2-2.2-1.2-3.4V71.1
	c0-0.6-0.1-1.3-0.3-1.9c-0.2-0.5-0.2-1.1,0-1.6c0.2-0.6,0.7-1,1.2-1.1c1.1-0.3,2.3-0.4,3.4-0.4c1.5-0.1,3,0.4,4.1,1.5
	c0.9,0.9,1.4,2.1,1.4,3.4v141.2h94.9c2.7,0.1,4.9,2.2,5,5L670.8,217.3z"/>
<path class="st0" d="M669.5,144.2c-0.1-20.7,8.1-40.5,22.8-55.1c7.2-7.1,15.6-12.7,24.9-16.7c19.4-8.3,41.3-8.3,60.7,0
	c18.7,7.9,33.6,22.8,41.5,41.5c8.2,19.4,8.2,41.3,0,60.7c-4,9.3-9.7,17.7-16.7,24.9c-22.5,22.3-56.2,28.9-85.4,16.7
	c-18.8-7.9-33.7-22.8-41.6-41.6C671.5,165,669.5,154.6,669.5,144.2z M679.4,144.2c-0.1,9.1,1.8,18.1,5.3,26.5
	c6.9,16.4,20,29.4,36.3,36.3c17,7.1,36.1,7.1,53,0c16.3-6.9,29.4-20,36.3-36.3c7.1-17,7.1-36.1,0-53c-6.9-16.3-20-29.4-36.3-36.3
	c-17-7.1-36.1-7.1-53,0c-16.4,6.9-29.4,20-36.3,36.3C681.2,126.1,679.4,135.1,679.4,144.2L679.4,144.2z"/>
<path class="st0" d="M872,217.3c0,2.7-2.2,5-5,5c-2.7,0-5-2.2-5-5V71.1c0-0.6-0.1-1.3-0.3-1.9c-0.2-0.5-0.2-1.1,0-1.6
	c0.2-0.6,0.7-1,1.2-1.1c1.1-0.3,2.3-0.4,3.5-0.4c1.5-0.1,3,0.4,4.1,1.5c0.9,0.9,1.4,2.1,1.4,3.4L872,217.3z"/>
<path class="st0" d="M911.8,222.2c-2.7-0.1-4.9-2.2-5-5V70.9c0-0.6-0.1-1.3-0.2-1.9c-0.2-0.5-0.2-1.1,0-1.6c0.2-0.6,0.7-1,1.2-1.1
	c1.1-0.3,2.3-0.4,3.4-0.4h39.9c10.4-0.1,20.8,2,30.4,6.2c18.8,8,33.7,23,41.7,41.8c8.3,19.4,8.3,41.3,0,60.7
	c-4,9.3-9.7,17.7-16.8,24.9c-7.1,7.1-15.6,12.8-24.8,16.8c-9.6,4.1-19.9,6.1-30.4,6.1L911.8,222.2z M1019.6,144.2
	c0.1-9.1-1.8-18.2-5.5-26.5c-7.1-16.3-20.1-29.4-36.5-36.5c-8.4-3.7-17.4-5.5-26.5-5.4h-34.4v136.5h34.4c9.1,0.1,18.1-1.7,26.5-5.3
	c8.1-3.4,15.4-8.4,21.6-14.6c6.2-6.2,11.2-13.6,14.7-21.6C1017.8,162.4,1019.7,153.3,1019.6,144.2L1019.6,144.2z"/>
<line class="st1" x1="381.1" y1="205.9" x2="506.2" y2="82.5"/>
<path class="st2" d="M466.5,163.7l38.8,38.7"/>
<path class="st2" d="M388.9,85.7l35.6,35.6"/>
<circle class="st3" cx="384.1" cy="205.9" r="19.8"/>
<circle class="st3" cx="505.9" cy="82.2" r="19.8"/>
</svg>
