<svg xmlns="http://www.w3.org/2000/svg" viewBox="0 0 3284.38 1080"><defs><style>.cls-1{fill:#ef2e14;}.cls-2{fill:#9e180d;}</style></defs><g id="Layer_2" data-name="Layer 2"><polygon points="1613.51 610.81 1345.77 273.61 1345.02 272.66 1262.59 272.66 1262.59 799.98 1369.12 799.98 1369.12 469.87 1633.18 799.04 1633.93 799.98 1720.03 799.98 1720.03 273.4 1613.51 273.4 1613.51 610.81"/><path d="M2083,679.57c-6.13,15.07-17.76,27.4-34.57,36.64a111.73,111.73,0,0,1-54.34,14,101.8,101.8,0,0,1-35.9-6.46,96.54,96.54,0,0,1-53.08-48.07,110.66,110.66,0,0,1-10.5-36.84h297.12l.47-1.89a78.48,78.48,0,0,0,1.91-15.22c.25-6,.37-12.22.37-18.49a214.19,214.19,0,0,0-13.77-75.92,188,188,0,0,0-40.26-64.12c-17.56-18.3-39.12-33.09-64.07-44s-53.67-16.4-85.23-16.4-60.49,5.52-86,16.39-47.39,25.79-65.19,44.34a192.79,192.79,0,0,0-41,64.84,218.19,218.19,0,0,0-14.14,78.5,206.51,206.51,0,0,0,14.52,76.7,194.39,194.39,0,0,0,41.36,64.09c17.81,18.3,39.62,33,64.83,43.59s53.75,16,84.83,16c43.42,0,81.36-9.65,112.75-28.69s54.62-43.76,69-73.51l1.31-2.69-89.63-24.94ZM1923.75,505a94.95,94.95,0,0,1,66-25.8c26.19,0,48.76,8.57,67.09,25.46,17.72,16.35,28.12,38.27,30.94,65.18H1893.11a103.13,103.13,0,0,1,9.48-35.41A99.14,99.14,0,0,1,1923.75,505Z"/><polygon points="2584.56 409.5 2476.88 409.5 2393.74 531.23 2388.7 540.29 2384.84 531.63 2300.74 409.5 2193.82 409.5 2332.41 605.46 2191.54 799.98 2299.26 799.98 2384.6 679.01 2388.58 670.65 2392.86 678.74 2479.11 799.98 2586.84 799.98 2445.23 605.46 2584.56 409.5"/><path d="M2978.59,711.12c-7.58-.44-13-2.61-16.25-6.46s-4.94-10.82-4.94-20.47V564.28c0-52-15.75-92.35-46.82-119.95s-75-41.46-130.77-41.46c-57.6,0-112,16.73-161.75,49.71l-1.82,1.21,32.38,67.12,2.4-1.66c20.35-14,40.46-24.84,59.78-32.08a168.69,168.69,0,0,1,59.45-10.88c27.64,0,48.72,6.7,62.65,19.91s20.92,32.38,20.92,57v18.35A214.67,214.67,0,0,0,2813,560.34a289.76,289.76,0,0,0-50.83-4.45c-24.16,0-46.68,3.13-66.94,9.31s-38,14.86-52.63,25.76A118.57,118.57,0,0,0,2608,631.17a109.81,109.81,0,0,0-12.42,51.55c0,17.93,3.41,34.61,10.15,49.58a122.85,122.85,0,0,0,28.15,39.42A128.67,128.67,0,0,0,2676.67,798a149.48,149.48,0,0,0,53.12,9.36,183.08,183.08,0,0,0,79.8-17.9,173,173,0,0,0,59.59-47.36l1.58,15.2,0,.18c2.54,14.27,9.15,25.91,19.63,34.59s25.48,13.08,44.63,13.08c12.33,0,27.1-1.75,43.9-5.2l2-.41V711.26Zm-220.85,19.12c-17.93,0-33.22-5.36-45.44-15.94S2694,690.69,2694,674.63c0-17,7.6-30.61,23.23-41.74s36.24-16.82,61.08-16.82a205.38,205.38,0,0,1,39.24,4,243.1,243.1,0,0,1,36.24,10v42.4c0,9.43-5.12,18.17-15.21,26l-.21.16-.17.19c-8,9.45-19.45,17.13-33.95,22.84A126.63,126.63,0,0,1,2757.74,730.24Z"/><path class="cls-1" d="M832.54,598.74c-7.16-6.17-263.2-247.76-347.36-331.11-45.05-44.62-104.57-46.12-147.33-7.52a104,104,0,0,0-34.37,75.95h0v1.7l0,198.78c0-82.47,59.71-81.2,89.8-55.26,7.16,6.16,259.13,244.4,347.36,331.1,45.25,44.46,104.58,46.12,147.34,7.52A104.05,104.05,0,0,0,922.31,744h0V543.47C922.34,625.94,862.64,624.68,832.54,598.74Z"/><path class="cls-2" d="M393.24,481.28c-30.07-25.92-89.67-27.2-89.79,55V747.81h.74a104.32,104.32,0,0,0,208.63,0V594.13C448.41,533,396.43,484,393.24,481.28Z"/><path class="cls-2" d="M921.59,332.21a104.31,104.31,0,1,0-208.62,0V486.05c64.32,61,116.4,110,119.57,112.69,30.1,25.94,89.8,27.2,89.8-55.27V332.21Z"/></g></svg>