<svg id="Layer_1" data-name="Layer 1" xmlns="http://www.w3.org/2000/svg" viewBox="0 0 4340.61 1080"><defs><style>.cls-1{fill:#23e88a;}.cls-2{fill:#0f0f0f;}</style></defs><rect class="cls-1" x="394.6" y="270.03" width="500.96" height="130.14" rx="65.07"/><rect class="cls-1" x="960.94" y="270.03" width="192.1" height="130.14" rx="65.07"/><rect class="cls-1" x="394.6" y="470.99" width="130.14" height="130.14" rx="65.07"/><rect class="cls-1" x="852.88" y="470.99" width="300.16" height="130.14" rx="65.07"/><rect class="cls-1" x="591.4" y="470.99" width="195.87" height="130.14" rx="65.07"/><rect class="cls-1" x="394.6" y="671.95" width="378.96" height="130.14" rx="65.07"/><rect class="cls-1" x="839.58" y="671.95" width="313.45" height="130.14" rx="65.07"/><path class="cls-2" d="M1804.49,313.15a259.48,259.48,0,0,0-369.17,0A261.16,261.16,0,0,0,1379.89,396a257.28,257.28,0,0,0-20.25,100.34c0,70.43,26.86,136.73,75.64,186.68,49.09,50.28,114.66,78,184.62,78s135.53-27.68,184.63-78c48.78-50,75.64-116.25,75.64-186.68A257.28,257.28,0,0,0,1859.92,396,261.32,261.32,0,0,0,1804.49,313.15Zm-10.31,183.16c0,98.11-78.18,177.92-174.28,177.92-95.69,0-173.54-79.81-173.54-177.92,0-95.69,77.85-173.54,173.54-173.54C1716,322.77,1794.18,400.62,1794.18,496.31Z"/><path class="cls-2" d="M2113.49,380.41c-105.32,0-191,85.68-191,191V718A44.5,44.5,0,0,0,1967,762.41a43,43,0,0,0,31-13.27A44.56,44.56,0,0,0,2010.67,718V571.41a102.94,102.94,0,0,1,102.82-102.82A44.51,44.51,0,0,0,2158,424.13C2158,400,2138,380.41,2113.49,380.41Z"/><path class="cls-2" d="M2351.89,379.68a190.65,190.65,0,0,0-191,191c0,105.32,85.69,191,191,191,36,0,71.23-10.56,102.82-30.68v24.77c-1.41,55.56-47.51,100.73-102.82,100.73-39.57,0-75.09-22.31-92.73-58.28a44.45,44.45,0,0,0-81.34,5.42,44.08,44.08,0,0,0,2.12,33.79c32.7,66.16,98.58,107.26,171.95,107.26a191.61,191.61,0,0,0,191-191v-183C2542.89,465.36,2457.21,379.68,2351.89,379.68Zm102.82,191c0,55.73-47.09,102.82-102.82,102.82a102.82,102.82,0,1,1,102.82-102.82Z"/><path class="cls-2" d="M2784.22,381.13c-51.86,0-100.32,19.9-136.44,56s-56,84.58-56,136.44c0,51.59,19.94,99.18,56.14,134C2683.67,742,2732.09,761,2784.22,761c40.81,0,73.74-9.63,102.49-30.15,6.57,17.76,24.52,30.15,40.41,30.15,12.36,0,23.66-4.49,31.81-12.64s12.64-19.45,12.64-31.81V573.6c0-52.13-19-100.55-53.36-136.33C2883.4,401.07,2835.81,381.13,2784.22,381.13Zm99.9,192.47c0,56.95-42.95,99.9-99.9,99.9-57.91,0-105-44.82-105-99.9,0-56.93,48.08-105,105-105C2839.3,468.59,2884.12,515.69,2884.12,573.6Z"/><path class="cls-2" d="M3211.45,379.68c-105.32,0-191,85.68-191,191V717.23c0,24.51,19.61,44.45,43.72,44.45a44,44,0,0,0,44.46-44.45V570.68a102.82,102.82,0,0,1,205.64,0V717.23c0,24.51,19.62,44.45,43.73,44.45a44,44,0,0,0,44.45-44.45V570.68C3402.45,465.36,3316.77,379.68,3211.45,379.68Z"/><path class="cls-2" d="M3493.59,380.41c-24.51,0-44.45,19.61-44.45,43.72V718a44,44,0,0,0,44.45,44.45c24.11,0,43.73-19.94,43.73-44.45V424.13A43.77,43.77,0,0,0,3493.59,380.41Z"/><path class="cls-2" d="M3493.59,235.31c-11.2,0-22.85,5-31.17,13.29a43.23,43.23,0,0,0,0,62.35,44.09,44.09,0,0,0,62.35-62.36C3516.45,240.28,3504.8,235.31,3493.59,235.31Z"/><path class="cls-2" d="M3922.29,613.56l-.21-.14c-20.69-12.59-48.13-6.58-61.21,13.48a102,102,0,0,1-86.58,47.33c-55.73,0-102.82-47.09-102.82-102.82A103,103,0,0,1,3863.6,520l.1.18a45.17,45.17,0,0,0,60.22,16l.35-.2c20.81-12.66,27.93-39.78,15.87-60.44a192.73,192.73,0,0,0-165.85-95.1,190.48,190.48,0,0,0-190.27,191c0,105.32,85.35,191,190.27,191,65.53,0,125.56-32.72,160.54-87.47a44.61,44.61,0,0,0,6.43-33.29A43.4,43.4,0,0,0,3922.29,613.56Z"/></svg>