<svg xmlns="http://www.w3.org/2000/svg" viewBox="0 0 508.9 167.08"><defs><style>.cls-1{fill:#221f1f;}.cls-2{fill:#31d285;}.cls-3{fill:#3b80f4;}</style></defs><title>organic-logo</title><g id="Layer_2" data-name="Layer 2"><g id="Layer_1-2" data-name="Layer 1"><path class="cls-1" d="M195.8,79.9a32.33,32.33,0,0,1,64.65,0c0,18-14.3,32.88-32.33,32.88S195.8,97.93,195.8,79.9Zm9.06,0a23.31,23.31,0,1,0,23.26-23.26A23.51,23.51,0,0,0,204.86,79.9Z"/><path class="cls-1" d="M293.33,70.65a4.68,4.68,0,0,1-4.67,4.67,14.19,14.19,0,0,0-14.2,14.2V108.3a4.63,4.63,0,1,1-9.25,0V89.52a23.46,23.46,0,0,1,23.45-23.45A4.61,4.61,0,0,1,293.33,70.65Z"/><path class="cls-1" d="M339.94,112.87a23.47,23.47,0,0,1-44.56,10.28,4.57,4.57,0,0,1,2.15-6.17A4.64,4.64,0,0,1,303.7,119a14.21,14.21,0,0,0,27-5.89V108a23.71,23.71,0,0,1-14.2,4.86,23.45,23.45,0,1,1,23.44-23.44ZM330.7,89.43a14.2,14.2,0,1,0-14.2,14.19A14.25,14.25,0,0,0,330.7,89.43Z"/><path class="cls-1" d="M392.16,89.8v18.31a4.51,4.51,0,0,1-4.67,4.67,4.91,4.91,0,0,1-4.48-4.67c-4,3.36-8.5,4.67-13.83,4.67-13.17,0-23.63-9.81-23.63-23a23.48,23.48,0,0,1,23.63-23.63C382.35,66.17,392.16,76.63,392.16,89.8Zm-9.15,0c0-7.85-6-14.48-13.83-14.48A14.68,14.68,0,0,0,354.7,89.8c0,7.85,6.64,13.82,14.48,13.82A13.56,13.56,0,0,0,383,89.8Z"/><path class="cls-1" d="M444.66,89.43V108.2a4.62,4.62,0,1,1-9.24,0V89.43a14.2,14.2,0,1,0-28.4,0V108.2a4.63,4.63,0,1,1-9.25,0V89.43a23.45,23.45,0,1,1,46.89,0Z"/><path class="cls-1" d="M451.39,55.42a4.62,4.62,0,1,1,6.54-6.54,4.62,4.62,0,0,1-6.54,6.54ZM450,108.3V70.65a4.63,4.63,0,0,1,9.25,0V108.3a4.63,4.63,0,1,1-9.25,0Z"/><path class="cls-1" d="M464.56,89.52a23.38,23.38,0,0,1,23.36-23.45,23.62,23.62,0,0,1,20.36,11.68,4.69,4.69,0,0,1-1.68,6.35,4.78,4.78,0,0,1-6.35-1.68,14.23,14.23,0,1,0-.38,14.76,4.77,4.77,0,0,1,6.45-1.4,4.65,4.65,0,0,1,1.31,6.44,23.39,23.39,0,0,1-43.07-12.7Z"/><path class="cls-2" d="M28.75,111.25a9.12,9.12,0,0,0,6.19-6.72L38.17,90.1A4,4,0,0,1,45,88.19L62.13,106l2.11-5A.93.93,0,0,1,66,101l5.76,14.89,12.36,12.79L84.52,79l-5.11,2.11a.93.93,0,0,1-1.21-1.23L84.64,65l.26-29a4,4,0,0,1,7.24-2.3l30.19,41.91a9.12,9.12,0,0,0,10.07,3.4l.07,0,24.79-7.75a9.45,9.45,0,0,0,6.29-11.68c0-.11-.07-.23-.1-.35A83.52,83.52,0,0,0,3.63,107.82c.13.43.26.85.4,1.27a9.51,9.51,0,0,0,11.87,6.17Z"/><path class="cls-3" d="M134.86,86.66a17.11,17.11,0,0,1-19-6.34l-23-32-.16,17.81,5.75,14a.93.93,0,0,1-1.23,1.21l-4.63-2-.51,59a4.18,4.18,0,0,1-2.26,3.75,4.12,4.12,0,0,1-.58.23,4,4,0,0,1-4-1L65.61,121.08l-14.16-6a.93.93,0,0,1,0-1.73l4.83-1.86-12-12.36-1.61,7.19a17.19,17.19,0,0,1-11.62,12.61l-7.74,2.41a9.48,9.48,0,0,0-4.58,15,83.52,83.52,0,0,0,148-46,9.48,9.48,0,0,0-12.3-9.76Z"/></g></g></svg>