<svg xmlns="http://www.w3.org/2000/svg" width="90" height="90" viewBox="0 0 90 90"><defs><style>.a{fill:#9255e3;}.b{fill:#ae7df0;}.c{fill:#94e368;}.d{fill:#28abfa;}.e{fill:#14cfff;}.f{fill:#acd5df;}</style></defs><path class="a" d="M455.047,370.648v7.091a1.318,1.318,0,0,1-1.318,1.318h-3.955L444.5,365.1Z" transform="translate(-366.365 -300.922)"/><path class="b" d="M139.043,250.73v34.061H68.818a1.318,1.318,0,0,1-1.318-1.318v-7.091l33.514-25.652Z" transform="translate(-55.635 -206.656)"/><path class="c" d="M101.014,178.641C92.8,192.463,83.471,204.293,67.5,204.293V164.585a1.321,1.321,0,0,1,1.36-1.318C84.007,163.658,93.038,170.586,101.014,178.641Z" transform="translate(-55.635 -134.567)"/><path class="d" d="M405.594,8.983V76.042a49.474,49.474,0,0,1-5.273-.274L384.5,41.93,400.32,8.092a29.434,29.434,0,0,1,3.891-.427,1.322,1.322,0,0,1,1.383,1.318Z" transform="translate(-316.912 -6.316)"/><path class="e" d="M296.189,10.1V77.776C277.477,75.765,268.747,63.089,258.16,52.4,268.747,34.579,277.477,13.45,296.189,10.1Z" transform="translate(-212.78 -8.325)"/><path class="f" d="M88.682,82.09H7.91V1.318A1.318,1.318,0,0,0,6.592,0H1.318a1.318,1.318,0,0,0,0,2.637H5.273v4.2H3.955a1.318,1.318,0,1,0,0,2.637H5.273v4.2H1.318a1.318,1.318,0,1,0,0,2.637H5.273v4.2H3.955a1.318,1.318,0,0,0,0,2.637H5.273v4.2H1.318a1.318,1.318,0,1,0,0,2.637H5.273v4.2H3.955a1.318,1.318,0,1,0,0,2.637H5.273v4.2H1.318a1.318,1.318,0,0,0,0,2.637H5.273v4.2H3.955a1.318,1.318,0,1,0,0,2.637H5.273v4.2H1.318a1.318,1.318,0,1,0,0,2.637H5.273v4.2H3.955a1.318,1.318,0,0,0,0,2.637H5.273v4.2H1.318a1.318,1.318,0,1,0,0,2.637H5.273v4.2H3.955a1.318,1.318,0,0,0,0,2.637H5.273v4.2H1.318a1.318,1.318,0,1,0,0,2.637H5.273v3.955a1.318,1.318,0,0,0,2.637,0V84.727h4.2v1.318a1.318,1.318,0,0,0,2.637,0V84.727h4.2v3.955a1.318,1.318,0,0,0,2.637,0V84.727h4.2v1.318a1.318,1.318,0,0,0,2.637,0V84.727h4.2v3.955a1.318,1.318,0,0,0,2.637,0V84.727h4.2v1.318a1.318,1.318,0,0,0,2.637,0V84.727h4.2v3.955a1.318,1.318,0,1,0,2.637,0V84.727h4.2v1.318a1.318,1.318,0,1,0,2.637,0V84.727H60v3.955a1.318,1.318,0,0,0,2.637,0V84.727h4.2v1.318a1.318,1.318,0,0,0,2.637,0V84.727h4.2v3.955a1.318,1.318,0,0,0,2.637,0V84.727h4.2v1.318a1.318,1.318,0,0,0,2.637,0V84.727h4.2v3.955a1.318,1.318,0,0,0,2.637,0V83.408a1.318,1.318,0,0,0-1.318-1.318Z"/></svg>