<svg xmlns="http://www.w3.org/2000/svg" width="526" height="530.17" viewBox="0 0 526 530.17">
    <defs>
        <clipPath id="clip-path">
            <path id="Rectangle_278" fill="none" d="M0 0H526V530.17H0z"/>
        </clipPath>
        <style>
            .cls-3{fill:#d1edfb}.cls-4{fill:#f99b1d}.cls-5{fill:#e55555}
        </style>
    </defs>
    <g id="Group_350">
        <g id="Group_349" clip-path="url(#clip-path)">
            <path id="Path_178" d="M102.179 483.78H84.248A84.341 84.341 0 0 1 0 399.538V84.248A84.232 84.232 0 0 1 84.255 0H391.2a84.232 84.232 0 0 1 84.24 84.248v24.812h-33.385V84.248A50.861 50.861 0 0 0 391.2 33.392H84.255A50.849 50.849 0 0 0 33.4 84.248v315.29a50.9 50.9 0 0 0 50.849 50.849h17.931z" class="cls-3" transform="translate(0 .001)"/>
            <path id="Path_179" d="M168.18 137.738H72.269a13.767 13.767 0 0 1-13.762-13.762v-95.9a13.767 13.767 0 0 1 13.762-13.765h95.911a13.771 13.771 0 0 1 13.762 13.762v95.9a13.771 13.771 0 0 1-13.762 13.762m-79.212-16.69h62.512a13.767 13.767 0 0 0 13.762-13.762V44.772a13.767 13.767 0 0 0-13.762-13.761H88.968a13.767 13.767 0 0 0-13.761 13.761v62.512a13.767 13.767 0 0 0 13.762 13.762" class="cls-4" transform="translate(344.066 84.161)"/>
            <path id="Path_180" d="M123.379 182.54H27.468a13.767 13.767 0 0 1-13.762-13.761l.007-95.9a13.762 13.762 0 0 1 13.761-13.766h95.9a13.767 13.767 0 0 1 13.766 13.762v95.9a13.767 13.767 0 0 1-13.762 13.761m-79.211-16.7h62.512a13.767 13.767 0 0 0 13.762-13.762v-62.5a13.767 13.767 0 0 0-13.762-13.762H44.167a13.767 13.767 0 0 0-13.761 13.762v62.5a13.762 13.762 0 0 0 13.762 13.762" class="cls-5" transform="translate(80.602 347.631)"/>
            <path id="Path_181" fill="#124c60" d="M145.773 14.311l-95.9.014a13.758 13.758 0 0 0-13.766 13.761v95.89a13.756 13.756 0 0 0 13.762 13.755h95.9a13.761 13.761 0 0 0 13.762-13.755v-95.9a13.771 13.771 0 0 0-13.762-13.762" transform="translate(212.337 84.161)"/>
            <path id="Path_182" d="M49.869 160.133h95.9a13.767 13.767 0 0 0 13.762-13.762v-95.9a13.761 13.761 0 0 0-13.762-13.755h-95.9a13.756 13.756 0 0 0-13.762 13.752v95.9a13.762 13.762 0 0 0 13.762 13.762" class="cls-3" transform="translate(212.337 215.902)"/>
            <path id="Path_183" fill="#d37505" d="M49.869 182.534h95.9a13.767 13.767 0 0 0 13.762-13.761v-95.9a13.761 13.761 0 0 0-13.762-13.755h-95.9a13.756 13.756 0 0 0-13.762 13.751v95.9a13.762 13.762 0 0 0 13.762 13.761" transform="translate(212.337 347.637)"/>
            <path id="Path_184" d="M27.469 137.732h95.9a13.767 13.767 0 0 0 13.762-13.762v-95.9a13.761 13.761 0 0 0-13.762-13.755h-95.9a13.756 13.756 0 0 0-13.762 13.752v95.9a13.762 13.762 0 0 0 13.762 13.762" class="cls-4" transform="translate(80.608 84.167)"/>
            <path id="Path_185" fill="#94c4d6" d="M27.468 160.133h95.9a13.762 13.762 0 0 0 13.762-13.762v-95.9a13.756 13.756 0 0 0-13.762-13.755h-95.9a13.761 13.761 0 0 0-13.762 13.752v95.9a13.767 13.767 0 0 0 13.762 13.762" transform="translate(80.602 215.902)"/>
            <path id="Path_186" fill="#14b0bf" d="M58.508 50.475v95.9A13.762 13.762 0 0 0 72.27 160.14h95.9a13.761 13.761 0 0 0 13.755-13.762v-95.9a13.761 13.761 0 0 0-13.755-13.762h-95.9a13.762 13.762 0 0 0-13.762 13.759" transform="translate(344.072 215.902)"/>
            <path id="Path_187" fill="#9e1300" d="M58.507 72.875l.007 95.9a13.762 13.762 0 0 0 13.761 13.765h95.9a13.762 13.762 0 0 0 13.762-13.761v-95.9a13.767 13.767 0 0 0-13.762-13.762h-95.9a13.767 13.767 0 0 0-13.768 13.758" transform="translate(344.066 347.631)"/>
            <path id="Path_188" d="M11.933 27.159a5.133 5.133 0 1 1-5.126-5.133 5.132 5.132 0 0 1 5.126 5.133" class="cls-5" transform="translate(9.803 129.531)"/>
            <path id="Path_189" d="M11.933 33.81a5.133 5.133 0 1 1-5.126-5.14 5.13 5.13 0 0 1 5.126 5.14" class="cls-5" transform="translate(9.803 168.603)"/>
            <path id="Path_190" d="M11.933 30.482a5.133 5.133 0 1 1-5.126-5.133 5.132 5.132 0 0 1 5.126 5.133" class="cls-5" transform="translate(9.803 149.073)"/>
            <path id="Path_191" d="M11.933 40.453a5.133 5.133 0 1 1-5.126-5.14 5.132 5.132 0 0 1 5.126 5.14" class="cls-4" transform="translate(9.803 207.669)"/>
            <path id="Path_192" d="M11.933 37.125a5.133 5.133 0 1 1-5.126-5.133 5.132 5.132 0 0 1 5.126 5.133" class="cls-4" transform="translate(9.803 188.139)"/>
            <path id="Path_193" d="M11.933 47.091a5.133 5.133 0 1 1-5.126-5.133 5.132 5.132 0 0 1 5.126 5.133" class="cls-4" transform="translate(9.803 246.747)"/>
            <path id="Path_194" d="M11.933 43.776a5.133 5.133 0 1 1-5.126-5.14 5.13 5.13 0 0 1 5.126 5.14" class="cls-4" transform="translate(9.803 227.211)"/>
            <path id="Path_195" d="M6.807 18.655l-5.14 6.785h2.8v4.17H9.14v-4.17h2.8z" class="cls-5" transform="translate(9.804 109.708)"/>
            <path id="Path_196" d="M93.506 83.231l30.172-39.908h-16.452V18.869h-27.44v24.454H63.334z" class="cls-5" transform="translate(372.451 110.963)"/>
            <path id="Path_197" d="M18.24 93.9l39.9 30.179v-16.456H82.6V80.175H58.142V63.723z" class="cls-4" transform="translate(107.267 374.744)"/>
            <path id="Path_198" fill="#0c3442" d="M93.028 14.311l-34.19.014a13.762 13.762 0 0 0-13.762 13.761v95.89a13.761 13.761 0 0 0 13.762 13.755h34.19a13.761 13.761 0 0 0 13.762-13.755v-95.9a13.771 13.771 0 0 0-13.762-13.765" transform="translate(265.081 84.161)"/>
            <path id="Path_199" fill="#b8d1dd" d="M58.838 160.133h34.19a13.767 13.767 0 0 0 13.762-13.762v-95.9a13.761 13.761 0 0 0-13.762-13.758h-34.19a13.761 13.761 0 0 0-13.762 13.755v95.9a13.767 13.767 0 0 0 13.762 13.762" transform="translate(265.081 215.902)"/>
            <path id="Path_200" fill="#b56404" d="M58.838 182.534h34.19a13.767 13.767 0 0 0 13.762-13.761v-95.9a13.761 13.761 0 0 0-13.762-13.759h-34.19a13.761 13.761 0 0 0-13.762 13.755v95.9a13.767 13.767 0 0 0 13.762 13.761" transform="translate(265.081 347.637)"/>
            <path id="Path_201" fill="#db881a" d="M36.1 137.732h36.5a13.767 13.767 0 0 0 13.762-13.762v-95.9A13.761 13.761 0 0 0 72.6 14.312H36.1a13.756 13.756 0 0 0-13.76 13.755v95.9a13.762 13.762 0 0 0 13.76 13.765" transform="translate(131.376 84.167)"/>
            <path id="Path_202" fill="#7fa9b8" d="M36.1 160.133h36.51a13.767 13.767 0 0 0 13.762-13.762v-95.9A13.761 13.761 0 0 0 72.61 36.713H36.1a13.761 13.761 0 0 0-13.761 13.755v95.9A13.767 13.767 0 0 0 36.1 160.133" transform="translate(131.37 215.902)"/>
            <path id="Path_203" fill="#1195a1" d="M67.777 50.475v95.9a13.762 13.762 0 0 0 13.762 13.765h32.119a13.767 13.767 0 0 0 13.762-13.762v-95.9a13.767 13.767 0 0 0-13.762-13.762H81.539a13.762 13.762 0 0 0-13.762 13.759" transform="translate(398.581 215.902)"/>
            <path id="Path_204" fill="#800f00" d="M67.776 72.875l.007 95.9a13.762 13.762 0 0 0 13.761 13.765h32.119a13.767 13.767 0 0 0 13.762-13.761v-95.9a13.767 13.767 0 0 0-13.762-13.762H81.538a13.767 13.767 0 0 0-13.762 13.758" transform="translate(398.575 347.631)"/>
        </g>
    </g>
</svg>
