<svg xmlns="http://www.w3.org/2000/svg" width="76.789" height="83.068" viewBox="0 0 76.789 83.068"><defs><style>.a{fill:#e64178;}.b{fill:#00d2d2;}.c{fill:#289bc3;}.d{fill:#fa9b37;}.e{fill:#ffd241;}.f{fill:#ff6e91;}.g{fill:#d7e6f0;}</style></defs><g transform="translate(-28 -9.358)"><path class="a" d="M151.866,10.032a2.3,2.3,0,0,0-1.626-.674h-7.92a1.347,1.347,0,0,0-.953,2.3l2.531,2.531L132.332,25.755l-8.872-8.872a2.694,2.694,0,0,0-3.81,0l-18.86,18.86a2.694,2.694,0,1,0,3.81,3.81L121.554,22.6l8.872,8.872a2.694,2.694,0,0,0,3.81,0L147.709,18l2.531,2.531a1.347,1.347,0,0,0,2.3-.953v-7.92A2.3,2.3,0,0,0,151.866,10.032Z" transform="translate(-59.875)"/><path class="a" d="M255.416,437.3l-3.061-2.381a1,1,0,0,0-1.619.792V437.4h-1.347a2.7,2.7,0,0,1-2.694-2.694,1.347,1.347,0,0,0-2.694,0,5.4,5.4,0,0,0,5.389,5.389h1.347v1.691a1,1,0,0,0,1.619.792l3.061-2.381a1.836,1.836,0,0,0,0-2.9Z" transform="translate(-179.626 -352.6)"/><g transform="translate(36.083 33.607)"><g transform="translate(0 0)"><path class="b" d="M132.581,158.747H78.694a2.694,2.694,0,1,1,0-5.389h53.887a2.694,2.694,0,0,1,0,5.389Z" transform="translate(-76 -153.358)"/></g><g transform="translate(2.694 5.389)"><path class="b" d="M92,185.358v8.332a5.389,5.389,0,0,0,1.84,4.056l17.875,15.64a5.389,5.389,0,0,1,1.84,4.056V225.3a1.818,1.818,0,0,0,2.734,1.57L123,222.961a2.694,2.694,0,0,0,1.337-2.327v-3.192a5.389,5.389,0,0,1,1.84-4.056l17.874-15.64a5.389,5.389,0,0,0,1.84-4.056v-8.332Z" transform="translate(-92 -185.358)"/></g><g transform="translate(2.694 13.472)"><path class="c" d="M92,233.357v.249a5.389,5.389,0,0,0,1.84,4.056l17.874,15.64a5.389,5.389,0,0,1,1.84,4.056v.249h2.694a2.694,2.694,0,0,1,2.694,2.694v4.94L123,262.877a2.694,2.694,0,0,0,1.337-2.327v-3.192a5.389,5.389,0,0,1,1.84-4.056l17.874-15.64a5.389,5.389,0,0,0,1.84-4.056v-.249H92Z" transform="translate(-92 -233.357)"/></g><g transform="translate(2.694 5.389)"><path class="c" d="M92,185.358v2.694h24.249a2.694,2.694,0,0,1,2.694,2.694v2.694h26.944v-8.083Z" transform="translate(-92 -185.358)"/></g></g><g transform="translate(81.887 71.328)"><ellipse class="d" cx="8.5" cy="8" rx="8.5" ry="8" transform="translate(-0.493 -0.078)"/></g><g transform="translate(86.827 74.472)"><circle class="e" cx="3.143" cy="3.143" r="3.143" transform="translate(0)"/></g><path class="e" d="M372.084,433.358H366.7a2.694,2.694,0,0,0-2.694,2.69,6.729,6.729,0,0,0,10.777,0A2.694,2.694,0,0,0,372.084,433.358Z" transform="translate(-279.419 -352.6)"/><g transform="translate(75.151 78.064)"><path class="d" d="M310.694,420.052h-1.347a1.347,1.347,0,0,1,0-2.694h1.347a1.347,1.347,0,1,1,0,2.694Z" transform="translate(-308 -417.358)"/></g><g transform="translate(100.748 78.064)"><path class="d" d="M462.694,420.052h-1.347a1.347,1.347,0,0,1,0-2.694h1.347a1.347,1.347,0,0,1,0,2.694Z" transform="translate(-460 -417.358)"/></g><g transform="translate(94.685 88.564)"><path class="d" d="M426.021,483.573a1.347,1.347,0,0,1-1.168-.674l-.674-1.167a1.347,1.347,0,0,1,2.333-1.347l.674,1.167a1.347,1.347,0,0,1-1.165,2.021Z" transform="translate(-423.999 -479.712)"/></g><g transform="translate(81.887 66.397)"><path class="d" d="M350.021,351.937a1.347,1.347,0,0,1-1.168-.674l-.674-1.167a1.347,1.347,0,0,1,2.333-1.347l.674,1.167a1.347,1.347,0,0,1-1.165,2.021Z" transform="translate(-347.999 -348.076)"/></g><g transform="translate(94.685 66.397)"><path class="d" d="M425.345,351.937a1.347,1.347,0,0,1-1.165-2.021l.674-1.167a1.347,1.347,0,1,1,2.333,1.347l-.674,1.167A1.347,1.347,0,0,1,425.345,351.937Z" transform="translate(-423.999 -348.075)"/></g><g transform="translate(81.887 88.564)"><path class="d" d="M349.345,483.572a1.347,1.347,0,0,1-1.165-2.021l.674-1.167a1.347,1.347,0,0,1,2.333,1.347l-.674,1.167A1.347,1.347,0,0,1,349.345,483.572Z" transform="translate(-347.999 -479.711)"/></g><g transform="translate(28 28.219)"><g transform="translate(0)"><circle class="f" cx="13.023" cy="13.023" r="13.023"/></g><g transform="translate(3.904 3.592)"><path class="g" d="M68.385,152.121a7.967,7.967,0,0,0-.041-.8,1.075,1.075,0,0,1,.535-1.037h0a1.081,1.081,0,0,0,.4-1.477l-1.613-2.795a1.081,1.081,0,0,0-1.477-.4h0a1.075,1.075,0,0,1-1.165-.055,8.063,8.063,0,0,0-1.394-.807,1.074,1.074,0,0,1-.628-.98,1.081,1.081,0,0,0-1.081-1.081H58.688a1.081,1.081,0,0,0-1.081,1.081,1.074,1.074,0,0,1-.628.98,8.063,8.063,0,0,0-1.394.807,1.075,1.075,0,0,1-1.165.055h0a1.081,1.081,0,0,0-1.477.4L51.328,148.8a1.081,1.081,0,0,0,.4,1.477h0a1.075,1.075,0,0,1,.535,1.037,7.943,7.943,0,0,0,0,1.607,1.075,1.075,0,0,1-.535,1.037h0a1.081,1.081,0,0,0-.4,1.477l1.613,2.795a1.081,1.081,0,0,0,1.477.4h0a1.075,1.075,0,0,1,1.165.055,8.063,8.063,0,0,0,1.394.807,1.074,1.074,0,0,1,.628.98,1.081,1.081,0,0,0,1.081,1.081h3.227A1.081,1.081,0,0,0,63,160.471a1.074,1.074,0,0,1,.628-.98,8.063,8.063,0,0,0,1.394-.807,1.075,1.075,0,0,1,1.165-.055h0a1.081,1.081,0,0,0,1.477-.4l1.613-2.795a1.081,1.081,0,0,0-.4-1.477h0a1.075,1.075,0,0,1-.535-1.037A7.97,7.97,0,0,0,68.385,152.121Z" transform="translate(-51.183 -142.691)"/></g><g transform="translate(10.328 10.328)"><circle class="f" cx="2.694" cy="2.694" r="2.694"/></g></g></g></svg>