<svg xmlns="http://www.w3.org/2000/svg" width="700.055" height="521.693" viewBox="0 0 700.055 521.693"><defs><style>.a{fill:#ebebeb;}.b{fill:#f0f0f0;}.c{fill:#f5f5f5;}.d,.g{fill:#e6e6e6;}.e,.n,.r{fill:#fff;}.f{fill:#fafafa;}.g,.r,.w{opacity:0.4;}.h{fill:#e0e0e0;}.i,.j{fill:#3685c3;}.j,.u,.v{opacity:0.2;}.k{fill:#f6861f;}.l{fill:#407bff;}.m{fill:#274a99;}.n{opacity:0.6;}.o{opacity:0.3;}.p{fill:#23609f;}.q{fill:#263238;}.s{fill:#fbd6a0;}.t{fill:#fc9763;}</style></defs><g transform="translate(0 -54.953)"><g transform="translate(0 54.953)"><rect class="a" width="700.055" height="0.35" transform="translate(0 458.459)"/><rect class="a" width="46.375" height="0.35" transform="translate(184.074 480.057)"/><rect class="a" width="12.172" height="0.35" transform="translate(350.241 476.258)"/><rect class="a" width="26.871" height="0.35" transform="translate(73.448 470.346)"/><rect class="a" width="36.518" height="0.35" transform="translate(545.617 467.994)"/><rect class="a" width="32.825" height="0.35" transform="translate(500.327 467.994)"/><rect class="a" width="131.156" height="0.35" transform="translate(498.755 484.795)"/><path class="a" d="M316.559,450.97H46.2a8,8,0,0,1-7.992-7.992V62.943a8,8,0,0,1,7.992-7.99h270.36a8,8,0,0,1,7.99,7.99V442.978A8,8,0,0,1,316.559,450.97ZM46.2,55.3a7.649,7.649,0,0,0-7.642,7.64V442.978A7.65,7.65,0,0,0,46.2,450.62h270.36a7.649,7.649,0,0,0,7.64-7.642V62.943a7.649,7.649,0,0,0-7.64-7.64Z" transform="translate(15.287 -54.953)"/><path class="a" d="M532.854,450.97H262.5a8,8,0,0,1-7.99-7.992V62.943a8,8,0,0,1,7.99-7.99H532.854a8,8,0,0,1,7.993,7.99V442.978A8,8,0,0,1,532.854,450.97ZM262.5,55.3a7.649,7.649,0,0,0-7.64,7.64V442.978a7.649,7.649,0,0,0,7.64,7.642H532.854a7.651,7.651,0,0,0,7.643-7.642V62.943a7.651,7.651,0,0,0-7.643-7.64Z" transform="translate(101.83 -54.953)"/><g transform="translate(321.216 310.026)"><rect class="b" width="32.977" height="144.266" transform="translate(157.844 144.266) rotate(180)"/><rect class="b" width="145.18" height="4.168" transform="translate(151.512 148.434) rotate(180)"/><rect class="c" width="124.867" height="144.266"/><rect class="b" width="98.936" height="60.817" transform="translate(12.965 8.096)"/><rect class="b" width="98.936" height="60.817" transform="translate(12.965 75.352)"/><path class="c" d="M310.463,293.207H259.172a12.162,12.162,0,0,1-12.163-12.163h75.617A12.162,12.162,0,0,1,310.463,293.207Z" transform="translate(-222.385 -274.517)"/><path class="c" d="M310.463,341.244H259.172a12.163,12.163,0,0,1-12.163-12.164h75.617A12.163,12.163,0,0,1,310.463,341.244Z" transform="translate(-222.385 -255.298)"/><g transform="translate(134.656)"><rect class="b" width="32.977" height="144.266" transform="translate(157.844 144.266) rotate(180)"/><rect class="b" width="145.18" height="4.168" transform="translate(151.512 148.434) rotate(180)"/><rect class="c" width="124.867" height="144.266"/><rect class="b" width="98.936" height="60.817" transform="translate(12.965 8.096)"/><rect class="b" width="98.936" height="60.817" transform="translate(12.965 75.352)"/><path class="c" d="M406.638,293.207H355.347a12.162,12.162,0,0,1-12.163-12.163H418.8A12.162,12.162,0,0,1,406.638,293.207Z" transform="translate(-318.56 -274.517)"/><path class="c" d="M406.638,341.244H355.347a12.163,12.163,0,0,1-12.163-12.164H418.8A12.163,12.163,0,0,1,406.638,341.244Z" transform="translate(-318.56 -255.298)"/></g></g><g transform="translate(149.562 50.916)"><rect class="d" width="56.474" height="65.281" transform="translate(62.913 65.281) rotate(180)"/><rect class="c" width="61.408" height="65.281" transform="translate(61.408 65.281) rotate(180)"/><rect class="e" width="54.992" height="51.119" transform="translate(56.263 5.144) rotate(90)"/><path class="c" d="M145.684,132.847v-2a26.338,26.338,0,0,0-26.339-26.337h0v2a26.338,26.338,0,0,0,26.339,26.339Z" transform="translate(-101.811 -86.04)"/></g><g transform="translate(383.767 40.75)"><rect class="d" width="212.396" height="198.671" transform="translate(229.947 198.671) rotate(180)"/><rect class="b" width="215.903" height="198.671" transform="translate(226.871 198.671) rotate(180)"/><rect class="d" width="212.396" height="7.078" transform="translate(229.947 205.749) rotate(180)"/><rect class="b" width="215.903" height="7.078" transform="translate(215.903 205.749) rotate(180)"/><rect class="f" width="177.341" height="197.469" transform="translate(217.654 10.665) rotate(90)"/><path class="e" d="M414.443,269.015,381.557,91.674H327.369l32.886,177.341Z" transform="translate(-252.784 -81.011)"/><path class="b" d="M426.694,207.083a.717.717,0,0,0,.658-.762V96.848a.666.666,0,1,0-1.318,0V206.321A.717.717,0,0,0,426.694,207.083Z" transform="translate(-213.307 -79.245)"/><path class="e" d="M357.977,269.015,325.092,91.674H303.966l32.886,177.341Z" transform="translate(-262.148 -81.011)"/><rect class="d" width="177.341" height="1.17" transform="translate(21.355 10.665) rotate(90)"/><path class="g" d="M280.375,104.135h212.4l.848-9.5h-212.4Z" transform="translate(-271.587 -79.825)"/><path class="g" d="M280.375,111.941h212.4l.848-9.5h-212.4Z" transform="translate(-271.587 -76.703)"/><path class="g" d="M280.375,119.746h212.4l.848-9.5h-212.4Z" transform="translate(-271.587 -73.58)"/><path class="g" d="M280.375,127.551h212.4l.848-9.5h-212.4Z" transform="translate(-271.587 -70.457)"/><path class="g" d="M280.375,135.356h212.4l.848-9.5h-212.4Z" transform="translate(-271.587 -67.334)"/><path class="g" d="M280.375,143.161h212.4l.848-9.5h-212.4Z" transform="translate(-271.587 -64.211)"/><path class="g" d="M280.375,150.966h212.4l.848-9.5h-212.4Z" transform="translate(-271.587 -61.088)"/><path class="g" d="M280.375,158.771h212.4l.848-9.5h-212.4Z" transform="translate(-271.587 -57.965)"/><path class="g" d="M280.375,166.576h212.4l.848-9.5h-212.4Z" transform="translate(-271.587 -54.842)"/></g><g transform="translate(110.971 172.134)"><rect class="d" width="44.062" height="50.562" transform="translate(49.049 50.562) rotate(180)"/><rect class="c" width="47.563" height="50.562" transform="translate(47.563 50.562) rotate(180)"/><rect class="e" width="42.593" height="39.593" transform="translate(43.578 3.985) rotate(90)"/><path class="c" d="M109.359,199.862v-1.546a10.2,10.2,0,0,0-10.2-10.2h0a10.2,10.2,0,0,0-10.2,10.2v1.546a10.2,10.2,0,0,0,10.2,10.2h0A10.2,10.2,0,0,0,109.359,199.862Z" transform="translate(-75.378 -173.808)"/></g><g transform="translate(218.991 134.894)"><rect class="d" width="60.492" height="69.693" transform="translate(67.366 69.693) rotate(180)"/><rect class="c" width="65.559" height="69.693" transform="translate(65.559 69.693) rotate(180)"/><rect class="e" width="58.709" height="54.574" transform="translate(60.066 5.492) rotate(90)"/><path class="c" d="M185.82,168.789l10.358,17.942a2.636,2.636,0,0,1-2.282,3.954H173.177a2.637,2.637,0,0,1-2.284-3.954l10.359-17.942A2.637,2.637,0,0,1,185.82,168.789Z" transform="translate(-150.757 -144.828)"/></g><g transform="translate(126.043 319.103)"><g transform="translate(0 34.514)"><rect class="d" width="33.247" height="104.842" transform="translate(33.247 104.842) rotate(180)"/><path class="b" d="M96.338,387.531H90.023V369.569h12.936Z" transform="translate(-90.023 -282.689)"/><rect class="d" width="33.247" height="104.842" transform="translate(157.503 104.842) rotate(180)"/><rect class="b" width="129.767" height="93.82" transform="translate(129.767 93.82) rotate(180)"/><rect class="d" width="65.485" height="57.866" transform="translate(4.899 71.365) rotate(-90)"/><rect class="d" width="65.485" height="57.866" transform="translate(67.003 71.365) rotate(-90)"/><path class="b" d="M158.212,316.922h11.449a18.113,18.113,0,0,0,13.147-5.655H145.066A18.11,18.11,0,0,0,158.212,316.922Z" transform="translate(-68.001 -306.016)"/><path class="b" d="M113.438,316.922h11.447a18.113,18.113,0,0,0,13.147-5.655H100.291A18.113,18.113,0,0,0,113.438,316.922Z" transform="translate(-85.915 -306.016)"/><path class="b" d="M180.089,387.531H186.4V369.569H173.468Z" transform="translate(-56.636 -282.689)"/></g><g transform="translate(45.644)"><path class="h" d="M153.754,299.54a7.2,7.2,0,1,0,7.2-7.2A7.2,7.2,0,0,0,153.754,299.54Z" transform="translate(-110.169 -279.075)"/><circle class="h" cx="7.2" cy="7.2" r="7.2" transform="translate(46.852 8.588)"/><path class="h" d="M127.947,300.366a7.2,7.2,0,1,0,7.2-7.2A7.2,7.2,0,0,0,127.947,300.366Z" transform="translate(-120.494 -278.744)"/><circle class="h" cx="8.828" cy="8.828" r="8.828" transform="translate(54.861 8.134)"/><path class="h" d="M149.3,291.7a8.828,8.828,0,1,0,8.828-8.829A8.828,8.828,0,0,0,149.3,291.7Z" transform="translate(-111.949 -282.866)"/><path class="h" d="M139.3,293.306a8.828,8.828,0,1,0,8.828-8.829A8.828,8.828,0,0,0,139.3,293.306Z" transform="translate(-115.95 -282.221)"/><path class="h" d="M143.533,298.288a8.454,8.454,0,1,0,8.454-8.455A8.454,8.454,0,0,0,143.533,298.288Z" transform="translate(-114.258 -280.078)"/><path class="h" d="M133.089,298.068A9.069,9.069,0,1,0,142.157,289,9.069,9.069,0,0,0,133.089,298.068Z" transform="translate(-118.437 -280.412)"/><path class="b" d="M200.4,297.483s-.99,14.049-38.888,14.049-38.888-14.049-38.888-14.049Z" transform="translate(-122.624 -277.018)"/></g></g></g><g transform="translate(78.562 544.938)"><ellipse class="c" cx="271.466" cy="15.854" rx="271.466" ry="15.854"/></g><g transform="translate(308.122 97.571)"><path class="i" d="M342.857,133.708a59.452,59.452,0,0,0-4.5-10.861l2.806-9.175L323.047,95.557l-9.175,2.807a59.259,59.259,0,0,0-10.861-4.5l-4.5-8.472H272.888l-4.5,8.472a59.219,59.219,0,0,0-10.861,4.5l-9.175-2.807-18.117,18.116,2.807,9.175a59.358,59.358,0,0,0-4.5,10.861l-8.471,4.5v25.621l8.471,4.5a59.443,59.443,0,0,0,4.5,10.859l-2.807,9.176,18.117,18.116,9.175-2.807a59.218,59.218,0,0,0,10.861,4.5l4.5,8.471h25.621l4.5-8.471a59.258,59.258,0,0,0,10.861-4.5l9.175,2.807,18.116-18.116-2.806-9.176a59.438,59.438,0,0,0,4.5-10.859l8.471-4.5V138.211ZM285.7,187.414a36.393,36.393,0,1,1,36.393-36.393A36.392,36.392,0,0,1,285.7,187.414Z" transform="translate(-220.07 -85.392)"/><path class="j" d="M342.857,133.708a59.452,59.452,0,0,0-4.5-10.861l2.806-9.175L323.047,95.557l-9.175,2.807a59.259,59.259,0,0,0-10.861-4.5l-4.5-8.472H272.888l-4.5,8.472a59.219,59.219,0,0,0-10.861,4.5l-9.175-2.807-18.117,18.116,2.807,9.175a59.358,59.358,0,0,0-4.5,10.861l-8.471,4.5v25.621l8.471,4.5a59.443,59.443,0,0,0,4.5,10.859l-2.807,9.176,18.117,18.116,9.175-2.807a59.218,59.218,0,0,0,10.861,4.5l4.5,8.471h25.621l4.5-8.471a59.258,59.258,0,0,0,10.861-4.5l9.175,2.807,18.116-18.116-2.806-9.176a59.438,59.438,0,0,0,4.5-10.859l8.471-4.5V138.211ZM285.7,187.414a36.393,36.393,0,1,1,36.393-36.393A36.392,36.392,0,0,1,285.7,187.414Z" transform="translate(-220.07 -85.392)"/><path class="k" d="M270.39,123.655a12.057,12.057,0,1,0,12.058,12.056A12.057,12.057,0,0,0,270.39,123.655Z" transform="translate(-204.761 -70.083)"/><g transform="translate(129.667 19.903)"><path class="k" d="M488.163,168.659a85.368,85.368,0,0,0-6.424-15.533h0l4.007-13.1-25.892-25.892-13.108,4.01h0a83.173,83.173,0,0,0-15.527-6.439h0l-6.429-12.1H388.167l-6.431,12.1a82.823,82.823,0,0,0-15.53,6.436h0l-13.106-4.01-25.892,25.892,4.007,13.1,0,.006a85.289,85.289,0,0,0-6.425,15.534l-12.1,6.433v36.617l12.1,6.432v.006a84.9,84.9,0,0,0,6.427,15.527l0,.006-4.007,13.1L353.1,272.672l13.112-4.011a82.82,82.82,0,0,0,15.524,6.434l6.432,12.1h36.617l6.431-12.1h0a83.222,83.222,0,0,0,15.523-6.438l13.113,4.011,25.892-25.892-4.009-13.1,0,0a84.794,84.794,0,0,0,6.425-15.527v0l12.105-6.434V175.094Zm-81.689,91.118a66.376,66.376,0,1,1,66.385-66.368A66.369,66.369,0,0,1,406.474,259.777Z" transform="translate(-312.682 -99.607)"/><g transform="translate(36.708 36.708)"><path class="i" d="M395.985,125.825a57.087,57.087,0,1,0,57.088,57.088A57.152,57.152,0,0,0,395.985,125.825Zm0,106.569a49.482,49.482,0,1,1,49.483-49.481A49.537,49.537,0,0,1,395.985,232.394Z" transform="translate(-338.9 -125.825)"/><path class="j" d="M395.985,125.825a57.087,57.087,0,1,0,57.088,57.088A57.152,57.152,0,0,0,395.985,125.825Zm0,106.569a49.482,49.482,0,1,1,49.483-49.481A49.537,49.537,0,0,1,395.985,232.394Z" transform="translate(-338.9 -125.825)"/></g></g><g transform="translate(64.227 141.036)"><path class="k" d="M286.4,237.763a1.4,1.4,0,0,1-1.4-1.4v-2.8a1.4,1.4,0,1,1,2.8,0v2.8A1.4,1.4,0,0,1,286.4,237.763Z" transform="translate(-258.318 -167.703)"/><path class="k" d="M272.02,211.545a7.664,7.664,0,0,1-2.879-3.427,1.4,1.4,0,0,0-2.576,1.1,10.451,10.451,0,0,0,3.926,4.676,1.4,1.4,0,1,0,1.529-2.347Z" transform="translate(-265.739 -177.665)"/><path class="k" d="M267.343,200.166a1.4,1.4,0,0,0,1.4-1.4V193.4a1.4,1.4,0,0,0-2.8,0v5.368A1.4,1.4,0,0,0,267.343,200.166Z" transform="translate(-265.943 -183.774)"/><path class="k" d="M279.285,211.2h-5.369a1.4,1.4,0,1,0,0,2.8h5.369a1.4,1.4,0,0,0,0-2.8Z" transform="translate(-263.313 -176.09)"/><path class="k" d="M268.743,206.436v-5.369a1.4,1.4,0,1,0-2.8,0v5.369a1.4,1.4,0,0,0,2.8,0Z" transform="translate(-265.943 -180.706)"/><path class="k" d="M287.736,218.049a1.4,1.4,0,1,0-2.779.357,7.728,7.728,0,0,1,.064.993v4.193a1.4,1.4,0,1,0,2.8,0V219.4A10.733,10.733,0,0,0,287.736,218.049Z" transform="translate(-258.34 -173.84)"/><path class="k" d="M286.4,224.494a1.4,1.4,0,0,0-1.4,1.4v5.369a1.4,1.4,0,1,0,2.8,0v-5.369A1.4,1.4,0,0,0,286.4,224.494Z" transform="translate(-258.318 -170.772)"/><path class="k" d="M287.122,214.655a10.406,10.406,0,0,0-5.2-3.2,1.4,1.4,0,0,0-.7,2.711,7.612,7.612,0,0,1,3.806,2.342,1.4,1.4,0,0,0,2.1-1.852Z" transform="translate(-260.252 -176.007)"/><path class="k" d="M267.343,191.724a1.4,1.4,0,0,1-1.4-1.4v-2.8a1.4,1.4,0,0,1,2.8,0v2.8A1.4,1.4,0,0,1,267.343,191.724Z" transform="translate(-265.943 -186.124)"/></g></g><g transform="translate(142.576 316.268)"><g transform="translate(0 62.891)"><rect class="i" width="324.175" height="5.191"/><g transform="translate(324.175 0)"><rect class="l" width="70.345" height="5.191" transform="translate(70.345 5.191) rotate(180)"/><rect class="m" width="70.345" height="5.191" transform="translate(70.345 5.191) rotate(180)"/></g><g transform="translate(11.865 5.191)"><path class="l" d="M469.475,295.78H121.927l-11.621-5.562H481.1Z" transform="translate(-110.306 -290.218)"/><path class="n" d="M469.475,295.78H121.927l-11.621-5.562H481.1Z" transform="translate(-110.306 -290.218)"/></g><path class="i" d="M126.113,294.191V459.874h4.45l5.6-165.684Z" transform="translate(-92.117 -283.438)"/><path class="i" d="M163.648,294.191V459.874H168.1l5.6-165.684Z" transform="translate(-77.099 -283.438)"/><path class="i" d="M369.708,294.191V459.874h-4.45l-5.6-165.684Z" transform="translate(1.326 -283.438)"/><path class="i" d="M332.173,294.191V459.874h-4.449l-5.6-165.684Z" transform="translate(-13.692 -283.438)"/></g><g transform="translate(158.039)"><g transform="translate(39.612 0)"><path class="l" d="M258.04,241.592l-14.627,59.6h0L243,304.483H343.927l.408-3.295,14.627-59.6Z" transform="translate(-243 -241.592)"/><path class="o" d="M258.04,241.592l-14.627,59.6h0L243,304.483H343.927l.408-3.295,14.627-59.6Z" transform="translate(-243 -241.592)"/></g><path class="i" d="M356.626,241.592H255.7l-14.627,59.6H342Z" transform="translate(-204.157 -241.592)"/><path class="e" d="M338.872,297.688l13.29-54.15H256.847l-13.292,54.15Z" transform="translate(-203.166 -240.814)"/><g transform="translate(0 59.596)"><path class="l" d="M326.253,284.158l-.408,3.294H214.708l.408-3.294Z" transform="translate(-214.708 -284.158)"/><path class="n" d="M326.253,284.158l-.408,3.294H214.708l.408-3.294Z" transform="translate(-214.708 -284.158)"/></g></g><path class="p" d="M151.434,281.867a8.87,8.87,0,0,0-7.877-8.535v-1.616a.71.71,0,0,0-.735-.683H127.7a.71.71,0,0,0-.735.683V292.7h16.6v-2.3A8.869,8.869,0,0,0,151.434,281.867Zm-7.877,5.83V276.038a5.895,5.895,0,0,1,0,11.659Z" transform="translate(-91.777 -229.813)"/><g transform="translate(318.481 26.854)"><path class="q" d="M346.564,295.309h14.051l-4.163-30.79h-9.888Z" transform="translate(-322.393 -259.272)"/><g transform="translate(3.555)"><path class="l" d="M331.839,296.809h26.624l4.956-36.037H336.8Z" transform="translate(-331.839 -260.772)"/><path class="m" d="M331.839,296.809h26.624l4.956-36.037H336.8Z" transform="translate(-331.839 -260.772)"/></g><path class="i" d="M329.3,296.809h27.705l4.956-36.037H334.256Z" transform="translate(-329.3 -260.772)"/><path class="r" d="M353.633,293.158l4.175-30.357H335.783l-4.175,30.357Z" transform="translate(-328.377 -259.96)"/></g></g><g transform="translate(244.067 236.554)"><g transform="translate(0 0)"><path class="s" d="M206.826,251.7l-1.142,1.243-1.238,1.4c-.829.944-1.641,1.918-2.429,2.909-1.567,1.991-3.089,4.021-4.5,6.1a65.778,65.778,0,0,0-6.973,12.938,40.692,40.692,0,0,0-1.983,6.687c-.228,1.291-.374,1.847-.437,2.393a3.777,3.777,0,0,0,0,1.319c.078.8,1.057,2.092,2.851,3.157a19.171,19.171,0,0,0,2.972,1.494c.545.218,1.106.43,1.676.634.542.189,1.214.395,1.624.553l.017,7.723c-.974.141-1.687.248-2.523.3a25.617,25.617,0,0,1-7.492-.584,19.135,19.135,0,0,1-5.292-2.121,15.619,15.619,0,0,1-4.874-4.536,16.289,16.289,0,0,1-2.543-6.522,12.592,12.592,0,0,1-.181-1.645,13.925,13.925,0,0,1-.034-1.593l.018-.784c.008-.259.035-.421.053-.638l.12-1.224a48.541,48.541,0,0,1,2.015-9.428,69.955,69.955,0,0,1,7.937-16.692,80.127,80.127,0,0,1,5.276-7.344c.941-1.175,1.907-2.327,2.909-3.464.5-.57,1.009-1.133,1.549-1.687.554-.578,1.025-1.061,1.739-1.753Z" transform="translate(-174.32 -162.302)"/><path class="s" d="M188.648,278.911l6.52-4.781,3.719,13.412s-5.777,2.144-10.2-.736Z" transform="translate(-168.588 -148.859)"/><path class="s" d="M202.365,271.832l2.554,11.229-7.895,5.4-3.719-13.412Z" transform="translate(-166.724 -149.779)"/><path class="q" d="M229.288,212.09c-.288.83-.083,1.656.459,1.845s1.217-.332,1.505-1.162.083-1.655-.459-1.844S229.577,211.26,229.288,212.09Z" transform="translate(-152.379 -174.162)"/><path class="t" d="M229.916,212.911s.223,5.445,1.5,8.479c-1.946.86-4.224-.636-4.224-.636Z" transform="translate(-153.167 -173.354)"/><path class="q" d="M228.392,208.08a.508.508,0,0,0,.316.007,4.093,4.093,0,0,1,3.686.57.516.516,0,0,0,.666-.788,5.117,5.117,0,0,0-4.648-.77.515.515,0,0,0-.021.981Z" transform="translate(-152.825 -175.775)"/><path class="s" d="M208.025,213.926c1.563,7.971,3.122,22.577-2.454,27.894,0,0,2.18,8.087,16.99,8.087,16.286,0,7.783-8.086,7.783-8.086-8.888-2.123-8.66-8.717-7.111-14.911Z" transform="translate(-161.816 -172.947)"/><path class="q" d="M204.435,238.007c-1.168-2.559-2.452-5.49.206-6.407,2.925-1.009,18.936-2.039,24.457-.144a5.694,5.694,0,0,1,3.955,7.086Z" transform="translate(-162.814 -166.357)"/><path class="s" d="M247.925,245.59c3.42,6.179,7.106,12.528,10.84,18.638,3.742,6.133,7.625,12.171,11.8,17.724,1.037,1.411,2.1,2.729,3.173,4.052.526.689,1.089,1.259,1.634,1.887l.822.925.206.232.1.116.032.032a.872.872,0,0,1,.106.137,5.863,5.863,0,0,0,2.288,1.375,21.18,21.18,0,0,0,4.083,1c6.154.876,13.532.438,20.454-.242l2.125,7.426c-1.893.834-3.66,1.467-5.528,2.1-1.847.633-3.728,1.173-5.649,1.638a53.713,53.713,0,0,1-12.147,1.624,30.237,30.237,0,0,1-6.845-.676,18.92,18.92,0,0,1-7.617-3.4l-.938-.773-.227-.2-.136-.134-.274-.267-1.092-1.074c-.717-.72-1.49-1.43-2.137-2.167-1.351-1.465-2.718-2.926-3.936-4.441a182.344,182.344,0,0,1-13.51-18.612q-3.081-4.782-5.914-9.678c-1.9-3.283-3.734-6.5-5.512-9.981Z" transform="translate(-150.389 -160.278)"/><path class="i" d="M197.9,235.7c-10.211,2.341-21.924,30.184-21.924,30.184l20.512,14.057a172.357,172.357,0,0,0,13.547-23.032C216.09,244.171,208.344,233.31,197.9,235.7Z" transform="translate(-173.657 -164.367)"/><path class="u" d="M199.636,248.289l-9.7,25.821.963.667s4.2-5.887,8.737-13.837Z" transform="translate(-168.072 -159.199)"/><path class="i" d="M252.679,236.978s11.6,13.1.645,94.177H195.046c-.4-8.947,5.22-52.587-3.409-94.738a152.04,152.04,0,0,1,19.509-2.464c7.447-.358,18.228-.6,24.774,0A109.454,109.454,0,0,1,252.679,236.978Z" transform="translate(-167.392 -165.08)"/><path class="u" d="M230.614,252.751A51.69,51.69,0,0,0,242.123,277.7c.238-5.221.326-9.907.311-14.1Z" transform="translate(-151.797 -157.413)"/><path class="i" d="M227.046,244.9c-1.438,10.317,18.89,36.673,18.89,36.673l20.428-14.06s-5.662-14.525-15.2-24.043C240.267,232.6,228.608,233.67,227.046,244.9Z" transform="translate(-153.253 -164.167)"/><path class="s" d="M281.968,279.36l8.321-3.406,8.559,6.459s-8.171,7.226-15.593,4.419Z" transform="translate(-131.249 -148.129)"/><path class="s" d="M293.442,275.711l6.272,4.48-3.244,2.317-8.559-6.458Z" transform="translate(-128.871 -148.227)"/><path class="s" d="M210.911,206.744c-2.919,10.413-5.158,16.357-1.829,23.382,5.007,10.564,19.214,10.273,25.185.942,5.376-8.4,9.248-24.013.68-31.542A14.75,14.75,0,0,0,210.911,206.744Z" transform="translate(-161.076 -180.207)"/><path class="q" d="M235.452,211.3c-4.248,11.964-9.134,25.1-21.2,22.6-7.787-1.606-8.388-14.14-11.2-19.837-2.471-5.01-2.324-15.058,2.744-15.181-2.288-3.338,9.318-15.531,17.241-9.085,2.026-2.8,16.664-11.045,27.5,2.04C260.786,204.218,255.78,214.571,235.452,211.3Z" transform="translate(-163.449 -184.658)"/><path class="s" d="M219.027,210.263a12.213,12.213,0,0,0,1.705,7.661c1.864,3,4.6,1.848,5.585-1.211.89-2.753.994-7.633-1.6-9.577C222.158,205.222,219.42,207.049,219.027,210.263Z" transform="translate(-156.465 -175.976)"/><g transform="translate(132.532 285.337)"><path class="l" d="M283.9,407.626c1.4,0,2.747-.193,3.2-.822a.976.976,0,0,0-.021-1.129,1.288,1.288,0,0,0-.818-.6c-1.813-.494-5.621,1.676-5.782,1.768a.258.258,0,0,0,.078.477A19.094,19.094,0,0,0,283.9,407.626Zm1.726-2.114a1.973,1.973,0,0,1,.5.059.778.778,0,0,1,.505.361c.183.321.118.479.05.571-.507.7-3.262.72-5.287.434A11.678,11.678,0,0,1,285.624,405.512Z" transform="translate(-264.43 -381.834)"/><path class="l" d="M280.6,408.069a.253.253,0,0,0,.1-.022c1.315-.589,3.92-2.947,3.721-4.178-.048-.29-.252-.65-.96-.722a1.914,1.914,0,0,0-1.432.444c-1.386,1.138-1.679,4.073-1.691,4.2a.257.257,0,0,0,.258.283Zm2.659-4.417a1.154,1.154,0,0,1,.154.01c.465.046.494.23.5.29.119.739-1.651,2.59-2.993,3.4.14-.857.529-2.613,1.438-3.359A1.376,1.376,0,0,1,283.264,403.652Z" transform="translate(-264.43 -382.58)"/><path class="s" d="M271.478,413.687h10.9l2.474-25.232h-10.9Z" transform="translate(-267.978 -388.454)"/><path class="q" d="M284,405.575H272.1a.951.951,0,0,0-.928.745L269.017,416a1.585,1.585,0,0,0,1.568,1.938c4.291-.073,10.494-.325,15.888-.325,6.309,0,11.757.344,19.153.344,4.473,0,5.715-4.522,3.843-4.931-8.524-1.865-15.484-2.065-22.85-6.607A5.051,5.051,0,0,0,284,405.575Z" transform="translate(-268.978 -381.604)"/><path class="u" d="M284.5,388.459l-1.273,13.006h-10.9l1.273-13.006Z" transform="translate(-267.637 -388.453)"/></g><path class="l" d="M252.561,407.615a3.509,3.509,0,0,0,2.618-.72,1.053,1.053,0,0,0-.008-1.225,1.2,1.2,0,0,0-.811-.6c-1.586-.374-4.6,1.686-4.727,1.774a.258.258,0,0,0,.085.463A13.746,13.746,0,0,0,252.561,407.615Zm1.364-2.078a1.328,1.328,0,0,1,.316.035.692.692,0,0,1,.477.347c.232.424.1.6.05.662-.466.61-2.69.622-4.319.347A8.5,8.5,0,0,1,253.924,405.538Z" transform="translate(-144.232 -96.487)"/><path class="l" d="M249.778,408.069a.251.251,0,0,0,.123-.031c1.129-.612,3.308-3,3.077-4.214a.843.843,0,0,0-.822-.676,1.416,1.416,0,0,0-1.1.332c-1.266,1.035-1.526,4.178-1.536,4.311a.256.256,0,0,0,.116.238A.27.27,0,0,0,249.778,408.069Zm2.2-4.416a.8.8,0,0,1,.116.007c.336.042.365.195.378.26.136.717-1.253,2.522-2.373,3.373.127-.918.475-2.751,1.287-3.415A.912.912,0,0,1,251.978,403.653Z" transform="translate(-144.232 -97.242)"/><path class="s" d="M240.79,413.687h10.9l5.477-25.232h-10.9Z" transform="translate(-147.725 -103.117)"/><path class="q" d="M253.514,405.575H241.273a.951.951,0,0,0-.928.745L238.193,416a1.6,1.6,0,0,0,1.6,1.938c4.273-.074,6.349-.325,11.732-.325,3.313,0,7.562.344,12.136.344,4.473,0,5.171-4.522,3.3-4.931-8.4-1.837-8.984-4.37-11.673-6.785A2.638,2.638,0,0,0,253.514,405.575Z" transform="translate(-148.779 -96.267)"/><g class="v" transform="translate(95.709 285.344)"><path d="M245.507,388.459h10.9l-2.828,13.006h-10.9Z" transform="translate(-242.678 -388.459)"/></g><path class="q" d="M250.64,303.274s81.633,8.635,80.739,50.275c-.931,43.312-14.866,76.466-14.866,76.466H300.323s.825-26.409.28-69.049c-.162-12.776-25.976-17-51.185-18.487a57.317,57.317,0,0,1-49.338-35.088l-1.732-4.116Z" transform="translate(-164.707 -137.199)"/><path class="k" d="M292.455,390.7c.084,0-1.042,7.663-1.042,7.663H268.96l-.606-6.84Z" transform="translate(-136.696 -102.219)"/><path class="q" d="M235.519,303.274s59.17,19.625,60.661,43.906c2.748,44.718-19.187,82.835-19.187,82.835H260.649s6.207-18.9,8.433-59.409c2.8-50.9-92.168-.09-74.375-67.331Z" transform="translate(-167.052 -137.199)"/><path class="k" d="M263.372,390.7c.085,0-2.061,7.663-2.061,7.663H238.859l.412-6.84Z" transform="translate(-148.498 -102.219)"/><g transform="translate(10.632 198.552)"><path class="i" d="M279.7,336.852h-91a10.382,10.382,0,0,1,10.382-10.382h70.232A10.382,10.382,0,0,1,279.7,336.852Z" transform="translate(-179.197 -326.47)"/><g transform="translate(0 10.383)"><path class="l" d="M195.624,333.885l-13.71,115.027h2.93l17.4-115.027Z" transform="translate(-181.914 -333.885)"/><path class="w" d="M195.624,333.885l-13.71,115.027h2.93l17.4-115.027Z" transform="translate(-181.914 -333.885)"/></g><g transform="translate(31.807 10.383)"><path class="l" d="M204.893,333.885l-.262,115.027h2.93l3.951-115.027Z" transform="translate(-204.631 -333.885)"/><path class="w" d="M204.893,333.885l-.262,115.027h2.93l3.951-115.027Z" transform="translate(-204.631 -333.885)"/></g><g transform="translate(89.678 10.383)"><path class="l" d="M252.585,333.885,266.3,448.912h-2.93l-17.4-115.027Z" transform="translate(-245.965 -333.885)"/><path class="w" d="M252.585,333.885,266.3,448.912h-2.93l-17.4-115.027Z" transform="translate(-245.965 -333.885)"/></g><g transform="translate(71.32 10.383)"><path class="l" d="M239.473,333.885l.262,115.027H236.8l-3.951-115.027Z" transform="translate(-232.853 -333.885)"/><path class="w" d="M239.473,333.885l.262,115.027H236.8l-3.951-115.027Z" transform="translate(-232.853 -333.885)"/></g></g></g></g></g></svg>