<svg xmlns="http://www.w3.org/2000/svg" width="382" height="368.357" viewBox="0 0 382 368.357">
    <defs>
        <style>
            .cls-1{fill:#366db6}.cls-2{fill:#1f436d}.cls-3{fill:#dc691d}
        </style>
    </defs>
    <g id="databases" transform="translate(0 -9.143)">
        <g id="Group_372" transform="translate(150.071 9.143)">
            <path id="Path_283" d="M317.107 27.429c-64.046 0-115.965 15.273-115.965 34.107v40.928c47.4 4.284 74.981 11.938 74.981 27.285 0 1.76-.436 5.232.055 5.28a.135.135 0 0 1-.055-.007v158.442a11.356 11.356 0 0 1-1.46 5.15c11.214 1.064 30.015 1.671 42.443 1.671 64.046 0 115.965-15.273 115.965-34.107V61.536c0-18.836-51.917-34.107-115.964-34.107z" class="cls-1" transform="translate(-201.142 -13.786)"/>
            <ellipse id="Ellipse_15" cx="115.965" cy="34.107" class="cls-1" rx="115.965" ry="34.107"/>
        </g>
        <g id="Group_373" transform="translate(150.071 43.25)">
            <path id="Path_284" d="M317.107 88.964c-64.046 0-115.965-15.273-115.965-34.107v49.258c47.4 4.284 81.857 17.258 81.857 32.6a11.288 11.288 0 0 1-1.474 5.17c11.221 1.064 23.159 1.651 35.58 1.651 64.048 0 115.965-15.274 115.965-34.108V54.857c.001 18.834-51.916 34.107-115.963 34.107z" class="cls-2" transform="translate(-201.142 -54.857)"/>
            <path id="Path_285" d="M344.467 235.25c-11.9 0-23.309-.566-34.107-1.548V283a11.357 11.357 0 0 1-1.46 5.15c11.215 1.064 23.139 1.671 35.567 1.671 64.047 0 115.964-15.273 115.964-34.107v-54.571c.001 18.834-51.917 34.107-115.964 34.107z" class="cls-2" transform="translate(-228.502 -92)"/>
        </g>
        <g id="Group_374" transform="translate(230.468 97.821)">
            <path id="Path_286" d="M344.467 308.393c-11.9 0-23.309-.566-34.107-1.548v49.3a11.357 11.357 0 0 1-1.46 5.15c11.215 1.064 23.139 1.671 35.567 1.671 64.046 0 115.964-15.273 115.964-34.107v-54.573c.001 18.834-51.917 34.107-115.964 34.107z" class="cls-1" transform="translate(-308.9 -165.143)"/>
            <path id="Path_287" d="M344.467 162.107c-11.9 0-23.309-.566-34.107-1.548v49.3a11.355 11.355 0 0 1-1.46 5.15c11.215 1.064 23.139 1.671 35.567 1.671 64.046 0 115.964-15.273 115.964-34.107V128c.001 18.834-51.917 34.107-115.964 34.107z" class="cls-1" transform="translate(-308.9 -128)"/>
        </g>
        <path id="Path_288" d="M115.965 137.143C51.918 137.143 0 152.416 0 171.25v204.643C0 394.727 51.918 410 115.965 410s115.965-15.273 115.965-34.107V171.25c-.002-18.834-51.919-34.107-115.965-34.107z" class="cls-3" transform="translate(0 -32.5)"/>
        <ellipse id="Ellipse_16" cx="115.965" cy="34.107" fill="#ebba16" rx="115.965" ry="34.107" transform="translate(0 91)"/>
        <path id="Path_289" fill="#ed8a19" d="M115.965 198.679C51.918 198.679 0 183.405 0 164.571v54.572c0 18.834 51.918 34.107 115.965 34.107s115.965-15.273 115.965-34.107v-54.572c-.002 18.834-51.919 34.108-115.965 34.108z" transform="translate(0 -39.464)"/>
        <path id="Path_290" d="M115.965 271.822C51.918 271.822 0 256.548 0 237.714v54.572c0 18.834 51.918 34.107 115.965 34.107S231.93 311.12 231.93 292.286v-54.572c-.002 18.834-51.919 34.108-115.965 34.108z" class="cls-3" transform="translate(0 -58.036)"/>
        <path id="Path_291" fill="#c5411e" d="M115.965 344.964C51.918 344.964 0 329.691 0 310.857v54.572c0 18.834 51.918 34.107 115.965 34.107s115.964-15.273 115.964-34.107v-54.572c-.001 18.834-51.918 34.107-115.964 34.107z" transform="translate(0 -76.607)"/>
        <path id="Path_292" fill="#a03520" d="M115.965 418.107C51.918 418.107 0 402.834 0 384v54.572c0 18.834 51.918 34.107 115.965 34.107s115.965-15.273 115.965-34.107V384c-.002 18.834-51.919 34.107-115.965 34.107z" transform="translate(0 -95.179)"/>
    </g>
</svg>
