<svg xmlns="http://www.w3.org/2000/svg" width="88.243" height="85.092" viewBox="0 0 88.243 85.092"><defs><style>.a{fill:#366db6;}.b{fill:#1f436d;}.c{fill:#dc691d;}.d{fill:#ebba16;}.e{fill:#ed8a19;}.f{fill:#c5411e;}.g{fill:#a03520;}</style></defs><g transform="translate(0 -9.143)"><g transform="translate(34.667 9.143)"><path class="a" d="M227.93,27.429c-14.795,0-26.788,3.528-26.788,7.879v9.455c10.949.99,17.321,2.758,17.321,6.3,0,.407-.1,1.209.013,1.22a.031.031,0,0,1-.013,0v36.6a2.623,2.623,0,0,1-.337,1.19c2.591.246,6.933.386,9.8.386,14.795,0,26.788-3.528,26.788-7.879V35.308C254.719,30.957,242.725,27.429,227.93,27.429Z" transform="translate(-201.142 -24.277)"/><ellipse class="a" cx="26.788" cy="7.879" rx="26.788" ry="7.879" transform="translate(0 0)"/></g><g transform="translate(34.667 17.022)"><path class="b" d="M227.93,62.736c-14.795,0-26.788-3.528-26.788-7.879V66.236c10.949.99,18.909,3.987,18.909,7.531a2.607,2.607,0,0,1-.34,1.194c2.592.246,5.35.381,8.219.381,14.8,0,26.788-3.528,26.788-7.879V54.857C254.719,59.208,242.725,62.736,227.93,62.736Z" transform="translate(-201.142 -54.857)"/><path class="b" d="M317.116,209.022c-2.748,0-5.384-.131-7.879-.358v11.388a2.623,2.623,0,0,1-.337,1.19c2.591.246,5.345.386,8.216.386,14.8,0,26.788-3.528,26.788-7.879V201.143C343.9,205.494,331.911,209.022,317.116,209.022Z" transform="translate(-290.328 -175.931)"/></g><g transform="translate(53.239 29.628)"><path class="a" d="M317.116,282.165c-2.748,0-5.384-.131-7.879-.358V293.2a2.623,2.623,0,0,1-.337,1.19c2.591.246,5.345.386,8.216.386,14.795,0,26.788-3.528,26.788-7.879V274.286C343.9,278.637,331.911,282.165,317.116,282.165Z" transform="translate(-308.9 -249.074)"/><path class="a" d="M317.116,135.879c-2.748,0-5.384-.131-7.879-.358v11.388a2.623,2.623,0,0,1-.337,1.19c2.591.246,5.345.386,8.216.386,14.795,0,26.788-3.528,26.788-7.879V128C343.9,132.351,331.911,135.879,317.116,135.879Z" transform="translate(-308.9 -128)"/></g><path class="c" d="M26.788,137.143c-14.8,0-26.788,3.528-26.788,7.879V192.3c0,4.351,11.993,7.879,26.788,7.879s26.788-3.528,26.788-7.879V145.022C53.576,140.671,41.583,137.143,26.788,137.143Z" transform="translate(0 -105.939)"/><ellipse class="d" cx="26.788" cy="7.879" rx="26.788" ry="7.879" transform="translate(0 28.052)"/><path class="e" d="M26.788,172.45C11.993,172.45,0,168.922,0,164.571v12.606c0,4.351,11.993,7.879,26.788,7.879s26.788-3.528,26.788-7.879V164.571C53.576,168.922,41.583,172.45,26.788,172.45Z" transform="translate(0 -128.64)"/><path class="c" d="M26.788,245.593c-14.8,0-26.788-3.528-26.788-7.879V250.32c0,4.351,11.993,7.879,26.788,7.879s26.788-3.528,26.788-7.879V237.714C53.576,242.065,41.583,245.593,26.788,245.593Z" transform="translate(0 -189.177)"/><path class="f" d="M26.788,318.736c-14.8,0-26.788-3.528-26.788-7.879v12.606c0,4.351,11.993,7.879,26.788,7.879s26.788-3.528,26.788-7.879V310.857C53.576,315.208,41.583,318.736,26.788,318.736Z" transform="translate(0 -249.713)"/><path class="g" d="M26.788,391.879C11.993,391.879,0,388.351,0,384v12.606c0,4.351,11.993,7.879,26.788,7.879s26.788-3.528,26.788-7.879V384C53.576,388.351,41.583,391.879,26.788,391.879Z" transform="translate(0 -310.25)"/></g></svg>